G04*
G04 #@! TF.GenerationSoftware,Altium Limited,Altium Designer,20.0.1 (14)*
G04*
G04 Layer_Color=128*
%FSLAX24Y24*%
%MOIN*%
G70*
G01*
G75*
%ADD15C,0.0060*%
%ADD32C,0.0020*%
D15*
X55118Y0D02*
Y4724D01*
X0D02*
X55118D01*
X0Y0D02*
Y4724D01*
Y0D02*
X55118D01*
D32*
X51094Y2377D02*
X51579D01*
X51337Y2135D02*
Y2619D01*
X50094Y2377D02*
X50579D01*
X50337Y2135D02*
Y2619D01*
X35578Y2377D02*
X36062D01*
X35820Y2135D02*
Y2619D01*
X34578Y2377D02*
X35062D01*
X34820Y2135D02*
Y2619D01*
X20062Y2377D02*
X20546D01*
X20304Y2135D02*
Y2619D01*
X19062Y2377D02*
X19546D01*
X19304Y2135D02*
Y2619D01*
X4545Y2377D02*
X5030D01*
X4787Y2135D02*
Y2619D01*
X3545Y2377D02*
X4030D01*
X3787Y2135D02*
Y2619D01*
X44876Y2377D02*
X45676D01*
X45276Y1977D02*
Y2777D01*
X27159Y2377D02*
X27959D01*
X27559Y1977D02*
Y2777D01*
X9443Y2377D02*
X10243D01*
X9843Y1977D02*
Y2777D01*
X53890Y2750D02*
X54010D01*
X53950Y2690D02*
Y2810D01*
X54540Y2750D02*
X54660D01*
X54600Y2690D02*
Y2810D01*
X53890Y1850D02*
X54010D01*
X53950Y1790D02*
Y1910D01*
X54540Y1850D02*
X54660D01*
X54600Y1790D02*
Y1910D01*
X1040Y1850D02*
X1160D01*
X1100Y1790D02*
Y1910D01*
X390Y1850D02*
X510D01*
X450Y1790D02*
Y1910D01*
X1040Y2750D02*
X1160D01*
X1100Y2690D02*
Y2810D01*
X390Y2750D02*
X510D01*
X450Y2690D02*
Y2810D01*
X41440Y1850D02*
X41560D01*
X41500Y1790D02*
Y1910D01*
X40690Y1850D02*
X40810D01*
X40750Y1790D02*
Y1910D01*
X39990Y1850D02*
X40110D01*
X40050Y1790D02*
Y1910D01*
X39290Y1850D02*
X39410D01*
X39350Y1790D02*
Y1910D01*
X38540Y1850D02*
X38660D01*
X38600Y1790D02*
Y1910D01*
X41440Y2400D02*
X41560D01*
X41500Y2340D02*
Y2460D01*
X40690Y2400D02*
X40810D01*
X40750Y2340D02*
Y2460D01*
X39990Y2400D02*
X40110D01*
X40050Y2340D02*
Y2460D01*
X39290Y2400D02*
X39410D01*
X39350Y2340D02*
Y2460D01*
X38540Y2400D02*
X38660D01*
X38600Y2340D02*
Y2460D01*
X31240Y1950D02*
X31360D01*
X31300Y1890D02*
Y2010D01*
X30490Y1950D02*
X30610D01*
X30550Y1890D02*
Y2010D01*
X29790Y1950D02*
X29910D01*
X29850Y1890D02*
Y2010D01*
X24490Y2000D02*
X24610D01*
X24550Y1940D02*
Y2060D01*
X23740Y2000D02*
X23860D01*
X23800Y1940D02*
Y2060D01*
X31240Y2500D02*
X31360D01*
X31300Y2440D02*
Y2560D01*
X30490Y2500D02*
X30610D01*
X30550Y2440D02*
Y2560D01*
X29790Y2500D02*
X29910D01*
X29850Y2440D02*
Y2560D01*
X24490Y2550D02*
X24610D01*
X24550Y2490D02*
Y2610D01*
X23740Y2550D02*
X23860D01*
X23800Y2490D02*
Y2610D01*
X16940Y2000D02*
X17060D01*
X17000Y1940D02*
Y2060D01*
X16190Y2000D02*
X16310D01*
X16250Y1940D02*
Y2060D01*
X15490Y2000D02*
X15610D01*
X15550Y1940D02*
Y2060D01*
X14790Y2000D02*
X14910D01*
X14850Y1940D02*
Y2060D01*
X14040Y2000D02*
X14160D01*
X14100Y1940D02*
Y2060D01*
X16940Y2550D02*
X17060D01*
X17000Y2490D02*
Y2610D01*
X16190Y2550D02*
X16310D01*
X16250Y2490D02*
Y2610D01*
X15490Y2550D02*
X15610D01*
X15550Y2490D02*
Y2610D01*
X14790Y2550D02*
X14910D01*
X14850Y2490D02*
Y2610D01*
X14040Y2550D02*
X14160D01*
X14100Y2490D02*
Y2610D01*
M02*
