M48
;Layer_Color=9474304
;FILE_FORMAT=2:4
INCH,LZ
;TYPE=PLATED
T1F00S00C0.0120
T2F00S00C0.0484
T3F00S00C0.0800
%
T01
X05395Y00185
X0546
Y00275
X05395
X0415Y0024
Y00185
X04075
Y0024
X04005
Y00185
X03935
Y0024
X0386
Y00185
X0313Y00195
Y0025
X03055
Y00195
X02985
Y0025
X02455Y00255
Y002
X0238
Y00255
X017
Y002
X01625
Y00255
X01555
Y002
X01485
Y00255
X0141
Y002
X0011Y00185
X00045
Y00275
X0011
T02
X050337Y002377
X051337
X03582
X03482
X020304
X019304
X004787
X003787
T03
X045276Y002377
X027559
X009843
M30
