G04*
G04 #@! TF.GenerationSoftware,Altium Limited,Altium Designer,20.0.1 (14)*
G04*
G04 Layer_Physical_Order=1*
G04 Layer_Color=255*
%FSLAX24Y24*%
%MOIN*%
G70*
G01*
G75*
%ADD15C,0.0060*%
%ADD16R,0.0866X0.0630*%
%ADD17R,0.0551X0.0118*%
%ADD18R,0.0354X0.0256*%
%ADD25C,0.0120*%
%ADD26C,0.0300*%
%ADD27C,0.0200*%
%ADD28C,0.0726*%
%ADD29R,0.0726X0.0726*%
%ADD30C,0.0800*%
%ADD31C,0.0240*%
G36*
X53700Y3650D02*
Y3300D01*
X53600Y3200D01*
X53117Y3200D01*
X53107Y3202D01*
X52748D01*
X52650Y3300D01*
Y3600D01*
X52800Y3750D01*
X53600D01*
X53700Y3650D01*
D02*
G37*
G36*
X2350Y3600D02*
Y3250D01*
X2302Y3202D01*
X1993D01*
X1973Y3198D01*
X1652D01*
X1500Y3350D01*
Y3650D01*
X1600Y3750D01*
X2200D01*
X2350Y3600D01*
D02*
G37*
G36*
X48467Y3187D02*
X48435Y3165D01*
X48253Y2983D01*
X48217Y2931D01*
X48209Y2891D01*
X48091D01*
Y2435D01*
X48645D01*
Y2887D01*
X49865D01*
X49873Y2840D01*
X49873Y2837D01*
Y1914D01*
X50137D01*
Y1668D01*
X49382Y913D01*
X34415D01*
X34394Y963D01*
X34915Y1485D01*
X34951Y1538D01*
X34963Y1600D01*
Y1914D01*
X35283D01*
Y2837D01*
X35283Y2840D01*
X35292Y2887D01*
X35482D01*
X35551Y2818D01*
X35547Y2752D01*
X35490Y2708D01*
X35416Y2611D01*
X35369Y2498D01*
X35353Y2377D01*
X35369Y2256D01*
X35416Y2144D01*
X35490Y2047D01*
X35587Y1973D01*
X35699Y1926D01*
X35820Y1910D01*
X35941Y1926D01*
X36054Y1973D01*
X36151Y2047D01*
X36225Y2144D01*
X36271Y2256D01*
X36287Y2377D01*
X36271Y2498D01*
X36225Y2611D01*
X36151Y2708D01*
X36054Y2782D01*
X35977Y2814D01*
X35971Y2842D01*
X35936Y2895D01*
X35665Y3165D01*
X35633Y3187D01*
X35648Y3237D01*
X48452D01*
X48467Y3187D01*
D02*
G37*
G36*
X32867D02*
X32835Y3165D01*
X32736Y3067D01*
X32701Y3014D01*
X32689Y2952D01*
Y2891D01*
X32575D01*
Y2435D01*
X33129D01*
Y2887D01*
X34348D01*
X34357Y2840D01*
X34357Y2837D01*
Y1914D01*
X34637D01*
Y1668D01*
X34182Y1213D01*
X18965D01*
X18944Y1263D01*
X19415Y1735D01*
X19451Y1788D01*
X19463Y1850D01*
Y1914D01*
X19767D01*
Y2840D01*
X18841D01*
Y1914D01*
X19068D01*
X19087Y1868D01*
X18732Y1513D01*
X3768D01*
X3413Y1868D01*
X3432Y1914D01*
X4251D01*
Y2840D01*
X3324D01*
Y2415D01*
X2861D01*
X2842Y2461D01*
X3618Y3237D01*
X32852D01*
X32867Y3187D01*
D02*
G37*
G36*
X220Y4680D02*
Y4329D01*
X1286D01*
Y4644D01*
X1322Y4680D01*
X2943Y4679D01*
X2959Y4629D01*
X2906Y4594D01*
X2906Y4594D01*
X2164Y3852D01*
X1600D01*
X1561Y3844D01*
X1528Y3822D01*
X1428Y3722D01*
X1406Y3689D01*
X1398Y3650D01*
Y3350D01*
X1406Y3311D01*
X1428Y3278D01*
X1580Y3126D01*
X1613Y3104D01*
X1618Y3103D01*
Y2880D01*
Y2486D01*
Y2093D01*
Y1699D01*
Y1502D01*
X1973D01*
X1993Y1498D01*
Y1464D01*
X2043D01*
Y1305D01*
X2369D01*
Y1498D01*
X2521D01*
X3385Y635D01*
X3438Y599D01*
X3500Y587D01*
X49450D01*
X49512Y599D01*
X49565Y635D01*
X50415Y1485D01*
X50451Y1538D01*
X50463Y1600D01*
X50463Y1600D01*
Y1914D01*
X50800D01*
Y2837D01*
X50800Y2840D01*
X50808Y2887D01*
X51032D01*
X51092Y2827D01*
X51082Y2766D01*
X51006Y2708D01*
X50932Y2611D01*
X50885Y2498D01*
X50869Y2377D01*
X50885Y2256D01*
X50932Y2144D01*
X51006Y2047D01*
X51103Y1973D01*
X51216Y1926D01*
X51337Y1910D01*
X51458Y1926D01*
X51570Y1973D01*
X51667Y2047D01*
X51741Y2144D01*
X51788Y2256D01*
X51804Y2377D01*
X51788Y2498D01*
X51741Y2611D01*
X51667Y2708D01*
X51570Y2782D01*
X51500Y2811D01*
Y2813D01*
X51487Y2876D01*
X51452Y2929D01*
X51215Y3165D01*
X51183Y3187D01*
X51198Y3237D01*
X51382D01*
X52286Y2333D01*
X52339Y2298D01*
X52402Y2285D01*
X52731D01*
Y2093D01*
Y1699D01*
Y1502D01*
X53107D01*
X53482D01*
Y1502D01*
Y1896D01*
Y2289D01*
Y2683D01*
Y3098D01*
X53600D01*
X53639Y3106D01*
X53672Y3128D01*
X53672Y3128D01*
X53772Y3228D01*
X53794Y3261D01*
X53802Y3300D01*
Y3650D01*
X53794Y3689D01*
X53772Y3722D01*
X53672Y3822D01*
X53639Y3844D01*
X53600Y3852D01*
X52800D01*
X52761Y3844D01*
X52751Y3837D01*
X51994Y4594D01*
X51955Y4621D01*
X51970Y4671D01*
X53814Y4670D01*
Y4329D01*
X54347D01*
X54880D01*
Y4635D01*
X54915Y4670D01*
X55070Y4670D01*
Y60D01*
X55060Y50D01*
X54880D01*
Y371D01*
X54347D01*
X53814D01*
Y50D01*
X1286D01*
Y371D01*
X220D01*
Y50D01*
X50D01*
Y4634D01*
X95Y4679D01*
X100Y4680D01*
X220Y4680D01*
D02*
G37*
%LPC*%
G36*
X41550Y2614D02*
Y2450D01*
X41714D01*
X41707Y2486D01*
X41659Y2559D01*
X41586Y2607D01*
X41550Y2614D01*
D02*
G37*
G36*
X41450D02*
X41414Y2607D01*
X41341Y2559D01*
X41293Y2486D01*
X41286Y2450D01*
X41450D01*
Y2614D01*
D02*
G37*
G36*
X40800D02*
Y2450D01*
X40964D01*
X40957Y2486D01*
X40909Y2559D01*
X40836Y2607D01*
X40800Y2614D01*
D02*
G37*
G36*
X40700D02*
X40664Y2607D01*
X40591Y2559D01*
X40543Y2486D01*
X40536Y2450D01*
X40700D01*
Y2614D01*
D02*
G37*
G36*
X40100D02*
Y2450D01*
X40264D01*
X40257Y2486D01*
X40209Y2559D01*
X40136Y2607D01*
X40100Y2614D01*
D02*
G37*
G36*
X40000D02*
X39964Y2607D01*
X39891Y2559D01*
X39843Y2486D01*
X39836Y2450D01*
X40000D01*
Y2614D01*
D02*
G37*
G36*
X39400D02*
Y2450D01*
X39564D01*
X39557Y2486D01*
X39509Y2559D01*
X39436Y2607D01*
X39400Y2614D01*
D02*
G37*
G36*
X39300D02*
X39264Y2607D01*
X39191Y2559D01*
X39143Y2486D01*
X39136Y2450D01*
X39300D01*
Y2614D01*
D02*
G37*
G36*
X38650D02*
Y2450D01*
X38814D01*
X38807Y2486D01*
X38759Y2559D01*
X38686Y2607D01*
X38650Y2614D01*
D02*
G37*
G36*
X38550D02*
X38514Y2607D01*
X38441Y2559D01*
X38393Y2486D01*
X38386Y2450D01*
X38550D01*
Y2614D01*
D02*
G37*
G36*
X41714Y2350D02*
X41550D01*
Y2186D01*
X41586Y2193D01*
X41659Y2241D01*
X41707Y2314D01*
X41714Y2350D01*
D02*
G37*
G36*
X41450D02*
X41286D01*
X41293Y2314D01*
X41341Y2241D01*
X41414Y2193D01*
X41450Y2186D01*
Y2350D01*
D02*
G37*
G36*
X40964D02*
X40800D01*
Y2186D01*
X40836Y2193D01*
X40909Y2241D01*
X40957Y2314D01*
X40964Y2350D01*
D02*
G37*
G36*
X40700D02*
X40536D01*
X40543Y2314D01*
X40591Y2241D01*
X40664Y2193D01*
X40700Y2186D01*
Y2350D01*
D02*
G37*
G36*
X40264D02*
X40100D01*
Y2186D01*
X40136Y2193D01*
X40209Y2241D01*
X40257Y2314D01*
X40264Y2350D01*
D02*
G37*
G36*
X40000D02*
X39836D01*
X39843Y2314D01*
X39891Y2241D01*
X39964Y2193D01*
X40000Y2186D01*
Y2350D01*
D02*
G37*
G36*
X39564D02*
X39400D01*
Y2186D01*
X39436Y2193D01*
X39509Y2241D01*
X39557Y2314D01*
X39564Y2350D01*
D02*
G37*
G36*
X39300D02*
X39136D01*
X39143Y2314D01*
X39191Y2241D01*
X39264Y2193D01*
X39300Y2186D01*
Y2350D01*
D02*
G37*
G36*
X38814D02*
X38650D01*
Y2186D01*
X38686Y2193D01*
X38759Y2241D01*
X38807Y2314D01*
X38814Y2350D01*
D02*
G37*
G36*
X38550D02*
X38386D01*
X38393Y2314D01*
X38441Y2241D01*
X38514Y2193D01*
X38550Y2186D01*
Y2350D01*
D02*
G37*
G36*
X48645Y2320D02*
X48418D01*
Y2142D01*
X48645D01*
Y2320D01*
D02*
G37*
G36*
X48318D02*
X48091D01*
Y2142D01*
X48318D01*
Y2320D01*
D02*
G37*
G36*
X41550Y2064D02*
Y1900D01*
X41714D01*
X41707Y1936D01*
X41659Y2009D01*
X41586Y2057D01*
X41550Y2064D01*
D02*
G37*
G36*
X41450D02*
X41414Y2057D01*
X41341Y2009D01*
X41293Y1936D01*
X41286Y1900D01*
X41450D01*
Y2064D01*
D02*
G37*
G36*
X40800D02*
Y1900D01*
X40964D01*
X40957Y1936D01*
X40909Y2009D01*
X40836Y2057D01*
X40800Y2064D01*
D02*
G37*
G36*
X40700D02*
X40664Y2057D01*
X40591Y2009D01*
X40543Y1936D01*
X40536Y1900D01*
X40700D01*
Y2064D01*
D02*
G37*
G36*
X40100D02*
Y1900D01*
X40264D01*
X40257Y1936D01*
X40209Y2009D01*
X40136Y2057D01*
X40100Y2064D01*
D02*
G37*
G36*
X40000D02*
X39964Y2057D01*
X39891Y2009D01*
X39843Y1936D01*
X39836Y1900D01*
X40000D01*
Y2064D01*
D02*
G37*
G36*
X39400D02*
Y1900D01*
X39564D01*
X39557Y1936D01*
X39509Y2009D01*
X39436Y2057D01*
X39400Y2064D01*
D02*
G37*
G36*
X39300D02*
X39264Y2057D01*
X39191Y2009D01*
X39143Y1936D01*
X39136Y1900D01*
X39300D01*
Y2064D01*
D02*
G37*
G36*
X38650D02*
Y1900D01*
X38814D01*
X38807Y1936D01*
X38759Y2009D01*
X38686Y2057D01*
X38650Y2064D01*
D02*
G37*
G36*
X38550D02*
X38514Y2057D01*
X38441Y2009D01*
X38393Y1936D01*
X38386Y1900D01*
X38550D01*
Y2064D01*
D02*
G37*
G36*
X45276Y2882D02*
X45145Y2864D01*
X45023Y2814D01*
X44919Y2734D01*
X44839Y2629D01*
X44788Y2508D01*
X44771Y2377D01*
X44788Y2247D01*
X44839Y2125D01*
X44919Y2021D01*
X45023Y1940D01*
X45145Y1890D01*
X45276Y1873D01*
X45406Y1890D01*
X45528Y1940D01*
X45632Y2021D01*
X45712Y2125D01*
X45763Y2247D01*
X45780Y2377D01*
X45763Y2508D01*
X45712Y2629D01*
X45632Y2734D01*
X45528Y2814D01*
X45406Y2864D01*
X45276Y2882D01*
D02*
G37*
G36*
X48645Y2042D02*
X48418D01*
Y1864D01*
X48645D01*
Y2042D01*
D02*
G37*
G36*
X48318D02*
X48091D01*
Y1864D01*
X48318D01*
Y2042D01*
D02*
G37*
G36*
X41714Y1800D02*
X41550D01*
Y1636D01*
X41586Y1643D01*
X41659Y1691D01*
X41707Y1764D01*
X41714Y1800D01*
D02*
G37*
G36*
X41450D02*
X41286D01*
X41293Y1764D01*
X41341Y1691D01*
X41414Y1643D01*
X41450Y1636D01*
Y1800D01*
D02*
G37*
G36*
X40964D02*
X40800D01*
Y1636D01*
X40836Y1643D01*
X40909Y1691D01*
X40957Y1764D01*
X40964Y1800D01*
D02*
G37*
G36*
X40700D02*
X40536D01*
X40543Y1764D01*
X40591Y1691D01*
X40664Y1643D01*
X40700Y1636D01*
Y1800D01*
D02*
G37*
G36*
X40264D02*
X40100D01*
Y1636D01*
X40136Y1643D01*
X40209Y1691D01*
X40257Y1764D01*
X40264Y1800D01*
D02*
G37*
G36*
X40000D02*
X39836D01*
X39843Y1764D01*
X39891Y1691D01*
X39964Y1643D01*
X40000Y1636D01*
Y1800D01*
D02*
G37*
G36*
X39564D02*
X39400D01*
Y1636D01*
X39436Y1643D01*
X39509Y1691D01*
X39557Y1764D01*
X39564Y1800D01*
D02*
G37*
G36*
X39300D02*
X39136D01*
X39143Y1764D01*
X39191Y1691D01*
X39264Y1643D01*
X39300Y1636D01*
Y1800D01*
D02*
G37*
G36*
X38814D02*
X38650D01*
Y1636D01*
X38686Y1643D01*
X38759Y1691D01*
X38807Y1764D01*
X38814Y1800D01*
D02*
G37*
G36*
X38550D02*
X38386D01*
X38393Y1764D01*
X38441Y1691D01*
X38514Y1643D01*
X38550Y1636D01*
Y1800D01*
D02*
G37*
G36*
X24600Y2764D02*
Y2600D01*
X24764D01*
X24757Y2636D01*
X24709Y2709D01*
X24636Y2757D01*
X24600Y2764D01*
D02*
G37*
G36*
X24500D02*
X24464Y2757D01*
X24391Y2709D01*
X24343Y2636D01*
X24336Y2600D01*
X24500D01*
Y2764D01*
D02*
G37*
G36*
X23850D02*
Y2600D01*
X24014D01*
X24007Y2636D01*
X23959Y2709D01*
X23886Y2757D01*
X23850Y2764D01*
D02*
G37*
G36*
X23750D02*
X23714Y2757D01*
X23641Y2709D01*
X23593Y2636D01*
X23586Y2600D01*
X23750D01*
Y2764D01*
D02*
G37*
G36*
X17050D02*
Y2600D01*
X17214D01*
X17207Y2636D01*
X17159Y2709D01*
X17086Y2757D01*
X17050Y2764D01*
D02*
G37*
G36*
X16950D02*
X16914Y2757D01*
X16841Y2709D01*
X16793Y2636D01*
X16786Y2600D01*
X16950D01*
Y2764D01*
D02*
G37*
G36*
X16300D02*
Y2600D01*
X16464D01*
X16457Y2636D01*
X16409Y2709D01*
X16336Y2757D01*
X16300Y2764D01*
D02*
G37*
G36*
X16200D02*
X16164Y2757D01*
X16091Y2709D01*
X16043Y2636D01*
X16036Y2600D01*
X16200D01*
Y2764D01*
D02*
G37*
G36*
X15600D02*
Y2600D01*
X15764D01*
X15757Y2636D01*
X15709Y2709D01*
X15636Y2757D01*
X15600Y2764D01*
D02*
G37*
G36*
X15500D02*
X15464Y2757D01*
X15391Y2709D01*
X15343Y2636D01*
X15336Y2600D01*
X15500D01*
Y2764D01*
D02*
G37*
G36*
X14900D02*
Y2600D01*
X15064D01*
X15057Y2636D01*
X15009Y2709D01*
X14936Y2757D01*
X14900Y2764D01*
D02*
G37*
G36*
X14800D02*
X14764Y2757D01*
X14691Y2709D01*
X14643Y2636D01*
X14636Y2600D01*
X14800D01*
Y2764D01*
D02*
G37*
G36*
X14150D02*
Y2600D01*
X14314D01*
X14307Y2636D01*
X14259Y2709D01*
X14186Y2757D01*
X14150Y2764D01*
D02*
G37*
G36*
X14050D02*
X14014Y2757D01*
X13941Y2709D01*
X13893Y2636D01*
X13886Y2600D01*
X14050D01*
Y2764D01*
D02*
G37*
G36*
X31350Y2714D02*
Y2550D01*
X31514D01*
X31507Y2586D01*
X31459Y2659D01*
X31386Y2707D01*
X31350Y2714D01*
D02*
G37*
G36*
X31250D02*
X31214Y2707D01*
X31141Y2659D01*
X31093Y2586D01*
X31086Y2550D01*
X31250D01*
Y2714D01*
D02*
G37*
G36*
X30600D02*
Y2550D01*
X30764D01*
X30757Y2586D01*
X30709Y2659D01*
X30636Y2707D01*
X30600Y2714D01*
D02*
G37*
G36*
X30500D02*
X30464Y2707D01*
X30391Y2659D01*
X30343Y2586D01*
X30336Y2550D01*
X30500D01*
Y2714D01*
D02*
G37*
G36*
X29900D02*
Y2550D01*
X30064D01*
X30057Y2586D01*
X30009Y2659D01*
X29936Y2707D01*
X29900Y2714D01*
D02*
G37*
G36*
X29800D02*
X29764Y2707D01*
X29691Y2659D01*
X29643Y2586D01*
X29636Y2550D01*
X29800D01*
Y2714D01*
D02*
G37*
G36*
X22549Y2891D02*
X21995D01*
Y2826D01*
X21463D01*
X21400Y2813D01*
X21347Y2778D01*
X21110Y2540D01*
X20738D01*
X20708Y2611D01*
X20634Y2708D01*
X20537Y2782D01*
X20425Y2829D01*
X20304Y2844D01*
X20183Y2829D01*
X20070Y2782D01*
X19973Y2708D01*
X19899Y2611D01*
X19853Y2498D01*
X19837Y2377D01*
X19853Y2256D01*
X19899Y2144D01*
X19973Y2047D01*
X20070Y1973D01*
X20183Y1926D01*
X20304Y1910D01*
X20425Y1926D01*
X20537Y1973D01*
X20634Y2047D01*
X20708Y2144D01*
X20738Y2214D01*
X21177D01*
X21240Y2227D01*
X21293Y2262D01*
X21530Y2500D01*
X21995D01*
Y2435D01*
X22549D01*
Y2891D01*
D02*
G37*
G36*
X7033D02*
X6479D01*
Y2813D01*
X6000D01*
X5938Y2801D01*
X5885Y2765D01*
X5660Y2540D01*
X5221D01*
X5192Y2611D01*
X5118Y2708D01*
X5021Y2782D01*
X4908Y2829D01*
X4787Y2844D01*
X4666Y2829D01*
X4554Y2782D01*
X4457Y2708D01*
X4383Y2611D01*
X4336Y2498D01*
X4320Y2377D01*
X4336Y2256D01*
X4383Y2144D01*
X4457Y2047D01*
X4554Y1973D01*
X4666Y1926D01*
X4787Y1910D01*
X4908Y1926D01*
X5021Y1973D01*
X5118Y2047D01*
X5192Y2144D01*
X5221Y2214D01*
X5727D01*
X5790Y2227D01*
X5843Y2262D01*
X6068Y2487D01*
X6479D01*
Y2435D01*
X7033D01*
Y2891D01*
D02*
G37*
G36*
X24764Y2500D02*
X24600D01*
Y2336D01*
X24636Y2343D01*
X24709Y2391D01*
X24757Y2464D01*
X24764Y2500D01*
D02*
G37*
G36*
X24500D02*
X24336D01*
X24343Y2464D01*
X24391Y2391D01*
X24464Y2343D01*
X24500Y2336D01*
Y2500D01*
D02*
G37*
G36*
X24014D02*
X23850D01*
Y2336D01*
X23886Y2343D01*
X23959Y2391D01*
X24007Y2464D01*
X24014Y2500D01*
D02*
G37*
G36*
X23750D02*
X23586D01*
X23593Y2464D01*
X23641Y2391D01*
X23714Y2343D01*
X23750Y2336D01*
Y2500D01*
D02*
G37*
G36*
X17214D02*
X17050D01*
Y2336D01*
X17086Y2343D01*
X17159Y2391D01*
X17207Y2464D01*
X17214Y2500D01*
D02*
G37*
G36*
X16950D02*
X16786D01*
X16793Y2464D01*
X16841Y2391D01*
X16914Y2343D01*
X16950Y2336D01*
Y2500D01*
D02*
G37*
G36*
X16464D02*
X16300D01*
Y2336D01*
X16336Y2343D01*
X16409Y2391D01*
X16457Y2464D01*
X16464Y2500D01*
D02*
G37*
G36*
X16200D02*
X16036D01*
X16043Y2464D01*
X16091Y2391D01*
X16164Y2343D01*
X16200Y2336D01*
Y2500D01*
D02*
G37*
G36*
X15764D02*
X15600D01*
Y2336D01*
X15636Y2343D01*
X15709Y2391D01*
X15757Y2464D01*
X15764Y2500D01*
D02*
G37*
G36*
X15500D02*
X15336D01*
X15343Y2464D01*
X15391Y2391D01*
X15464Y2343D01*
X15500Y2336D01*
Y2500D01*
D02*
G37*
G36*
X15064D02*
X14900D01*
Y2336D01*
X14936Y2343D01*
X15009Y2391D01*
X15057Y2464D01*
X15064Y2500D01*
D02*
G37*
G36*
X14800D02*
X14636D01*
X14643Y2464D01*
X14691Y2391D01*
X14764Y2343D01*
X14800Y2336D01*
Y2500D01*
D02*
G37*
G36*
X14314D02*
X14150D01*
Y2336D01*
X14186Y2343D01*
X14259Y2391D01*
X14307Y2464D01*
X14314Y2500D01*
D02*
G37*
G36*
X14050D02*
X13886D01*
X13893Y2464D01*
X13941Y2391D01*
X14014Y2343D01*
X14050Y2336D01*
Y2500D01*
D02*
G37*
G36*
X31514Y2450D02*
X31350D01*
Y2286D01*
X31386Y2293D01*
X31459Y2341D01*
X31507Y2414D01*
X31514Y2450D01*
D02*
G37*
G36*
X31250D02*
X31086D01*
X31093Y2414D01*
X31141Y2341D01*
X31214Y2293D01*
X31250Y2286D01*
Y2450D01*
D02*
G37*
G36*
X30764D02*
X30600D01*
Y2286D01*
X30636Y2293D01*
X30709Y2341D01*
X30757Y2414D01*
X30764Y2450D01*
D02*
G37*
G36*
X30500D02*
X30336D01*
X30343Y2414D01*
X30391Y2341D01*
X30464Y2293D01*
X30500Y2286D01*
Y2450D01*
D02*
G37*
G36*
X30064D02*
X29900D01*
Y2286D01*
X29936Y2293D01*
X30009Y2341D01*
X30057Y2414D01*
X30064Y2450D01*
D02*
G37*
G36*
X29800D02*
X29636D01*
X29643Y2414D01*
X29691Y2341D01*
X29764Y2293D01*
X29800Y2286D01*
Y2450D01*
D02*
G37*
G36*
X33129Y2320D02*
X32902D01*
Y2142D01*
X33129D01*
Y2320D01*
D02*
G37*
G36*
X32802D02*
X32575D01*
Y2142D01*
X32802D01*
Y2320D01*
D02*
G37*
G36*
X22549D02*
X22322D01*
Y2142D01*
X22549D01*
Y2320D01*
D02*
G37*
G36*
X22222D02*
X21995D01*
Y2142D01*
X22222D01*
Y2320D01*
D02*
G37*
G36*
X7033D02*
X6806D01*
Y2142D01*
X7033D01*
Y2320D01*
D02*
G37*
G36*
X6706D02*
X6479D01*
Y2142D01*
X6706D01*
Y2320D01*
D02*
G37*
G36*
X24600Y2214D02*
Y2050D01*
X24764D01*
X24757Y2086D01*
X24709Y2159D01*
X24636Y2207D01*
X24600Y2214D01*
D02*
G37*
G36*
X24500D02*
X24464Y2207D01*
X24391Y2159D01*
X24343Y2086D01*
X24336Y2050D01*
X24500D01*
Y2214D01*
D02*
G37*
G36*
X23850D02*
Y2050D01*
X24014D01*
X24007Y2086D01*
X23959Y2159D01*
X23886Y2207D01*
X23850Y2214D01*
D02*
G37*
G36*
X23750D02*
X23714Y2207D01*
X23641Y2159D01*
X23593Y2086D01*
X23586Y2050D01*
X23750D01*
Y2214D01*
D02*
G37*
G36*
X17050D02*
Y2050D01*
X17214D01*
X17207Y2086D01*
X17159Y2159D01*
X17086Y2207D01*
X17050Y2214D01*
D02*
G37*
G36*
X16950D02*
X16914Y2207D01*
X16841Y2159D01*
X16793Y2086D01*
X16786Y2050D01*
X16950D01*
Y2214D01*
D02*
G37*
G36*
X16300D02*
Y2050D01*
X16464D01*
X16457Y2086D01*
X16409Y2159D01*
X16336Y2207D01*
X16300Y2214D01*
D02*
G37*
G36*
X16200D02*
X16164Y2207D01*
X16091Y2159D01*
X16043Y2086D01*
X16036Y2050D01*
X16200D01*
Y2214D01*
D02*
G37*
G36*
X15600D02*
Y2050D01*
X15764D01*
X15757Y2086D01*
X15709Y2159D01*
X15636Y2207D01*
X15600Y2214D01*
D02*
G37*
G36*
X15500D02*
X15464Y2207D01*
X15391Y2159D01*
X15343Y2086D01*
X15336Y2050D01*
X15500D01*
Y2214D01*
D02*
G37*
G36*
X14900D02*
Y2050D01*
X15064D01*
X15057Y2086D01*
X15009Y2159D01*
X14936Y2207D01*
X14900Y2214D01*
D02*
G37*
G36*
X14800D02*
X14764Y2207D01*
X14691Y2159D01*
X14643Y2086D01*
X14636Y2050D01*
X14800D01*
Y2214D01*
D02*
G37*
G36*
X14150D02*
Y2050D01*
X14314D01*
X14307Y2086D01*
X14259Y2159D01*
X14186Y2207D01*
X14150Y2214D01*
D02*
G37*
G36*
X14050D02*
X14014Y2207D01*
X13941Y2159D01*
X13893Y2086D01*
X13886Y2050D01*
X14050D01*
Y2214D01*
D02*
G37*
G36*
X31350Y2164D02*
Y2000D01*
X31514D01*
X31507Y2036D01*
X31459Y2109D01*
X31386Y2157D01*
X31350Y2164D01*
D02*
G37*
G36*
X31250D02*
X31214Y2157D01*
X31141Y2109D01*
X31093Y2036D01*
X31086Y2000D01*
X31250D01*
Y2164D01*
D02*
G37*
G36*
X30600D02*
Y2000D01*
X30764D01*
X30757Y2036D01*
X30709Y2109D01*
X30636Y2157D01*
X30600Y2164D01*
D02*
G37*
G36*
X30500D02*
X30464Y2157D01*
X30391Y2109D01*
X30343Y2036D01*
X30336Y2000D01*
X30500D01*
Y2164D01*
D02*
G37*
G36*
X29900D02*
Y2000D01*
X30064D01*
X30057Y2036D01*
X30009Y2109D01*
X29936Y2157D01*
X29900Y2164D01*
D02*
G37*
G36*
X29800D02*
X29764Y2157D01*
X29691Y2109D01*
X29643Y2036D01*
X29636Y2000D01*
X29800D01*
Y2164D01*
D02*
G37*
G36*
X27559Y2882D02*
X27429Y2864D01*
X27307Y2814D01*
X27202Y2734D01*
X27122Y2629D01*
X27072Y2508D01*
X27055Y2377D01*
X27072Y2247D01*
X27122Y2125D01*
X27202Y2021D01*
X27307Y1940D01*
X27429Y1890D01*
X27559Y1873D01*
X27690Y1890D01*
X27811Y1940D01*
X27916Y2021D01*
X27996Y2125D01*
X28046Y2247D01*
X28063Y2377D01*
X28046Y2508D01*
X27996Y2629D01*
X27916Y2734D01*
X27811Y2814D01*
X27690Y2864D01*
X27559Y2882D01*
D02*
G37*
G36*
X9843D02*
X9712Y2864D01*
X9590Y2814D01*
X9486Y2734D01*
X9406Y2629D01*
X9355Y2508D01*
X9338Y2377D01*
X9355Y2247D01*
X9406Y2125D01*
X9486Y2021D01*
X9590Y1940D01*
X9712Y1890D01*
X9843Y1873D01*
X9973Y1890D01*
X10095Y1940D01*
X10199Y2021D01*
X10279Y2125D01*
X10330Y2247D01*
X10347Y2377D01*
X10330Y2508D01*
X10279Y2629D01*
X10199Y2734D01*
X10095Y2814D01*
X9973Y2864D01*
X9843Y2882D01*
D02*
G37*
G36*
X33129Y2042D02*
X32902D01*
Y1864D01*
X33129D01*
Y2042D01*
D02*
G37*
G36*
X32802D02*
X32575D01*
Y1864D01*
X32802D01*
Y2042D01*
D02*
G37*
G36*
X22549D02*
X22322D01*
Y1864D01*
X22549D01*
Y2042D01*
D02*
G37*
G36*
X22222D02*
X21995D01*
Y1864D01*
X22222D01*
Y2042D01*
D02*
G37*
G36*
X7033D02*
X6806D01*
Y1864D01*
X7033D01*
Y2042D01*
D02*
G37*
G36*
X6706D02*
X6479D01*
Y1864D01*
X6706D01*
Y2042D01*
D02*
G37*
G36*
X24764Y1950D02*
X24600D01*
Y1786D01*
X24636Y1793D01*
X24709Y1841D01*
X24757Y1914D01*
X24764Y1950D01*
D02*
G37*
G36*
X24500D02*
X24336D01*
X24343Y1914D01*
X24391Y1841D01*
X24464Y1793D01*
X24500Y1786D01*
Y1950D01*
D02*
G37*
G36*
X24014D02*
X23850D01*
Y1786D01*
X23886Y1793D01*
X23959Y1841D01*
X24007Y1914D01*
X24014Y1950D01*
D02*
G37*
G36*
X23750D02*
X23586D01*
X23593Y1914D01*
X23641Y1841D01*
X23714Y1793D01*
X23750Y1786D01*
Y1950D01*
D02*
G37*
G36*
X17214D02*
X17050D01*
Y1786D01*
X17086Y1793D01*
X17159Y1841D01*
X17207Y1914D01*
X17214Y1950D01*
D02*
G37*
G36*
X16950D02*
X16786D01*
X16793Y1914D01*
X16841Y1841D01*
X16914Y1793D01*
X16950Y1786D01*
Y1950D01*
D02*
G37*
G36*
X16464D02*
X16300D01*
Y1786D01*
X16336Y1793D01*
X16409Y1841D01*
X16457Y1914D01*
X16464Y1950D01*
D02*
G37*
G36*
X16200D02*
X16036D01*
X16043Y1914D01*
X16091Y1841D01*
X16164Y1793D01*
X16200Y1786D01*
Y1950D01*
D02*
G37*
G36*
X15764D02*
X15600D01*
Y1786D01*
X15636Y1793D01*
X15709Y1841D01*
X15757Y1914D01*
X15764Y1950D01*
D02*
G37*
G36*
X15500D02*
X15336D01*
X15343Y1914D01*
X15391Y1841D01*
X15464Y1793D01*
X15500Y1786D01*
Y1950D01*
D02*
G37*
G36*
X15064D02*
X14900D01*
Y1786D01*
X14936Y1793D01*
X15009Y1841D01*
X15057Y1914D01*
X15064Y1950D01*
D02*
G37*
G36*
X14800D02*
X14636D01*
X14643Y1914D01*
X14691Y1841D01*
X14764Y1793D01*
X14800Y1786D01*
Y1950D01*
D02*
G37*
G36*
X14314D02*
X14150D01*
Y1786D01*
X14186Y1793D01*
X14259Y1841D01*
X14307Y1914D01*
X14314Y1950D01*
D02*
G37*
G36*
X14050D02*
X13886D01*
X13893Y1914D01*
X13941Y1841D01*
X14014Y1793D01*
X14050Y1786D01*
Y1950D01*
D02*
G37*
G36*
X31514Y1900D02*
X31350D01*
Y1736D01*
X31386Y1743D01*
X31459Y1791D01*
X31507Y1864D01*
X31514Y1900D01*
D02*
G37*
G36*
X31250D02*
X31086D01*
X31093Y1864D01*
X31141Y1791D01*
X31214Y1743D01*
X31250Y1736D01*
Y1900D01*
D02*
G37*
G36*
X30764D02*
X30600D01*
Y1736D01*
X30636Y1743D01*
X30709Y1791D01*
X30757Y1864D01*
X30764Y1900D01*
D02*
G37*
G36*
X30500D02*
X30336D01*
X30343Y1864D01*
X30391Y1791D01*
X30464Y1743D01*
X30500Y1736D01*
Y1900D01*
D02*
G37*
G36*
X30064D02*
X29900D01*
Y1736D01*
X29936Y1743D01*
X30009Y1791D01*
X30057Y1864D01*
X30064Y1900D01*
D02*
G37*
G36*
X29800D02*
X29636D01*
X29643Y1864D01*
X29691Y1791D01*
X29764Y1743D01*
X29800Y1736D01*
Y1900D01*
D02*
G37*
G36*
X54880Y4229D02*
X54397D01*
Y3864D01*
X54880D01*
Y4229D01*
D02*
G37*
G36*
X54297D02*
X53814D01*
Y3864D01*
X54297D01*
Y4229D01*
D02*
G37*
G36*
X1286D02*
X803D01*
Y3864D01*
X1286D01*
Y4229D01*
D02*
G37*
G36*
X703D02*
X220D01*
Y3864D01*
X703D01*
Y4229D01*
D02*
G37*
G36*
X54650Y2964D02*
Y2800D01*
X54814D01*
X54807Y2836D01*
X54759Y2909D01*
X54686Y2957D01*
X54650Y2964D01*
D02*
G37*
G36*
X54550D02*
X54514Y2957D01*
X54441Y2909D01*
X54393Y2836D01*
X54386Y2800D01*
X54550D01*
Y2964D01*
D02*
G37*
G36*
X54000D02*
Y2800D01*
X54164D01*
X54157Y2836D01*
X54109Y2909D01*
X54036Y2957D01*
X54000Y2964D01*
D02*
G37*
G36*
X53900D02*
X53864Y2957D01*
X53791Y2909D01*
X53743Y2836D01*
X53736Y2800D01*
X53900D01*
Y2964D01*
D02*
G37*
G36*
X1150D02*
Y2800D01*
X1314D01*
X1307Y2836D01*
X1259Y2909D01*
X1186Y2957D01*
X1150Y2964D01*
D02*
G37*
G36*
X1050D02*
X1014Y2957D01*
X941Y2909D01*
X893Y2836D01*
X886Y2800D01*
X1050D01*
Y2964D01*
D02*
G37*
G36*
X500D02*
Y2800D01*
X664D01*
X657Y2836D01*
X609Y2909D01*
X536Y2957D01*
X500Y2964D01*
D02*
G37*
G36*
X400D02*
X364Y2957D01*
X291Y2909D01*
X243Y2836D01*
X236Y2800D01*
X400D01*
Y2964D01*
D02*
G37*
G36*
X1314Y2700D02*
X1150D01*
Y2536D01*
X1186Y2543D01*
X1259Y2591D01*
X1307Y2664D01*
X1314Y2700D01*
D02*
G37*
G36*
X1050D02*
X886D01*
X893Y2664D01*
X941Y2591D01*
X1014Y2543D01*
X1050Y2536D01*
Y2700D01*
D02*
G37*
G36*
X664D02*
X500D01*
Y2536D01*
X536Y2543D01*
X609Y2591D01*
X657Y2664D01*
X664Y2700D01*
D02*
G37*
G36*
X400D02*
X236D01*
X243Y2664D01*
X291Y2591D01*
X364Y2543D01*
X400Y2536D01*
Y2700D01*
D02*
G37*
G36*
X54814D02*
X54650D01*
Y2536D01*
X54686Y2543D01*
X54759Y2591D01*
X54807Y2664D01*
X54814Y2700D01*
D02*
G37*
G36*
X54550D02*
X54386D01*
X54393Y2664D01*
X54441Y2591D01*
X54514Y2543D01*
X54550Y2536D01*
Y2700D01*
D02*
G37*
G36*
X54164D02*
X54000D01*
Y2536D01*
X54036Y2543D01*
X54109Y2591D01*
X54157Y2664D01*
X54164Y2700D01*
D02*
G37*
G36*
X53900D02*
X53736D01*
X53743Y2664D01*
X53791Y2591D01*
X53864Y2543D01*
X53900Y2536D01*
Y2700D01*
D02*
G37*
G36*
X54650Y2064D02*
Y1900D01*
X54814D01*
X54807Y1936D01*
X54759Y2009D01*
X54686Y2057D01*
X54650Y2064D01*
D02*
G37*
G36*
X54550D02*
X54514Y2057D01*
X54441Y2009D01*
X54393Y1936D01*
X54386Y1900D01*
X54550D01*
Y2064D01*
D02*
G37*
G36*
X54000D02*
Y1900D01*
X54164D01*
X54157Y1936D01*
X54109Y2009D01*
X54036Y2057D01*
X54000Y2064D01*
D02*
G37*
G36*
X53900D02*
X53864Y2057D01*
X53791Y2009D01*
X53743Y1936D01*
X53736Y1900D01*
X53900D01*
Y2064D01*
D02*
G37*
G36*
X1150D02*
Y1900D01*
X1314D01*
X1307Y1936D01*
X1259Y2009D01*
X1186Y2057D01*
X1150Y2064D01*
D02*
G37*
G36*
X1050D02*
X1014Y2057D01*
X941Y2009D01*
X893Y1936D01*
X886Y1900D01*
X1050D01*
Y2064D01*
D02*
G37*
G36*
X500D02*
Y1900D01*
X664D01*
X657Y1936D01*
X609Y2009D01*
X536Y2057D01*
X500Y2064D01*
D02*
G37*
G36*
X400D02*
X364Y2057D01*
X291Y2009D01*
X243Y1936D01*
X236Y1900D01*
X400D01*
Y2064D01*
D02*
G37*
G36*
X54814Y1800D02*
X54650D01*
Y1636D01*
X54686Y1643D01*
X54759Y1691D01*
X54807Y1764D01*
X54814Y1800D01*
D02*
G37*
G36*
X54550D02*
X54386D01*
X54393Y1764D01*
X54441Y1691D01*
X54514Y1643D01*
X54550Y1636D01*
Y1800D01*
D02*
G37*
G36*
X54164D02*
X54000D01*
Y1636D01*
X54036Y1643D01*
X54109Y1691D01*
X54157Y1764D01*
X54164Y1800D01*
D02*
G37*
G36*
X53900D02*
X53736D01*
X53743Y1764D01*
X53791Y1691D01*
X53864Y1643D01*
X53900Y1636D01*
Y1800D01*
D02*
G37*
G36*
X1314D02*
X1150D01*
Y1636D01*
X1186Y1643D01*
X1259Y1691D01*
X1307Y1764D01*
X1314Y1800D01*
D02*
G37*
G36*
X1050D02*
X886D01*
X893Y1764D01*
X941Y1691D01*
X1014Y1643D01*
X1050Y1636D01*
Y1800D01*
D02*
G37*
G36*
X664D02*
X500D01*
Y1636D01*
X536Y1643D01*
X609Y1691D01*
X657Y1764D01*
X664Y1800D01*
D02*
G37*
G36*
X400D02*
X236D01*
X243Y1764D01*
X291Y1691D01*
X364Y1643D01*
X400Y1636D01*
Y1800D01*
D02*
G37*
G36*
X53482Y1414D02*
X53157D01*
Y1305D01*
X53482D01*
Y1414D01*
D02*
G37*
G36*
X53057D02*
X52731D01*
Y1305D01*
X53057D01*
Y1414D01*
D02*
G37*
G36*
X1943Y1414D02*
X1618D01*
Y1305D01*
X1943D01*
Y1414D01*
D02*
G37*
G36*
X54880Y836D02*
X54397D01*
Y471D01*
X54880D01*
Y836D01*
D02*
G37*
G36*
X1286D02*
X803D01*
Y471D01*
X1286D01*
Y836D01*
D02*
G37*
G36*
X703D02*
X220D01*
Y471D01*
X703D01*
Y836D01*
D02*
G37*
G36*
X54297D02*
X53814D01*
Y471D01*
X54297D01*
Y836D01*
D02*
G37*
%LPD*%
D15*
X55118Y0D02*
Y4724D01*
X0D02*
X55118D01*
X0Y0D02*
Y4724D01*
Y0D02*
X55118D01*
D16*
X753Y421D02*
D03*
Y4279D02*
D03*
X54347D02*
D03*
Y421D02*
D03*
D17*
X1993Y1464D02*
D03*
Y1661D02*
D03*
Y1858D02*
D03*
Y2055D02*
D03*
Y2252D02*
D03*
Y2448D02*
D03*
Y2645D02*
D03*
Y2842D02*
D03*
Y3039D02*
D03*
Y3236D02*
D03*
X53107D02*
D03*
Y3039D02*
D03*
Y2842D02*
D03*
Y2645D02*
D03*
Y2448D02*
D03*
Y2252D02*
D03*
Y2055D02*
D03*
Y1858D02*
D03*
Y1661D02*
D03*
Y1464D02*
D03*
D18*
X48368Y2663D02*
D03*
Y2092D02*
D03*
X32852Y2663D02*
D03*
Y2092D02*
D03*
X22272Y2663D02*
D03*
Y2092D02*
D03*
X6756Y2663D02*
D03*
Y2092D02*
D03*
D25*
X51100Y3050D02*
X51337Y2813D01*
Y2377D02*
Y2813D01*
X35550Y3050D02*
X35820Y2780D01*
Y2377D02*
Y2780D01*
X32950Y3050D02*
X35550D01*
X32852Y2952D02*
X32950Y3050D01*
X32852Y2663D02*
Y2952D01*
X48368Y2868D02*
X48550Y3050D01*
X48368Y2663D02*
Y2868D01*
X48550Y3050D02*
X51100D01*
X51535Y4150D02*
X52646Y3039D01*
X3500Y4150D02*
X51535D01*
X2389Y3039D02*
X3500Y4150D01*
X51450Y3400D02*
X52402Y2448D01*
X3550Y3400D02*
X51450D01*
X2598Y2448D02*
X3550Y3400D01*
X51478Y3650D02*
X52483Y2645D01*
X3550Y3650D02*
X51478D01*
X2545Y2645D02*
X3550Y3650D01*
X1993Y2645D02*
X2545D01*
X1993Y2448D02*
X2598D01*
X3500Y3900D02*
X51507D01*
X2442Y2842D02*
X3500Y3900D01*
X1993Y2842D02*
X2442D01*
X51507Y3900D02*
X52565Y2842D01*
X1993Y3039D02*
X2389D01*
X52402Y2448D02*
X53107D01*
X52646Y3039D02*
X53107D01*
X52565Y2842D02*
X53107D01*
X52483Y2645D02*
X53107D01*
X21463Y2663D02*
X22272D01*
X21177Y2377D02*
X21463Y2663D01*
X20304Y2377D02*
X21177D01*
X6743Y2650D02*
X6756Y2663D01*
X6000Y2650D02*
X6743D01*
X4787Y2377D02*
X5727D01*
X6000Y2650D01*
X50300Y2341D02*
X50337Y2377D01*
X50300Y1600D02*
Y2341D01*
X3500Y750D02*
X49450D01*
X50300Y1600D01*
X34800Y2357D02*
X34820Y2377D01*
X34800Y1600D02*
Y2357D01*
X3600Y1050D02*
X34250D01*
X34800Y1600D01*
X3700Y1350D02*
X18800D01*
X19300Y2373D02*
X19304Y2377D01*
X19300Y1850D02*
Y2373D01*
X18800Y1350D02*
X19300Y1850D01*
X1993Y2252D02*
X3662D01*
X2792Y1858D02*
X3600Y1050D01*
X1993Y1858D02*
X2792D01*
X1993Y2055D02*
X2995D01*
X3700Y1350D01*
X1993Y1661D02*
X2589D01*
X3500Y750D01*
D26*
X52380Y1320D02*
X53670D01*
X53700Y1350D01*
X1260Y1320D02*
X2354D01*
X2369Y1305D01*
D27*
X51850Y4450D02*
X52950Y3350D01*
X53050D01*
X3050Y4450D02*
X51850D01*
X2200Y3600D02*
X3050Y4450D01*
D28*
X51337Y2377D02*
D03*
X35820D02*
D03*
X20304D02*
D03*
X4787D02*
D03*
D29*
X50337D02*
D03*
X34820D02*
D03*
X19304D02*
D03*
X3787D02*
D03*
D30*
X45276D02*
D03*
X27559D02*
D03*
X9843D02*
D03*
D31*
X53950Y2750D02*
D03*
X54600D02*
D03*
X53950Y1850D02*
D03*
X54600D02*
D03*
X1100D02*
D03*
X450D02*
D03*
X1100Y2750D02*
D03*
X450D02*
D03*
X41500Y1850D02*
D03*
X40750D02*
D03*
X40050D02*
D03*
X39350D02*
D03*
X38600D02*
D03*
X41500Y2400D02*
D03*
X40750D02*
D03*
X40050D02*
D03*
X39350D02*
D03*
X38600D02*
D03*
X31300Y1950D02*
D03*
X30550D02*
D03*
X29850D02*
D03*
X24550Y2000D02*
D03*
X23800D02*
D03*
X31300Y2500D02*
D03*
X30550D02*
D03*
X29850D02*
D03*
X24550Y2550D02*
D03*
X23800D02*
D03*
X17000Y2000D02*
D03*
X16250D02*
D03*
X15550D02*
D03*
X14850D02*
D03*
X14100D02*
D03*
X17000Y2550D02*
D03*
X16250D02*
D03*
X15550D02*
D03*
X14850D02*
D03*
X14100D02*
D03*
M02*
