G04*
G04 #@! TF.GenerationSoftware,Altium Limited,Altium Designer,20.0.1 (14)*
G04*
G04 Layer_Physical_Order=1*
G04 Layer_Color=255*
%FSLAX24Y24*%
%MOIN*%
G70*
G01*
G75*
%ADD15C,0.0060*%
%ADD16R,0.0500X0.0472*%
%ADD17R,0.0866X0.0630*%
%ADD18R,0.0551X0.0118*%
%ADD19R,0.0244X0.0256*%
%ADD20R,0.0197X0.0187*%
%ADD21R,0.0315X0.0118*%
%ADD22R,0.0335X0.0571*%
%ADD23R,0.0252X0.0500*%
%ADD24R,0.0335X0.0138*%
%ADD25R,0.0187X0.0197*%
%ADD26R,0.0394X0.0315*%
%ADD27R,0.0276X0.0394*%
%ADD28R,0.0650X0.0512*%
%ADD29R,0.0394X0.0748*%
%ADD30R,0.0709X0.0748*%
%ADD31R,0.0561X0.0827*%
%ADD32R,0.0177X0.0543*%
%ADD33R,0.0201X0.0126*%
%ADD34R,0.0453X0.0256*%
%ADD35R,0.0374X0.0374*%
%ADD36R,0.0256X0.0453*%
%ADD37R,0.0276X0.0118*%
%ADD38R,0.0256X0.0650*%
%ADD66C,0.0200*%
%ADD67C,0.0150*%
%ADD68C,0.0120*%
%ADD69C,0.0100*%
%ADD70C,0.0236*%
%ADD71R,0.0669X0.0669*%
%ADD72C,0.0669*%
%ADD73C,0.0240*%
%ADD74C,0.0591*%
G36*
X11147Y7229D02*
X11691D01*
X11709Y7200D01*
X11691Y7171D01*
X11147D01*
Y6599D01*
X11747Y6599D01*
X11750Y6550D01*
Y50D01*
X50D01*
Y6647D01*
X57Y6694D01*
X100Y6694D01*
X382D01*
Y7000D01*
Y7306D01*
X57Y7306D01*
X50Y7353D01*
Y7750D01*
X100Y7800D01*
X3627D01*
Y7395D01*
X4120D01*
Y7800D01*
X6580D01*
Y7395D01*
X7073D01*
Y7800D01*
X7203D01*
Y7565D01*
X7503D01*
X7803D01*
Y7800D01*
X8797D01*
Y7229D01*
X9397D01*
Y7800D01*
X9553D01*
Y7565D01*
X9853D01*
X10153D01*
Y7800D01*
X11147D01*
Y7229D01*
D02*
G37*
%LPC*%
G36*
X10153Y7465D02*
X9903D01*
Y7229D01*
X10153D01*
Y7465D01*
D02*
G37*
G36*
X9803D02*
X9553D01*
Y7229D01*
X9803D01*
Y7465D01*
D02*
G37*
G36*
X7803D02*
X7553D01*
Y7229D01*
X7803D01*
Y7465D01*
D02*
G37*
G36*
X7453D02*
X7203D01*
Y7229D01*
X7453D01*
Y7465D01*
D02*
G37*
G36*
X3464Y7306D02*
X3139D01*
Y7050D01*
X3464D01*
Y7306D01*
D02*
G37*
G36*
X481D02*
Y7050D01*
X806D01*
Y7306D01*
X481D01*
D02*
G37*
G36*
X2617Y7424D02*
X2263D01*
Y7050D01*
X2617D01*
Y7424D01*
D02*
G37*
G36*
X1397D02*
X1200D01*
Y7050D01*
X1397D01*
Y7424D01*
D02*
G37*
G36*
X1100D02*
X903D01*
Y7050D01*
X1100D01*
Y7424D01*
D02*
G37*
G36*
X2163D02*
X1809D01*
Y7050D01*
X2163D01*
Y7424D01*
D02*
G37*
G36*
X3039Y7306D02*
X2714D01*
Y7050D01*
X3039D01*
Y7306D01*
D02*
G37*
G36*
X5941Y7439D02*
X5866Y7429D01*
X5796Y7400D01*
X5736Y7354D01*
X5691Y7294D01*
X5662Y7225D01*
X5652Y7150D01*
X5662Y7075D01*
X5691Y7006D01*
X5736Y6946D01*
X5796Y6900D01*
X5866Y6871D01*
X5941Y6861D01*
X6015Y6871D01*
X6085Y6900D01*
X6145Y6946D01*
X6191Y7006D01*
X6219Y7075D01*
X6229Y7150D01*
X6219Y7225D01*
X6191Y7294D01*
X6145Y7354D01*
X6085Y7400D01*
X6015Y7429D01*
X5941Y7439D01*
D02*
G37*
G36*
X3464Y6950D02*
X3139D01*
Y6694D01*
X3464D01*
Y6950D01*
D02*
G37*
G36*
X3039D02*
X2714D01*
Y6694D01*
X3039D01*
Y6950D01*
D02*
G37*
G36*
X806D02*
X481D01*
Y6694D01*
X806D01*
Y6950D01*
D02*
G37*
G36*
X6400Y6654D02*
X6400Y6654D01*
X6037D01*
X6033Y6653D01*
X6029Y6654D01*
X6015Y6645D01*
X5999Y6638D01*
X5997Y6634D01*
X5994Y6632D01*
X5957Y6582D01*
X5952Y6566D01*
X5946Y6550D01*
Y6050D01*
X5962Y6012D01*
X5962Y6012D01*
X6562Y5412D01*
X6600Y5396D01*
X6600Y5396D01*
X7333D01*
X7345Y5346D01*
X7321Y5329D01*
X7321Y5329D01*
X7245Y5253D01*
X7220Y5217D01*
X7212Y5174D01*
X7212Y5174D01*
Y4875D01*
X7107D01*
Y4637D01*
X7107Y4637D01*
X7107Y4619D01*
X7104Y4570D01*
X7096Y4550D01*
X7096Y4550D01*
Y4450D01*
X7096Y4450D01*
X7104Y4430D01*
X7107Y4381D01*
Y4363D01*
X7107Y4363D01*
Y4350D01*
Y4294D01*
X7541D01*
Y4346D01*
X7628D01*
X7712Y4262D01*
X7728Y4255D01*
Y4127D01*
X7900D01*
X8072D01*
Y4296D01*
X8088Y4311D01*
X8130D01*
X8188Y4254D01*
Y3846D01*
X7704Y3362D01*
X7390D01*
Y3600D01*
X6510D01*
Y3412D01*
X6246D01*
X6112Y3546D01*
Y4254D01*
X6246Y4388D01*
X6319D01*
X6359Y4363D01*
Y4350D01*
X6359D01*
Y4294D01*
X6793D01*
Y4350D01*
X6793D01*
Y4363D01*
X6793Y4413D01*
Y4587D01*
X6793Y4619D01*
X6793Y4669D01*
Y4875D01*
X6359D01*
X6359Y4875D01*
Y4875D01*
X6359Y4875D01*
X6316Y4893D01*
X6258Y4950D01*
X6222Y4974D01*
X6179Y4983D01*
X6172Y5032D01*
Y5173D01*
X6000D01*
X5828D01*
Y5030D01*
X5667D01*
X5609Y5018D01*
X5559Y4985D01*
X5142Y4568D01*
X5109Y4518D01*
X5097Y4460D01*
Y2550D01*
Y2050D01*
Y1300D01*
X5109Y1241D01*
X5142Y1192D01*
X5614Y720D01*
X5664Y687D01*
X5722Y675D01*
X5878D01*
Y527D01*
X6050D01*
X6222D01*
Y646D01*
X6600D01*
X6638Y662D01*
X6638Y662D01*
X6738Y762D01*
X6754Y800D01*
X6762Y828D01*
X6792Y865D01*
X7050D01*
X7096Y850D01*
X7112Y812D01*
X7262Y662D01*
X7300Y646D01*
X7300Y646D01*
X7678D01*
Y527D01*
X7850D01*
X8022D01*
Y696D01*
X8038Y712D01*
X8054Y749D01*
X8126D01*
X8175Y758D01*
X8216Y786D01*
X8890Y1460D01*
X8918Y1501D01*
X8927Y1550D01*
Y4147D01*
X9192Y4412D01*
X9481D01*
Y4257D01*
X9355D01*
X9355Y4257D01*
X9312Y4249D01*
X9275Y4225D01*
X9275Y4225D01*
X9259Y4208D01*
X9247Y4210D01*
X9180Y4197D01*
X9124Y4160D01*
X9086Y4103D01*
X9073Y4037D01*
X9086Y3971D01*
X9123Y3916D01*
X9130Y3903D01*
Y3860D01*
X9129Y3860D01*
X9092Y3803D01*
X9078Y3737D01*
X9092Y3671D01*
X9129Y3614D01*
X9185Y3577D01*
X9252Y3564D01*
X9318Y3577D01*
X9374Y3614D01*
X9412Y3671D01*
X9413Y3677D01*
X9431Y3688D01*
X9481Y3659D01*
Y3249D01*
Y3014D01*
X9807D01*
X10132D01*
Y3052D01*
Y3446D01*
Y3839D01*
Y4189D01*
X10140Y4195D01*
X10182Y4211D01*
X10226Y4182D01*
X10292Y4169D01*
X10358Y4182D01*
X10415Y4220D01*
X10452Y4276D01*
X10465Y4342D01*
X10452Y4408D01*
X10415Y4465D01*
X10358Y4502D01*
X10292Y4515D01*
X10226Y4502D01*
X10220Y4499D01*
X10175Y4529D01*
X10177Y4539D01*
X10168Y4588D01*
X10152Y4611D01*
X10144Y4644D01*
X10152Y4678D01*
X10168Y4701D01*
X10177Y4750D01*
X10168Y4799D01*
X10140Y4840D01*
X10099Y4868D01*
X10050Y4877D01*
X9000D01*
X8951Y4868D01*
X8910Y4840D01*
X8460Y4390D01*
X8446Y4369D01*
X8389Y4366D01*
X8388Y4366D01*
X8379Y4379D01*
X8379Y4379D01*
X8256Y4503D01*
X8220Y4527D01*
X8177Y4535D01*
X8154Y4576D01*
Y5500D01*
X8138Y5538D01*
X8138Y5538D01*
X7838Y5838D01*
X7800Y5854D01*
X7800Y5854D01*
X6772Y5854D01*
X6504Y6122D01*
Y6550D01*
X6504Y6550D01*
X6488Y6588D01*
X6488Y6588D01*
X6438Y6638D01*
Y6638D01*
X6400Y6654D01*
D02*
G37*
G36*
X10153Y7171D02*
X9553D01*
Y6599D01*
X10153D01*
Y7171D01*
D02*
G37*
G36*
X9397D02*
X8797D01*
Y6599D01*
X9397D01*
Y7171D01*
D02*
G37*
G36*
X7803D02*
X7203D01*
Y6599D01*
X7803D01*
Y7171D01*
D02*
G37*
G36*
X2163Y6950D02*
X1809D01*
Y6576D01*
X2163D01*
Y6950D01*
D02*
G37*
G36*
X7073Y6905D02*
X6580D01*
Y6490D01*
X7073D01*
Y6905D01*
D02*
G37*
G36*
X4120D02*
X3627D01*
Y6490D01*
X4120D01*
Y6905D01*
D02*
G37*
G36*
X2617Y6950D02*
X2263D01*
Y6576D01*
X2366D01*
X2409Y6558D01*
X2409Y6526D01*
Y6333D01*
X2359Y6300D01*
X2350Y6304D01*
X2350Y6304D01*
X2200D01*
X2200Y6304D01*
X2162Y6288D01*
X2148Y6275D01*
X1298D01*
Y5953D01*
Y5631D01*
X2096D01*
Y5350D01*
X2112Y5312D01*
X2112Y5312D01*
X2512Y4912D01*
X2550Y4896D01*
X2550Y4896D01*
X3778D01*
X3896Y4778D01*
Y4572D01*
X3778Y4454D01*
X3700D01*
X3662Y4438D01*
X3646Y4400D01*
Y4072D01*
X3597Y4024D01*
X3551Y4043D01*
Y4306D01*
X3502D01*
Y4591D01*
X3494Y4630D01*
X3472Y4664D01*
X3414Y4722D01*
X3380Y4744D01*
X3341Y4752D01*
X3295D01*
Y4798D01*
X3008D01*
Y4502D01*
X3295D01*
X3298Y4453D01*
Y4306D01*
X3176D01*
Y4306D01*
X3128Y4312D01*
Y4375D01*
X2772D01*
Y4312D01*
X2724Y4306D01*
X2722Y4306D01*
X2587D01*
Y4197D01*
X2537D01*
Y4147D01*
X2349D01*
Y4102D01*
X2286D01*
X2273Y4123D01*
X2216Y4160D01*
X2150Y4173D01*
X2084Y4160D01*
X2027Y4123D01*
X1990Y4066D01*
X1977Y4000D01*
X1980Y3983D01*
X1948Y3944D01*
X290D01*
X252Y3928D01*
X252Y3928D01*
X162Y3838D01*
X146Y3800D01*
X146Y3800D01*
Y3150D01*
X162Y3112D01*
X162Y3112D01*
X262Y3012D01*
X300Y2996D01*
X300Y2996D01*
X950D01*
X988Y3012D01*
X1272Y3296D01*
X1772D01*
Y3289D01*
X2128D01*
X2128Y3289D01*
Y3289D01*
X2174Y3278D01*
X2196Y3261D01*
Y2950D01*
X2196Y2950D01*
X2212Y2912D01*
X2212Y2912D01*
X2412Y2712D01*
X2450Y2696D01*
X2450Y2696D01*
X2850D01*
X2888Y2712D01*
X2888Y2712D01*
X2890Y2713D01*
X2892D01*
Y2715D01*
X2958Y2782D01*
X3008Y2761D01*
Y2713D01*
X3482D01*
Y2838D01*
X4300D01*
X4300Y2838D01*
X4343Y2846D01*
X4379Y2871D01*
X4531Y3022D01*
X4555Y3059D01*
X4564Y3102D01*
X4564Y3102D01*
Y3552D01*
X4595D01*
Y3848D01*
X4308D01*
Y3552D01*
X4340D01*
Y3148D01*
X4254Y3062D01*
X3482D01*
Y3187D01*
X3008Y3187D01*
X3004Y3235D01*
Y3400D01*
X2988Y3438D01*
X2988Y3438D01*
X2888Y3538D01*
X2850Y3554D01*
X2850Y3554D01*
X2400D01*
X2400Y3554D01*
X2362Y3538D01*
X2254Y3431D01*
X2204Y3451D01*
Y3528D01*
X2322Y3646D01*
X2650D01*
X2650Y3646D01*
X2688Y3662D01*
X2688Y3662D01*
X2721Y3694D01*
X2724Y3694D01*
X2735Y3693D01*
X2772Y3675D01*
Y3625D01*
X3128D01*
Y3630D01*
X3178Y3655D01*
X3200Y3646D01*
X3200Y3646D01*
X3528D01*
X3712Y3462D01*
X3750Y3446D01*
X3750Y3446D01*
X4050D01*
X4088Y3462D01*
X4088Y3462D01*
X4178Y3552D01*
X4192D01*
Y3570D01*
X4204Y3600D01*
X4204Y3600D01*
Y4022D01*
X4211D01*
Y4378D01*
X4204D01*
Y4950D01*
X4188Y4988D01*
X4188Y4988D01*
X3938Y5238D01*
X3900Y5254D01*
X3900Y5254D01*
X2772D01*
X2454Y5572D01*
Y5631D01*
X2689D01*
Y6094D01*
Y6558D01*
X2660D01*
X2617Y6576D01*
X2617Y6608D01*
Y6950D01*
D02*
G37*
G36*
X3070Y6558D02*
X2789D01*
Y6144D01*
X3070D01*
Y6558D01*
D02*
G37*
G36*
X731D02*
X451D01*
Y6144D01*
X731D01*
Y6558D01*
D02*
G37*
G36*
X4652Y6590D02*
X4276D01*
Y6096D01*
X4652D01*
Y6590D01*
D02*
G37*
G36*
X4759Y7439D02*
X4685Y7429D01*
X4615Y7400D01*
X4555Y7354D01*
X4509Y7294D01*
X4481Y7225D01*
X4471Y7150D01*
X4481Y7075D01*
X4509Y7006D01*
X4555Y6946D01*
X4615Y6900D01*
X4685Y6871D01*
X4759Y6861D01*
X4822Y6870D01*
X4845Y6837D01*
X4848Y6825D01*
X4762Y6738D01*
X4746Y6700D01*
X4746Y6700D01*
Y6200D01*
X4746Y6200D01*
X4762Y6162D01*
X4912Y6012D01*
Y6012D01*
X4950Y5996D01*
X4950Y5996D01*
X5000Y5996D01*
X5200Y5996D01*
X5400D01*
X5400Y5996D01*
X5438Y6012D01*
X5438Y6012D01*
X5638Y6212D01*
X5654Y6250D01*
X5654Y6250D01*
Y6700D01*
X5654Y6700D01*
X5638Y6738D01*
X5488Y6888D01*
X5450Y6904D01*
X5450Y6904D01*
X4991D01*
X4978Y6924D01*
X4970Y6954D01*
X5009Y7006D01*
X5038Y7075D01*
X5048Y7150D01*
X5038Y7225D01*
X5009Y7294D01*
X4964Y7354D01*
X4904Y7400D01*
X4834Y7429D01*
X4759Y7439D01*
D02*
G37*
G36*
X11530Y6144D02*
X11097D01*
Y5829D01*
X11530D01*
Y6144D01*
D02*
G37*
G36*
X10997D02*
X10564D01*
Y5829D01*
X10997D01*
Y6144D01*
D02*
G37*
G36*
X3070Y6044D02*
X2789D01*
Y5631D01*
X3070D01*
Y6044D01*
D02*
G37*
G36*
X1397Y6950D02*
X1150D01*
X903D01*
Y6608D01*
X903Y6576D01*
X861Y6558D01*
X831D01*
Y6094D01*
Y5631D01*
X1112D01*
Y5631D01*
X1198D01*
Y5953D01*
Y6275D01*
X1112D01*
X1112Y6558D01*
X1154Y6576D01*
X1397D01*
Y6950D01*
D02*
G37*
G36*
X731Y6044D02*
X451D01*
Y5631D01*
X731D01*
Y6044D01*
D02*
G37*
G36*
X11530Y5729D02*
X11097D01*
Y5414D01*
X11530D01*
Y5729D01*
D02*
G37*
G36*
X10997D02*
X10564D01*
Y5414D01*
X10997D01*
Y5729D01*
D02*
G37*
G36*
X6172Y5401D02*
X6050D01*
Y5273D01*
X6172D01*
Y5401D01*
D02*
G37*
G36*
X5950D02*
X5828D01*
Y5273D01*
X5950D01*
Y5401D01*
D02*
G37*
G36*
X2892Y4798D02*
X2798D01*
Y4700D01*
X2892D01*
Y4798D01*
D02*
G37*
G36*
X4597Y4763D02*
X4497D01*
Y4700D01*
X4597D01*
Y4763D01*
D02*
G37*
G36*
X4397D02*
X4296D01*
Y4700D01*
X4397D01*
Y4763D01*
D02*
G37*
G36*
X2698Y4798D02*
X2605D01*
Y4700D01*
X2698D01*
Y4798D01*
D02*
G37*
G36*
X4597Y4600D02*
X4497D01*
Y4537D01*
X4597D01*
Y4600D01*
D02*
G37*
G36*
X4397D02*
X4296D01*
Y4537D01*
X4397D01*
Y4600D01*
D02*
G37*
G36*
X2892D02*
X2798D01*
Y4502D01*
X2892D01*
Y4600D01*
D02*
G37*
G36*
X2698D02*
X2605D01*
Y4502D01*
X2698D01*
Y4600D01*
D02*
G37*
G36*
X650Y4831D02*
Y4500D01*
X981D01*
X975Y4550D01*
X936Y4644D01*
X874Y4724D01*
X794Y4786D01*
X700Y4825D01*
X650Y4831D01*
D02*
G37*
G36*
X550D02*
X500Y4825D01*
X406Y4786D01*
X326Y4724D01*
X264Y4644D01*
X225Y4550D01*
X219Y4500D01*
X550D01*
Y4831D01*
D02*
G37*
G36*
X4841Y4378D02*
X4615D01*
Y4250D01*
X4841D01*
Y4378D01*
D02*
G37*
G36*
X4515D02*
X4289D01*
Y4250D01*
X4515D01*
Y4378D01*
D02*
G37*
G36*
X2487Y4306D02*
X2349D01*
Y4247D01*
X2487D01*
Y4306D01*
D02*
G37*
G36*
X7541Y4194D02*
X7374D01*
Y4125D01*
X7541D01*
Y4194D01*
D02*
G37*
G36*
X7274D02*
X7107D01*
Y4125D01*
X7274D01*
Y4194D01*
D02*
G37*
G36*
X6793D02*
X6626D01*
Y4125D01*
X6793D01*
Y4194D01*
D02*
G37*
G36*
X6526D02*
X6359D01*
Y4125D01*
X6526D01*
Y4194D01*
D02*
G37*
G36*
X981Y4400D02*
X650D01*
Y4069D01*
X700Y4075D01*
X794Y4114D01*
X874Y4176D01*
X936Y4256D01*
X975Y4350D01*
X981Y4400D01*
D02*
G37*
G36*
X550D02*
X219D01*
X225Y4350D01*
X264Y4256D01*
X326Y4176D01*
X406Y4114D01*
X500Y4075D01*
X550Y4069D01*
Y4400D01*
D02*
G37*
G36*
X4841Y4150D02*
X4615D01*
Y4022D01*
X4841D01*
Y4150D01*
D02*
G37*
G36*
X4515D02*
X4289D01*
Y4022D01*
X4515D01*
Y4150D01*
D02*
G37*
G36*
X7450Y4063D02*
Y3950D01*
X7563D01*
X7560Y3966D01*
X7523Y4023D01*
X7466Y4060D01*
X7450Y4063D01*
D02*
G37*
G36*
X7350D02*
X7334Y4060D01*
X7277Y4023D01*
X7240Y3966D01*
X7237Y3950D01*
X7350D01*
Y4063D01*
D02*
G37*
G36*
X7000D02*
Y3950D01*
X7113D01*
X7110Y3966D01*
X7073Y4023D01*
X7016Y4060D01*
X7000Y4063D01*
D02*
G37*
G36*
X6900D02*
X6884Y4060D01*
X6827Y4023D01*
X6790Y3966D01*
X6787Y3950D01*
X6900D01*
Y4063D01*
D02*
G37*
G36*
X6550D02*
Y3950D01*
X6663D01*
X6660Y3966D01*
X6623Y4023D01*
X6566Y4060D01*
X6550Y4063D01*
D02*
G37*
G36*
X6450D02*
X6434Y4060D01*
X6377Y4023D01*
X6340Y3966D01*
X6337Y3950D01*
X6450D01*
Y4063D01*
D02*
G37*
G36*
X8072Y4027D02*
X7950D01*
Y3899D01*
X8072D01*
Y4027D01*
D02*
G37*
G36*
X7850D02*
X7728D01*
Y3899D01*
X7850D01*
Y4027D01*
D02*
G37*
G36*
X7563Y3850D02*
X7450D01*
Y3737D01*
X7466Y3740D01*
X7523Y3777D01*
X7560Y3834D01*
X7563Y3850D01*
D02*
G37*
G36*
X7350D02*
X7237D01*
X7240Y3834D01*
X7277Y3777D01*
X7334Y3740D01*
X7350Y3737D01*
Y3850D01*
D02*
G37*
G36*
X7113D02*
X7000D01*
Y3737D01*
X7016Y3740D01*
X7073Y3777D01*
X7110Y3834D01*
X7113Y3850D01*
D02*
G37*
G36*
X6900D02*
X6787D01*
X6790Y3834D01*
X6827Y3777D01*
X6884Y3740D01*
X6900Y3737D01*
Y3850D01*
D02*
G37*
G36*
X6663D02*
X6550D01*
Y3737D01*
X6566Y3740D01*
X6623Y3777D01*
X6660Y3834D01*
X6663Y3850D01*
D02*
G37*
G36*
X6450D02*
X6337D01*
X6340Y3834D01*
X6377Y3777D01*
X6434Y3740D01*
X6450Y3737D01*
Y3850D01*
D02*
G37*
G36*
X2128Y3211D02*
X2000D01*
Y2985D01*
X2128D01*
Y3211D01*
D02*
G37*
G36*
X1900D02*
X1772D01*
Y2985D01*
X1900D01*
Y3211D01*
D02*
G37*
G36*
X10132Y2914D02*
X9857D01*
Y2855D01*
X10132D01*
Y2914D01*
D02*
G37*
G36*
X9757D02*
X9481D01*
Y2855D01*
X9757D01*
Y2914D01*
D02*
G37*
G36*
X2128Y2885D02*
X2000D01*
Y2659D01*
X2128D01*
Y2885D01*
D02*
G37*
G36*
X1900D02*
X1772D01*
Y2659D01*
X1900D01*
Y2885D01*
D02*
G37*
G36*
X650Y2431D02*
Y2100D01*
X981D01*
X975Y2150D01*
X936Y2244D01*
X874Y2324D01*
X794Y2386D01*
X700Y2425D01*
X650Y2431D01*
D02*
G37*
G36*
X550D02*
X500Y2425D01*
X406Y2386D01*
X326Y2324D01*
X264Y2244D01*
X225Y2150D01*
X219Y2100D01*
X550D01*
Y2431D01*
D02*
G37*
G36*
X11530Y2286D02*
X11097D01*
Y1971D01*
X11530D01*
Y2286D01*
D02*
G37*
G36*
X10997D02*
X10564D01*
Y1971D01*
X10997D01*
Y2286D01*
D02*
G37*
G36*
X981Y2000D02*
X650D01*
Y1669D01*
X700Y1675D01*
X794Y1714D01*
X874Y1776D01*
X936Y1856D01*
X975Y1950D01*
X981Y2000D01*
D02*
G37*
G36*
X550D02*
X219D01*
X225Y1950D01*
X264Y1856D01*
X326Y1776D01*
X406Y1714D01*
X500Y1675D01*
X550Y1669D01*
Y2000D01*
D02*
G37*
G36*
X11530Y1871D02*
X11097D01*
Y1556D01*
X11530D01*
Y1871D01*
D02*
G37*
G36*
X10997D02*
X10564D01*
Y1556D01*
X10997D01*
Y1871D01*
D02*
G37*
G36*
X985Y1435D02*
X215D01*
Y665D01*
X985D01*
Y1435D01*
D02*
G37*
G36*
X9449Y1136D02*
X9359Y1124D01*
X9275Y1089D01*
X9203Y1034D01*
X9147Y962D01*
X9112Y878D01*
X9101Y787D01*
X9112Y697D01*
X9147Y613D01*
X9203Y541D01*
X9275Y486D01*
X9359Y451D01*
X9449Y439D01*
X9539Y451D01*
X9623Y486D01*
X9695Y541D01*
X9750Y613D01*
X9785Y697D01*
X9797Y787D01*
X9785Y878D01*
X9750Y962D01*
X9695Y1034D01*
X9623Y1089D01*
X9539Y1124D01*
X9449Y1136D01*
D02*
G37*
G36*
X3150D02*
X3059Y1124D01*
X2975Y1089D01*
X2903Y1034D01*
X2848Y962D01*
X2813Y878D01*
X2801Y787D01*
X2813Y697D01*
X2848Y613D01*
X2903Y541D01*
X2975Y486D01*
X3059Y451D01*
X3150Y439D01*
X3240Y451D01*
X3324Y486D01*
X3396Y541D01*
X3451Y613D01*
X3486Y697D01*
X3498Y787D01*
X3486Y878D01*
X3451Y962D01*
X3396Y1034D01*
X3324Y1089D01*
X3240Y1124D01*
X3150Y1136D01*
D02*
G37*
G36*
X8022Y427D02*
X7900D01*
Y299D01*
X8022D01*
Y427D01*
D02*
G37*
G36*
X7800D02*
X7678D01*
Y299D01*
X7800D01*
Y427D01*
D02*
G37*
G36*
X6222D02*
X6100D01*
Y299D01*
X6222D01*
Y427D01*
D02*
G37*
G36*
X6000D02*
X5878D01*
Y299D01*
X6000D01*
Y427D01*
D02*
G37*
%LPD*%
G36*
X6450Y6550D02*
Y6100D01*
X6750Y5800D01*
X7800Y5800D01*
X8100Y5500D01*
Y4400D01*
X8000Y4300D01*
X7750D01*
X7650Y4400D01*
X7200D01*
X7150Y4450D01*
Y4550D01*
X7200Y4600D01*
X7700D01*
X7850Y4750D01*
Y5300D01*
X7700Y5450D01*
X6600D01*
X6000Y6050D01*
Y6550D01*
X6037Y6600D01*
X6400D01*
X6450Y6550D01*
D02*
G37*
G36*
X8673Y3472D02*
Y1603D01*
X8097Y1027D01*
X8068Y1027D01*
X8038Y1038D01*
X8038Y1039D01*
X7988Y1088D01*
X7950Y1104D01*
X7950Y1104D01*
X7551D01*
Y1309D01*
X7587Y1344D01*
X7780D01*
X7780Y1344D01*
X7823Y1352D01*
X7859Y1377D01*
X7929Y1447D01*
X7929Y1447D01*
X7954Y1483D01*
X7956Y1493D01*
X8022D01*
Y1839D01*
Y1967D01*
X7850D01*
X7678D01*
Y1839D01*
Y1568D01*
X7344D01*
X7328Y1565D01*
X7136D01*
Y1535D01*
X6764D01*
Y1565D01*
X6572D01*
X6556Y1568D01*
X6198D01*
Y1792D01*
X5902D01*
Y1505D01*
X5942D01*
X5946Y1483D01*
X5971Y1447D01*
X6041Y1377D01*
X6041Y1377D01*
X6077Y1352D01*
X6120Y1344D01*
X6120Y1344D01*
X6313D01*
X6349Y1309D01*
Y1250D01*
X6556D01*
Y1150D01*
X6349D01*
Y1100D01*
X5996D01*
X5996Y1100D01*
X5996Y1100D01*
X5996D01*
X5958Y1084D01*
X5958Y1084D01*
X5862Y988D01*
X5859Y981D01*
X5785D01*
X5403Y1363D01*
Y1938D01*
X5902D01*
Y1908D01*
X6198D01*
Y2195D01*
X5902D01*
Y2162D01*
X5403D01*
Y2423D01*
X7500D01*
X7549Y2432D01*
X7590Y2460D01*
X8623Y3492D01*
X8673Y3472D01*
D02*
G37*
G36*
X8000Y1000D02*
Y750D01*
X7950Y700D01*
X7300D01*
X7150Y850D01*
Y865D01*
X7167D01*
Y1017D01*
X7200Y1050D01*
X7950D01*
X8000Y1000D01*
D02*
G37*
G36*
X6700Y1000D02*
X6700Y800D01*
X6600Y700D01*
X5950D01*
X5900Y750D01*
Y950D01*
X5996Y1046D01*
X6654D01*
X6700Y1000D01*
D02*
G37*
%LPC*%
G36*
X8400Y2813D02*
Y2700D01*
X8513D01*
X8510Y2716D01*
X8473Y2773D01*
X8416Y2810D01*
X8400Y2813D01*
D02*
G37*
G36*
X8300D02*
X8284Y2810D01*
X8227Y2773D01*
X8190Y2716D01*
X8187Y2700D01*
X8300D01*
Y2813D01*
D02*
G37*
G36*
X8513Y2600D02*
X8400D01*
Y2487D01*
X8416Y2490D01*
X8473Y2527D01*
X8510Y2584D01*
X8513Y2600D01*
D02*
G37*
G36*
X8300D02*
X8187D01*
X8190Y2584D01*
X8227Y2527D01*
X8284Y2490D01*
X8300Y2487D01*
Y2600D01*
D02*
G37*
G36*
X8022Y2195D02*
X7900D01*
Y2067D01*
X8022D01*
Y2195D01*
D02*
G37*
G36*
X7800D02*
X7678D01*
Y2067D01*
X7800D01*
Y2195D01*
D02*
G37*
G36*
X8400Y2163D02*
Y2050D01*
X8513D01*
X8510Y2066D01*
X8473Y2123D01*
X8416Y2160D01*
X8400Y2163D01*
D02*
G37*
G36*
X8300D02*
X8284Y2160D01*
X8227Y2123D01*
X8190Y2066D01*
X8187Y2050D01*
X8300D01*
Y2163D01*
D02*
G37*
G36*
X8513Y1950D02*
X8400D01*
Y1837D01*
X8416Y1840D01*
X8473Y1877D01*
X8510Y1934D01*
X8513Y1950D01*
D02*
G37*
G36*
X8300D02*
X8187D01*
X8190Y1934D01*
X8227Y1877D01*
X8284Y1840D01*
X8300Y1837D01*
Y1950D01*
D02*
G37*
G36*
X5700Y1763D02*
Y1650D01*
X5813D01*
X5810Y1666D01*
X5773Y1723D01*
X5716Y1760D01*
X5700Y1763D01*
D02*
G37*
G36*
X5600D02*
X5584Y1760D01*
X5527Y1723D01*
X5490Y1666D01*
X5487Y1650D01*
X5600D01*
Y1763D01*
D02*
G37*
G36*
X5813Y1550D02*
X5700D01*
Y1437D01*
X5716Y1440D01*
X5773Y1477D01*
X5810Y1534D01*
X5813Y1550D01*
D02*
G37*
G36*
X5600D02*
X5487D01*
X5490Y1534D01*
X5527Y1477D01*
X5584Y1440D01*
X5600Y1437D01*
Y1550D01*
D02*
G37*
%LPD*%
G36*
X2700Y3850D02*
Y3750D01*
X2650Y3700D01*
X2300D01*
X2150Y3550D01*
Y3350D01*
X1250D01*
X950Y3050D01*
X300D01*
X200Y3150D01*
Y3800D01*
X290Y3890D01*
X2019D01*
X2027Y3877D01*
X2084Y3840D01*
X2150Y3827D01*
X2216Y3840D01*
X2273Y3877D01*
X2281Y3890D01*
X2660D01*
X2700Y3850D01*
D02*
G37*
G36*
X2400Y6200D02*
Y5550D01*
X2750Y5200D01*
X3900D01*
X4150Y4950D01*
Y3600D01*
X4050Y3500D01*
X3750D01*
X3550Y3700D01*
X3200D01*
X3150Y3750D01*
Y3850D01*
X3191Y3891D01*
X3551D01*
Y3901D01*
X3700Y4050D01*
Y4400D01*
X3800D01*
X3950Y4550D01*
Y4800D01*
X3800Y4950D01*
X2550D01*
X2150Y5350D01*
Y5631D01*
X2155D01*
Y6205D01*
X2200Y6250D01*
X2350D01*
X2400Y6200D01*
D02*
G37*
G36*
X2950Y3400D02*
Y2850D01*
X2850Y2750D01*
X2450D01*
X2250Y2950D01*
Y3350D01*
X2400Y3500D01*
X2850D01*
X2950Y3400D01*
D02*
G37*
G36*
X5600Y6700D02*
Y6250D01*
X5400Y6050D01*
X5200D01*
X5000Y6050D01*
X4950Y6050D01*
X4800Y6200D01*
Y6700D01*
X4950Y6850D01*
X5450D01*
X5600Y6700D01*
D02*
G37*
D15*
X0Y7874D02*
X11811D01*
Y0D02*
Y7874D01*
X0Y0D02*
X11811D01*
X0D02*
Y7874D01*
D16*
X11447Y7515D02*
D03*
X9853D02*
D03*
X9097D02*
D03*
X7503D02*
D03*
X11447Y6885D02*
D03*
X9853D02*
D03*
X9097D02*
D03*
X7503D02*
D03*
D17*
X11047Y5779D02*
D03*
Y1921D02*
D03*
D18*
X9807Y4736D02*
D03*
Y4539D02*
D03*
Y4342D02*
D03*
Y4145D02*
D03*
Y3948D02*
D03*
Y3752D02*
D03*
Y3555D02*
D03*
Y3358D02*
D03*
Y3161D02*
D03*
Y2964D02*
D03*
D19*
X7850Y477D02*
D03*
Y823D02*
D03*
X6050Y477D02*
D03*
Y823D02*
D03*
X7850Y2017D02*
D03*
Y1671D02*
D03*
X7900Y4077D02*
D03*
Y4423D02*
D03*
X6000Y5223D02*
D03*
Y4877D02*
D03*
D20*
X6050Y2052D02*
D03*
Y1648D02*
D03*
D21*
X6556Y1456D02*
D03*
Y1200D02*
D03*
Y944D02*
D03*
X7344D02*
D03*
Y1200D02*
D03*
Y1456D02*
D03*
D22*
X6950Y1200D02*
D03*
D23*
X6686Y3300D02*
D03*
X7214D02*
D03*
D24*
X6576Y4756D02*
D03*
Y4500D02*
D03*
Y4244D02*
D03*
X7324D02*
D03*
Y4500D02*
D03*
Y4756D02*
D03*
D25*
X7952Y5250D02*
D03*
X7548D02*
D03*
X4048Y3700D02*
D03*
X4452D02*
D03*
X2748Y4650D02*
D03*
X3152D02*
D03*
D26*
X6826Y7603D02*
D03*
X3874D02*
D03*
Y6697D02*
D03*
X6826D02*
D03*
D27*
X4464Y6343D02*
D03*
X5055D02*
D03*
X6236D02*
D03*
D28*
X432Y7000D02*
D03*
X3089D02*
D03*
D29*
X1150D02*
D03*
D30*
X2213D02*
D03*
D31*
X2739Y6094D02*
D03*
X781D02*
D03*
D32*
X1248Y5953D02*
D03*
X1504D02*
D03*
X1760D02*
D03*
X2016D02*
D03*
X2272D02*
D03*
D33*
X4053Y4650D02*
D03*
X4447D02*
D03*
D34*
X4565Y4200D02*
D03*
X3935D02*
D03*
D35*
X2655Y2950D02*
D03*
X3245D02*
D03*
D36*
X1950Y2935D02*
D03*
Y3565D02*
D03*
D37*
X2537Y4197D02*
D03*
Y4000D02*
D03*
Y3803D02*
D03*
X3363D02*
D03*
Y4000D02*
D03*
Y4197D02*
D03*
D38*
X2950Y4000D02*
D03*
D66*
X5250Y2050D02*
Y2550D01*
Y1300D02*
Y2050D01*
Y2550D02*
Y4460D01*
X5722Y828D02*
X6050D01*
X5250Y1300D02*
X5722Y828D01*
X5250Y4460D02*
X5667Y4877D01*
X1250Y5500D02*
Y6350D01*
X9350Y2900D02*
X10300D01*
X6050Y823D02*
Y828D01*
X5667Y4877D02*
X6000D01*
D67*
X9000Y4750D02*
X10050D01*
X5250Y2550D02*
X7500D01*
X8550Y4300D02*
X9000Y4750D01*
X8550Y3600D02*
Y4300D01*
X7500Y2550D02*
X8550Y3600D01*
X9807Y4539D02*
X10050D01*
X9139D02*
X9807D01*
X8800Y4200D02*
X9139Y4539D01*
X8126Y876D02*
X8800Y1550D01*
Y4200D01*
X7850Y823D02*
Y829D01*
X7897Y876D01*
X8126D01*
D68*
X6000Y4871D02*
X6179D01*
X5250Y2050D02*
X6048D01*
X9355Y4145D02*
X9807D01*
X9247Y4037D02*
X9355Y4145D01*
X9252Y3737D02*
X9293D01*
X9505Y3948D01*
X9807D01*
Y4342D02*
X10292D01*
X7344Y1456D02*
X7780D01*
X7850Y1526D02*
Y1671D01*
X7780Y1456D02*
X7850Y1526D01*
X6050D02*
Y1648D01*
X6120Y1456D02*
X6556D01*
X6050Y1526D02*
X6120Y1456D01*
X6048Y2050D02*
X6050Y2052D01*
X6179Y4871D02*
X6294Y4756D01*
X6576D01*
X6000Y4871D02*
Y4877D01*
X6200Y3300D02*
X6686D01*
X6000Y3500D02*
X6200Y3300D01*
X6000Y3500D02*
Y4300D01*
X6200Y4500D01*
X6576D01*
X7214Y3300D02*
X7264Y3250D01*
X7750D01*
X8300Y3800D02*
Y4300D01*
X7750Y3250D02*
X8300Y3800D01*
X7900Y4423D02*
X8177D01*
X8300Y4300D01*
X7324Y4756D02*
Y5174D01*
X7400Y5250D01*
X7548D01*
X3245Y2950D02*
X4300D01*
X4452Y3102D02*
Y3700D01*
X4300Y2950D02*
X4452Y3102D01*
D69*
X2150Y4000D02*
X2537D01*
X3152Y4650D02*
X3341D01*
X3363Y4197D02*
X3391D01*
X3400Y4206D01*
Y4591D01*
X3341Y4650D02*
X3400Y4591D01*
D70*
X4759Y7150D02*
D03*
X5941D02*
D03*
D71*
X600Y1050D02*
D03*
Y3450D02*
D03*
D72*
Y2050D02*
D03*
Y4450D02*
D03*
D73*
X5650Y1600D02*
D03*
X8350Y2000D02*
D03*
Y2650D02*
D03*
X2150Y4000D02*
D03*
X2600Y3300D02*
D03*
X9252Y3737D02*
D03*
X9247Y4037D02*
D03*
X5400Y6650D02*
D03*
X10292Y4342D02*
D03*
X7400Y3900D02*
D03*
X6950D02*
D03*
X6500D02*
D03*
X5400Y6300D02*
D03*
D74*
X9449Y787D02*
D03*
X3150D02*
D03*
M02*
