G04*
G04 #@! TF.GenerationSoftware,Altium Limited,Altium Designer,20.0.1 (14)*
G04*
G04 Layer_Color=128*
%FSLAX24Y24*%
%MOIN*%
G70*
G01*
G75*
%ADD14C,0.0020*%
%ADD15C,0.0060*%
D14*
X11309Y6885D02*
X11585D01*
X11447Y6747D02*
Y7023D01*
X9715Y6885D02*
X9991D01*
X9853Y6747D02*
Y7023D01*
X8959Y6885D02*
X9235D01*
X9097Y6747D02*
Y7023D01*
X7365Y6885D02*
X7641D01*
X7503Y6747D02*
Y7023D01*
X4523Y7150D02*
X4996D01*
X4759Y6914D02*
Y7386D01*
X5704Y7150D02*
X6177D01*
X5941Y6914D02*
Y7386D01*
X423Y1050D02*
X777D01*
X600Y873D02*
Y1227D01*
X423Y2050D02*
X777D01*
X600Y1873D02*
Y2227D01*
X423Y3450D02*
X777D01*
X600Y3273D02*
Y3627D01*
X423Y4450D02*
X777D01*
X600Y4273D02*
Y4627D01*
X5590Y1600D02*
X5710D01*
X5650Y1540D02*
Y1660D01*
X8290Y2000D02*
X8410D01*
X8350Y1940D02*
Y2060D01*
X8290Y2650D02*
X8410D01*
X8350Y2590D02*
Y2710D01*
X2090Y4000D02*
X2210D01*
X2150Y3940D02*
Y4060D01*
X9154Y787D02*
X9744D01*
X9449Y492D02*
Y1083D01*
X2854Y787D02*
X3445D01*
X3150Y492D02*
Y1083D01*
X2540Y3300D02*
X2660D01*
X2600Y3240D02*
Y3360D01*
X9192Y3737D02*
X9312D01*
X9252Y3677D02*
Y3797D01*
X9187Y4037D02*
X9307D01*
X9247Y3977D02*
Y4097D01*
X5340Y6650D02*
X5460D01*
X5400Y6590D02*
Y6710D01*
X10232Y4342D02*
X10352D01*
X10292Y4282D02*
Y4402D01*
X7340Y3900D02*
X7460D01*
X7400Y3840D02*
Y3960D01*
X6890Y3900D02*
X7010D01*
X6950Y3840D02*
Y3960D01*
X6440Y3900D02*
X6560D01*
X6500Y3840D02*
Y3960D01*
X5340Y6300D02*
X5460D01*
X5400Y6240D02*
Y6360D01*
D15*
X0Y7874D02*
X11811D01*
Y0D02*
Y7874D01*
X0Y0D02*
X11811D01*
X0D02*
Y7874D01*
M02*
