G04*
G04 #@! TF.GenerationSoftware,Altium Limited,Altium Designer,20.0.1 (14)*
G04*
G04 Layer_Color=2752767*
%FSLAX24Y24*%
%MOIN*%
G70*
G01*
G75*
%ADD14C,0.0020*%
%ADD15C,0.0060*%
%ADD75C,0.0027*%
D14*
X11367Y6805D02*
Y6965D01*
X11527D01*
Y6805D01*
X11367D01*
X9773D02*
Y6965D01*
X9933D01*
Y6805D01*
X9773D01*
X9017D02*
Y6965D01*
X9177D01*
Y6805D01*
X9017D01*
X7423D02*
Y6965D01*
X7583D01*
Y6805D01*
X7423D01*
X600Y970D02*
X520Y1130D01*
X680D01*
X600Y970D01*
Y1970D02*
X520Y2130D01*
X680D01*
X600Y1970D01*
Y3370D02*
X520Y3530D01*
X680D01*
X600Y3370D01*
Y4370D02*
X520Y4530D01*
X680D01*
X600Y4370D01*
X5650Y1520D02*
X5690Y1560D01*
X5730D01*
X5690Y1600D01*
X5730Y1640D01*
X5690D01*
X5650Y1680D01*
X5610Y1640D01*
X5570D01*
X5610Y1600D01*
X5570Y1560D01*
X5610D01*
X5650Y1520D01*
X8350Y1920D02*
X8390Y1960D01*
X8430D01*
X8390Y2000D01*
X8430Y2040D01*
X8390D01*
X8350Y2080D01*
X8310Y2040D01*
X8270D01*
X8310Y2000D01*
X8270Y1960D01*
X8310D01*
X8350Y1920D01*
Y2570D02*
X8390Y2610D01*
X8430D01*
X8390Y2650D01*
X8430Y2690D01*
X8390D01*
X8350Y2730D01*
X8310Y2690D01*
X8270D01*
X8310Y2650D01*
X8270Y2610D01*
X8310D01*
X8350Y2570D01*
X2150Y3920D02*
X2190Y3960D01*
X2230D01*
X2190Y4000D01*
X2230Y4040D01*
X2190D01*
X2150Y4080D01*
X2110Y4040D01*
X2070D01*
X2110Y4000D01*
X2070Y3960D01*
X2110D01*
X2150Y3920D01*
X9369Y707D02*
X9409Y787D01*
X9369Y867D01*
X9449Y827D01*
X9529Y867D01*
X9489Y787D01*
X9529Y707D01*
X9449Y747D01*
X9369Y707D01*
X3070D02*
X3110Y787D01*
X3070Y867D01*
X3150Y827D01*
X3230Y867D01*
X3190Y787D01*
X3230Y707D01*
X3150Y747D01*
X3070Y707D01*
X2600Y3220D02*
X2640Y3260D01*
X2680D01*
X2640Y3300D01*
X2680Y3340D01*
X2640D01*
X2600Y3380D01*
X2560Y3340D01*
X2520D01*
X2560Y3300D01*
X2520Y3260D01*
X2560D01*
X2600Y3220D01*
X9252Y3657D02*
X9292Y3697D01*
X9332D01*
X9292Y3737D01*
X9332Y3777D01*
X9292D01*
X9252Y3817D01*
X9212Y3777D01*
X9172D01*
X9212Y3737D01*
X9172Y3697D01*
X9212D01*
X9252Y3657D01*
X9247Y3957D02*
X9287Y3997D01*
X9327D01*
X9287Y4037D01*
X9327Y4077D01*
X9287D01*
X9247Y4117D01*
X9207Y4077D01*
X9167D01*
X9207Y4037D01*
X9167Y3997D01*
X9207D01*
X9247Y3957D01*
X5400Y6570D02*
X5440Y6610D01*
X5480D01*
X5440Y6650D01*
X5480Y6690D01*
X5440D01*
X5400Y6730D01*
X5360Y6690D01*
X5320D01*
X5360Y6650D01*
X5320Y6610D01*
X5360D01*
X5400Y6570D01*
X10292Y4262D02*
X10332Y4302D01*
X10372D01*
X10332Y4342D01*
X10372Y4382D01*
X10332D01*
X10292Y4422D01*
X10252Y4382D01*
X10212D01*
X10252Y4342D01*
X10212Y4302D01*
X10252D01*
X10292Y4262D01*
X7400Y3820D02*
X7440Y3860D01*
X7480D01*
X7440Y3900D01*
X7480Y3940D01*
X7440D01*
X7400Y3980D01*
X7360Y3940D01*
X7320D01*
X7360Y3900D01*
X7320Y3860D01*
X7360D01*
X7400Y3820D01*
X6950D02*
X6990Y3860D01*
X7030D01*
X6990Y3900D01*
X7030Y3940D01*
X6990D01*
X6950Y3980D01*
X6910Y3940D01*
X6870D01*
X6910Y3900D01*
X6870Y3860D01*
X6910D01*
X6950Y3820D01*
X6500D02*
X6540Y3860D01*
X6580D01*
X6540Y3900D01*
X6580Y3940D01*
X6540D01*
X6500Y3980D01*
X6460Y3940D01*
X6420D01*
X6460Y3900D01*
X6420Y3860D01*
X6460D01*
X6500Y3820D01*
X5400Y6220D02*
X5440Y6260D01*
X5480D01*
X5440Y6300D01*
X5480Y6340D01*
X5440D01*
X5400Y6380D01*
X5360Y6340D01*
X5320D01*
X5360Y6300D01*
X5320Y6260D01*
X5360D01*
X5400Y6220D01*
D15*
X0Y7874D02*
X11811D01*
Y0D02*
Y7874D01*
X0Y0D02*
X11811D01*
X0D02*
Y7874D01*
D75*
X4839Y7150D02*
G03*
X4839Y7150I-80J0D01*
G01*
X6021D02*
G03*
X6021Y7150I-80J0D01*
G01*
M02*
