M48
;Layer_Color=9474304
;FILE_FORMAT=2:4
INCH,LZ
;TYPE=PLATED
T1F00S00C0.0120
T2F00S00C0.0276
T3F00S00C0.0354
T4F00S00C0.0591
;TYPE=NON_PLATED
T5F00S00C0.0472
%
T01
X00565Y0016
X00835Y002
Y00265
X009252Y003737
X009247Y004037
X0074Y0039
X00695
X0065
X0054Y0063
Y00665
X00215Y004
X0026Y0033
X010292Y004342
T02
X007503Y006885
X009097
X009853
X011447
T03
X0006Y00105
Y00205
Y00345
Y00445
T04
X00315Y000787
X009449
T05
X004759Y00715
X005941
M30
