G04*
G04 #@! TF.GenerationSoftware,Altium Limited,Altium Designer,20.0.1 (14)*
G04*
G04 Layer_Color=8421504*
%FSLAX24Y24*%
%MOIN*%
G70*
G01*
G75*
%ADD15C,0.0060*%
%ADD16R,0.0500X0.0472*%
%ADD17R,0.0866X0.0630*%
%ADD18R,0.0551X0.0118*%
%ADD19R,0.0244X0.0256*%
%ADD20R,0.0197X0.0187*%
%ADD21R,0.0315X0.0118*%
%ADD22R,0.0335X0.0571*%
%ADD23R,0.0252X0.0500*%
%ADD24R,0.0335X0.0138*%
%ADD25R,0.0187X0.0197*%
%ADD26R,0.0394X0.0315*%
%ADD27R,0.0276X0.0394*%
%ADD28R,0.0650X0.0512*%
%ADD29R,0.0394X0.0748*%
%ADD30R,0.0709X0.0748*%
%ADD31R,0.0561X0.0827*%
%ADD32R,0.0177X0.0543*%
%ADD33R,0.0201X0.0126*%
%ADD34R,0.0453X0.0256*%
%ADD35R,0.0374X0.0374*%
%ADD36R,0.0256X0.0453*%
%ADD37R,0.0276X0.0118*%
%ADD38R,0.0256X0.0650*%
D15*
X0Y7874D02*
X11811D01*
Y0D02*
Y7874D01*
X0Y0D02*
X11811D01*
X0D02*
Y7874D01*
D16*
X11447Y7515D02*
D03*
X9853D02*
D03*
X9097D02*
D03*
X7503D02*
D03*
D17*
X11047Y5779D02*
D03*
Y1921D02*
D03*
D18*
X9807Y4736D02*
D03*
Y4539D02*
D03*
Y4342D02*
D03*
Y4145D02*
D03*
Y3948D02*
D03*
Y3752D02*
D03*
Y3555D02*
D03*
Y3358D02*
D03*
Y3161D02*
D03*
Y2964D02*
D03*
D19*
X7850Y477D02*
D03*
Y823D02*
D03*
X6050Y477D02*
D03*
Y823D02*
D03*
X7850Y2017D02*
D03*
Y1671D02*
D03*
X7900Y4077D02*
D03*
Y4423D02*
D03*
X6000Y5223D02*
D03*
Y4877D02*
D03*
D20*
X6050Y2052D02*
D03*
Y1648D02*
D03*
D21*
X6556Y1456D02*
D03*
Y1200D02*
D03*
Y944D02*
D03*
X7344D02*
D03*
Y1200D02*
D03*
Y1456D02*
D03*
D22*
X6950Y1200D02*
D03*
D23*
X6686Y3300D02*
D03*
X7214D02*
D03*
D24*
X6576Y4756D02*
D03*
Y4500D02*
D03*
Y4244D02*
D03*
X7324D02*
D03*
Y4500D02*
D03*
Y4756D02*
D03*
D25*
X7952Y5250D02*
D03*
X7548D02*
D03*
X4048Y3700D02*
D03*
X4452D02*
D03*
X2748Y4650D02*
D03*
X3152D02*
D03*
D26*
X6826Y7603D02*
D03*
X3874D02*
D03*
Y6697D02*
D03*
X6826D02*
D03*
D27*
X4464Y6343D02*
D03*
X5055D02*
D03*
X6236D02*
D03*
D28*
X432Y7000D02*
D03*
X3089D02*
D03*
D29*
X1150D02*
D03*
D30*
X2213D02*
D03*
D31*
X2739Y6094D02*
D03*
X781D02*
D03*
D32*
X1248Y5953D02*
D03*
X1504D02*
D03*
X1760D02*
D03*
X2016D02*
D03*
X2272D02*
D03*
D33*
X4053Y4650D02*
D03*
X4447D02*
D03*
D34*
X4565Y4200D02*
D03*
X3935D02*
D03*
D35*
X2655Y2950D02*
D03*
X3245D02*
D03*
D36*
X1950Y2935D02*
D03*
Y3565D02*
D03*
D37*
X2537Y4197D02*
D03*
Y4000D02*
D03*
Y3803D02*
D03*
X3363D02*
D03*
Y4000D02*
D03*
Y4197D02*
D03*
D38*
X2950Y4000D02*
D03*
M02*
