G04*
G04 #@! TF.GenerationSoftware,Altium Limited,Altium Designer,20.0.1 (14)*
G04*
G04 Layer_Color=8388736*
%FSLAX24Y24*%
%MOIN*%
G70*
G01*
G75*
%ADD15C,0.0060*%
%ADD19R,0.0946X0.0710*%
%ADD20R,0.0631X0.0198*%
%ADD21R,0.0434X0.0336*%
%ADD22C,0.0806*%
%ADD23R,0.0806X0.0806*%
%ADD24C,0.0880*%
D15*
X55118Y0D02*
Y4724D01*
X0D02*
X55118D01*
X0Y0D02*
Y4724D01*
Y0D02*
X55118D01*
D19*
X753Y421D02*
D03*
Y4279D02*
D03*
X54347D02*
D03*
Y421D02*
D03*
D20*
X1993Y1464D02*
D03*
Y1661D02*
D03*
Y1858D02*
D03*
Y2055D02*
D03*
Y2252D02*
D03*
Y2448D02*
D03*
Y2645D02*
D03*
Y2842D02*
D03*
Y3039D02*
D03*
Y3236D02*
D03*
X53107D02*
D03*
Y3039D02*
D03*
Y2842D02*
D03*
Y2645D02*
D03*
Y2448D02*
D03*
Y2252D02*
D03*
Y2055D02*
D03*
Y1858D02*
D03*
Y1661D02*
D03*
Y1464D02*
D03*
D21*
X48368Y2663D02*
D03*
Y2092D02*
D03*
X32852Y2663D02*
D03*
Y2092D02*
D03*
X22272Y2663D02*
D03*
Y2092D02*
D03*
X6756Y2663D02*
D03*
Y2092D02*
D03*
D22*
X51337Y2377D02*
D03*
X35820D02*
D03*
X20304D02*
D03*
X4787D02*
D03*
D23*
X50337D02*
D03*
X34820D02*
D03*
X19304D02*
D03*
X3787D02*
D03*
D24*
X45276D02*
D03*
X27559D02*
D03*
X9843D02*
D03*
M02*
