G04*
G04 #@! TF.GenerationSoftware,Altium Limited,Altium Designer,20.0.1 (14)*
G04*
G04 Layer_Color=32896*
%FSLAX24Y24*%
%MOIN*%
G70*
G01*
G75*
%ADD13C,0.0020*%
%ADD15C,0.0060*%
D13*
X16050Y6800D02*
Y6900D01*
X16000D01*
X15983Y6883D01*
Y6850D01*
X16000Y6833D01*
X16050D01*
X16017D02*
X15983Y6800D01*
X15950Y6883D02*
X15933Y6900D01*
X15900D01*
X15883Y6883D01*
Y6867D01*
X15900Y6850D01*
X15883Y6833D01*
Y6817D01*
X15900Y6800D01*
X15933D01*
X15950Y6817D01*
Y6833D01*
X15933Y6850D01*
X15950Y6867D01*
Y6883D01*
X15933Y6850D02*
X15900D01*
X16450Y6800D02*
Y6900D01*
X16400D01*
X16383Y6883D01*
Y6850D01*
X16400Y6833D01*
X16450D01*
X16417D02*
X16383Y6800D01*
X16350Y6900D02*
X16283D01*
Y6883D01*
X16350Y6817D01*
Y6800D01*
X19500D02*
Y6900D01*
X19450D01*
X19433Y6883D01*
Y6850D01*
X19450Y6833D01*
X19500D01*
X19467D02*
X19433Y6800D01*
X19333Y6900D02*
X19367Y6883D01*
X19400Y6850D01*
Y6817D01*
X19383Y6800D01*
X19350D01*
X19333Y6817D01*
Y6833D01*
X19350Y6850D01*
X19400D01*
X19050Y6800D02*
Y6900D01*
X19000D01*
X18983Y6883D01*
Y6850D01*
X19000Y6833D01*
X19050D01*
X19017D02*
X18983Y6800D01*
X18883Y6900D02*
X18950D01*
Y6850D01*
X18917Y6867D01*
X18900D01*
X18883Y6850D01*
Y6817D01*
X18900Y6800D01*
X18933D01*
X18950Y6817D01*
X18650Y6800D02*
Y6900D01*
X18600D01*
X18583Y6883D01*
Y6850D01*
X18600Y6833D01*
X18650D01*
X18617D02*
X18583Y6800D01*
X18500D02*
Y6900D01*
X18550Y6850D01*
X18483D01*
X17750Y6800D02*
Y6900D01*
X17700D01*
X17683Y6883D01*
Y6850D01*
X17700Y6833D01*
X17750D01*
X17717D02*
X17683Y6800D01*
X17650Y6883D02*
X17633Y6900D01*
X17600D01*
X17583Y6883D01*
Y6867D01*
X17600Y6850D01*
X17617D01*
X17600D01*
X17583Y6833D01*
Y6817D01*
X17600Y6800D01*
X17633D01*
X17650Y6817D01*
X16900Y6800D02*
Y6900D01*
X16850D01*
X16833Y6883D01*
Y6850D01*
X16850Y6833D01*
X16900D01*
X16867D02*
X16833Y6800D01*
X16733D02*
X16800D01*
X16733Y6867D01*
Y6883D01*
X16750Y6900D01*
X16783D01*
X16800Y6883D01*
X13533Y3033D02*
X13550Y3050D01*
X13583D01*
X13600Y3033D01*
Y2967D01*
X13583Y2950D01*
X13550D01*
X13533Y2967D01*
X13500Y2950D02*
X13467D01*
X13483D01*
Y3050D01*
X13500Y3033D01*
X13417D02*
X13400Y3050D01*
X13367D01*
X13350Y3033D01*
Y3017D01*
X13367Y3000D01*
X13383D01*
X13367D01*
X13350Y2983D01*
Y2967D01*
X13367Y2950D01*
X13400D01*
X13417Y2967D01*
D15*
X27559Y0D02*
Y7874D01*
X0Y0D02*
Y7874D01*
Y0D02*
X27559D01*
X0Y7874D02*
X27559D01*
M02*
