G04*
G04 #@! TF.GenerationSoftware,Altium Limited,Altium Designer,20.0.1 (14)*
G04*
G04 Layer_Physical_Order=1*
G04 Layer_Color=255*
%FSLAX24Y24*%
%MOIN*%
G70*
G01*
G75*
%ADD15C,0.0060*%
%ADD16R,0.0187X0.0197*%
%ADD17R,0.0118X0.0177*%
%ADD18R,0.0177X0.0118*%
%ADD19R,0.0236X0.0591*%
%ADD20R,0.0591X0.0236*%
%ADD21R,0.0453X0.0256*%
%ADD22R,0.2362X0.1181*%
%ADD23R,0.0256X0.0244*%
%ADD24R,0.0433X0.0945*%
%ADD25R,0.0244X0.0551*%
%ADD26R,0.0244X0.0256*%
%ADD27R,0.0114X0.0394*%
%ADD28R,0.0394X0.0114*%
%ADD29R,0.0354X0.1142*%
%ADD30R,0.0157X0.0748*%
%ADD31R,0.0551X0.0118*%
%ADD32R,0.0866X0.0630*%
%ADD33R,0.0256X0.0453*%
%ADD34R,0.0335X0.0413*%
%ADD35R,0.0138X0.0315*%
%ADD36R,0.0335X0.0138*%
%ADD37R,0.1024X0.1063*%
%ADD67C,0.0197*%
%ADD68C,0.0079*%
%ADD69C,0.0200*%
%ADD70C,0.0100*%
%ADD71C,0.0080*%
%ADD72C,0.0120*%
%ADD73C,0.0150*%
%ADD74C,0.0630*%
%ADD75R,0.0630X0.0630*%
%ADD76C,0.0187*%
%ADD77C,0.0160*%
%ADD78C,0.0591*%
G36*
X27559Y0D02*
X0D01*
Y7873D01*
X27560Y7873D01*
X27559Y0D01*
D02*
G37*
%LPC*%
G36*
X13323Y7602D02*
X13165D01*
Y7572D01*
X13059D01*
X13027Y7578D01*
X11400D01*
X11332Y7565D01*
X11274Y7526D01*
X11235Y7468D01*
X11222Y7400D01*
X11235Y7332D01*
X11274Y7274D01*
X11332Y7235D01*
X11400Y7222D01*
X11909D01*
Y7087D01*
X12058D01*
Y6987D01*
X11909D01*
Y6861D01*
X11555D01*
Y6701D01*
X11524D01*
Y6722D01*
X11208D01*
Y6752D01*
X11050D01*
Y6550D01*
Y6348D01*
X11208D01*
Y6378D01*
X11524D01*
Y6395D01*
X11555D01*
Y6230D01*
Y6108D01*
X11005D01*
X10946Y6096D01*
X10897Y6063D01*
X10637Y5803D01*
X10495D01*
X10475Y5799D01*
X10189D01*
X10130Y5787D01*
X10080Y5754D01*
X10073Y5747D01*
X10073Y5746D01*
X9881D01*
X9899Y5773D01*
X9912Y5836D01*
Y6137D01*
X9998D01*
X10061Y6149D01*
X10064Y6152D01*
X10142D01*
Y6227D01*
X10149Y6238D01*
X10161Y6300D01*
X10149Y6362D01*
X10142Y6373D01*
Y6448D01*
X10064D01*
X10061Y6451D01*
X9998Y6463D01*
X9352D01*
X9289Y6451D01*
X9286Y6448D01*
X8971D01*
X8948Y6453D01*
X6447D01*
X6622Y6628D01*
X6722Y6728D01*
Y6728D01*
X6722D01*
X6729Y6739D01*
X6744Y6761D01*
X6752Y6800D01*
Y6800D01*
D01*
X6752Y6997D01*
X7100D01*
X7159Y7009D01*
X7208Y7042D01*
X7241Y7091D01*
X7253Y7150D01*
X7241Y7209D01*
X7208Y7258D01*
X7159Y7291D01*
X7100Y7303D01*
X6691D01*
X6572Y7422D01*
X6572Y7422D01*
X6552Y7435D01*
X6539Y7444D01*
X6500Y7452D01*
X6500D01*
D01*
X5600D01*
X5561Y7444D01*
X5528Y7422D01*
X5378Y7272D01*
X5356Y7239D01*
X5348Y7200D01*
Y6758D01*
X5185D01*
Y6550D01*
Y6342D01*
X5441D01*
Y6364D01*
X5478Y6328D01*
X5511Y6306D01*
X5550Y6298D01*
X5587D01*
Y6189D01*
X5568Y6171D01*
X5551D01*
Y6172D01*
X5235D01*
Y6202D01*
X5077D01*
Y6000D01*
Y5798D01*
X5187D01*
Y5699D01*
X5093D01*
Y5323D01*
X4993D01*
Y5699D01*
X4844D01*
Y5669D01*
X4563D01*
Y5800D01*
X4551Y5862D01*
X4515Y5915D01*
X4436Y5995D01*
Y6550D01*
X4423Y6612D01*
X4401Y6645D01*
Y6974D01*
X4144D01*
Y6645D01*
X4122Y6612D01*
X4109Y6550D01*
Y5928D01*
X4122Y5865D01*
X4157Y5812D01*
X4237Y5732D01*
Y5669D01*
X3930D01*
Y5513D01*
X3568D01*
X3491Y5590D01*
Y6550D01*
X3478Y6612D01*
X3456Y6645D01*
Y6974D01*
X3199D01*
Y6645D01*
X3177Y6612D01*
X3164Y6550D01*
Y5522D01*
X3177Y5460D01*
X3212Y5407D01*
X3385Y5235D01*
X3438Y5199D01*
X3500Y5187D01*
X3930D01*
Y4978D01*
X3872Y4920D01*
X3579D01*
X3527Y4931D01*
X3002D01*
X2934Y4917D01*
X2876Y4879D01*
X2876Y4879D01*
X2874Y4876D01*
X2835Y4818D01*
X2822Y4750D01*
X2835Y4682D01*
X2860Y4645D01*
X2551D01*
X2552Y4650D01*
X2552Y4700D01*
Y4700D01*
Y4700D01*
X2549Y4716D01*
X2544Y4739D01*
X2544Y4739D01*
Y4739D01*
X2533Y4756D01*
X2522Y4772D01*
X2522D01*
Y4772D01*
X2519Y4775D01*
X2520Y4776D01*
X2872Y5128D01*
X2894Y5161D01*
X2902Y5200D01*
X2902Y5900D01*
X2894Y5939D01*
X2872Y5972D01*
X2672Y6172D01*
X2639Y6194D01*
X2600Y6202D01*
X1950D01*
X1911Y6194D01*
X1878Y6172D01*
X1628Y5922D01*
X1606Y5889D01*
X1598Y5850D01*
Y4996D01*
X1572Y5022D01*
X1539Y5044D01*
X1500Y5052D01*
X1000D01*
X961Y5044D01*
X928Y5022D01*
X678Y4772D01*
X656Y4739D01*
X648Y4700D01*
Y4250D01*
X656Y4211D01*
X678Y4178D01*
X878Y3978D01*
X911Y3956D01*
X950Y3948D01*
X1400D01*
X1439Y3956D01*
X1472Y3978D01*
X1818Y4324D01*
Y4186D01*
Y3989D01*
Y3793D01*
Y3596D01*
Y3399D01*
Y3253D01*
X1788D01*
Y3164D01*
X2113D01*
X2143Y3158D01*
Y3114D01*
X2193D01*
Y2975D01*
X2499D01*
Y3158D01*
X2589D01*
X2648Y3170D01*
X2697Y3203D01*
X2730Y3252D01*
X2742Y3311D01*
X2730Y3370D01*
X2705Y3407D01*
X2733Y3449D01*
X2745Y3508D01*
X2733Y3566D01*
X2708Y3604D01*
X2737Y3646D01*
X2748Y3705D01*
X2737Y3763D01*
X2713Y3799D01*
X2741Y3841D01*
X2750Y3884D01*
X2934Y3699D01*
X2984Y3666D01*
X3043Y3655D01*
X3182D01*
Y3639D01*
Y3324D01*
Y3009D01*
Y2694D01*
Y2380D01*
X3872D01*
X3930Y2322D01*
Y1631D01*
X4241D01*
Y1407D01*
X4248Y1371D01*
Y1112D01*
Y823D01*
X4262Y755D01*
X4301Y697D01*
X4358Y658D01*
X4427Y645D01*
X4495Y658D01*
X4553Y697D01*
X4592Y755D01*
X4605Y823D01*
Y1112D01*
Y1198D01*
X4723D01*
Y1400D01*
Y1602D01*
X4598D01*
Y1631D01*
X5159D01*
Y1602D01*
X5307D01*
Y1977D01*
X5407D01*
Y1602D01*
X5556D01*
Y1631D01*
X5834D01*
Y1463D01*
X5846Y1404D01*
X5848Y1402D01*
X5700D01*
X5661Y1394D01*
X5628Y1372D01*
X5378Y1122D01*
X5356Y1089D01*
X5348Y1050D01*
Y600D01*
X5356Y561D01*
X5378Y528D01*
X5628Y278D01*
X5661Y256D01*
X5700Y248D01*
X6650D01*
X6689Y256D01*
X6722Y278D01*
X6972Y528D01*
X6994Y561D01*
X7002Y600D01*
Y1050D01*
X6994Y1089D01*
X6972Y1122D01*
X6722Y1372D01*
X6689Y1394D01*
X6650Y1402D01*
X6445D01*
X6455Y1452D01*
Y1631D01*
X6470D01*
Y2163D01*
X6842Y1792D01*
X6891Y1759D01*
X6901Y1757D01*
X6950Y1747D01*
X7750D01*
X7809Y1759D01*
X7858Y1792D01*
X8208Y2142D01*
X8241Y2191D01*
X8252Y2247D01*
X8350D01*
X8409Y2259D01*
X8458Y2292D01*
X8513Y2347D01*
X9056D01*
X9051Y2345D01*
X8968Y2282D01*
X8905Y2199D01*
X8865Y2103D01*
X8858Y2050D01*
X9642D01*
X9635Y2103D01*
X9595Y2199D01*
X9532Y2282D01*
X9449Y2345D01*
X9444Y2347D01*
X10021D01*
X9954Y2296D01*
X9888Y2209D01*
X9846Y2108D01*
X9831Y2000D01*
X9846Y1892D01*
X9888Y1791D01*
X9954Y1704D01*
X10041Y1638D01*
X10142Y1596D01*
X10250Y1581D01*
X10358Y1596D01*
X10459Y1638D01*
X10546Y1704D01*
X10612Y1791D01*
X10654Y1892D01*
X10669Y2000D01*
X10654Y2108D01*
X10612Y2209D01*
X10546Y2296D01*
X10479Y2347D01*
X11871D01*
X11804Y2296D01*
X11738Y2209D01*
X11696Y2108D01*
X11681Y2000D01*
X11696Y1892D01*
X11738Y1791D01*
X11804Y1704D01*
X11891Y1638D01*
X11992Y1596D01*
X12100Y1581D01*
X12208Y1596D01*
X12309Y1638D01*
X12396Y1704D01*
X12462Y1791D01*
X12504Y1892D01*
X12519Y2000D01*
X12504Y2108D01*
X12462Y2209D01*
X12396Y2296D01*
X12329Y2347D01*
X12537D01*
X12719Y2165D01*
X12696Y2108D01*
X12681Y2000D01*
X12696Y1892D01*
X12738Y1791D01*
X12804Y1704D01*
X12891Y1638D01*
X12992Y1596D01*
X13100Y1581D01*
X13208Y1596D01*
X13309Y1638D01*
X13396Y1704D01*
X13462Y1791D01*
X13504Y1892D01*
X13519Y2000D01*
X13504Y2108D01*
X13462Y2209D01*
X13396Y2296D01*
X13309Y2362D01*
X13208Y2404D01*
X13100Y2419D01*
X12992Y2404D01*
X12935Y2381D01*
X12708Y2608D01*
X12659Y2641D01*
X12600Y2653D01*
X8450D01*
X8391Y2641D01*
X8342Y2608D01*
X8287Y2553D01*
X8255D01*
Y2638D01*
X8613Y2997D01*
X8678D01*
X8678Y2996D01*
X8692Y2977D01*
X8693Y2976D01*
X8726Y2926D01*
X8775Y2893D01*
X8779Y2892D01*
X8790Y2884D01*
X8816Y2873D01*
X8823Y2869D01*
X8830Y2867D01*
X8837Y2862D01*
X8846Y2860D01*
X8848Y2860D01*
X8865Y2853D01*
X8868Y2852D01*
X8868Y2854D01*
X8869Y2854D01*
X8871Y2854D01*
X8901Y2848D01*
X8908Y2849D01*
X8909Y2849D01*
X8912Y2850D01*
X8952Y2858D01*
X8995Y2887D01*
X9023Y2930D01*
X9028Y2955D01*
X9023Y2953D01*
X9003Y2960D01*
X8991Y2981D01*
Y3320D01*
X9021Y3349D01*
X9028Y3347D01*
X9023Y3370D01*
X8995Y3413D01*
X8952Y3442D01*
X8901Y3452D01*
X8868Y3446D01*
X8868Y3448D01*
X8865Y3447D01*
X8790Y3416D01*
X8727Y3368D01*
X8678Y3304D01*
X8678Y3303D01*
X8550D01*
X8491Y3291D01*
X8442Y3258D01*
X8255Y3071D01*
Y3150D01*
Y3347D01*
X8342D01*
X8401Y3359D01*
X8450Y3392D01*
X8454Y3396D01*
X8487Y3445D01*
X8499Y3504D01*
X8487Y3562D01*
X8454Y3612D01*
X8405Y3645D01*
X8346Y3657D01*
X8327Y3653D01*
X8102D01*
X8079Y3648D01*
X8053D01*
Y3900D01*
X8041Y3959D01*
X8008Y4008D01*
X7853Y4163D01*
Y4348D01*
X7909Y4359D01*
X7958Y4392D01*
X8263Y4697D01*
X8656D01*
X8647Y4650D01*
X8659Y4591D01*
X8692Y4542D01*
X8741Y4509D01*
X8800Y4497D01*
X8812Y4499D01*
X8842D01*
Y4424D01*
X8767D01*
X8762Y4427D01*
X8700Y4440D01*
X8638Y4427D01*
X8629Y4422D01*
X8535D01*
Y4452D01*
X8377D01*
Y4250D01*
Y4048D01*
X8510D01*
Y3823D01*
X8523Y3761D01*
X8558Y3708D01*
X8611Y3673D01*
X8673Y3660D01*
X8736Y3673D01*
X8789Y3708D01*
X8824Y3761D01*
X8836Y3823D01*
Y4078D01*
X8851D01*
Y4098D01*
X9118D01*
X9181Y4110D01*
X9234Y4146D01*
X9239Y4154D01*
X9365D01*
Y4321D01*
X9414D01*
Y4114D01*
X9552D01*
Y4064D01*
X9602D01*
Y3787D01*
X9698D01*
Y4064D01*
X9748D01*
Y4114D01*
X9886D01*
Y4321D01*
X9935D01*
Y4154D01*
X10168D01*
X10172Y4148D01*
X10225Y4113D01*
X10288Y4100D01*
X10448D01*
Y3977D01*
X10650D01*
X10852D01*
Y4110D01*
X11123D01*
X11186Y4123D01*
X11239Y4158D01*
X11274Y4211D01*
X11286Y4273D01*
X11274Y4336D01*
X11239Y4389D01*
X11186Y4424D01*
X11123Y4436D01*
X10822D01*
Y4451D01*
X10478D01*
Y4426D01*
X10458D01*
Y4499D01*
X10488D01*
X10500Y4497D01*
X10559Y4509D01*
X10608Y4542D01*
X10641Y4591D01*
X10653Y4650D01*
X10641Y4709D01*
X10614Y4750D01*
X10641Y4791D01*
X10653Y4850D01*
X10641Y4909D01*
X10614Y4950D01*
X10641Y4991D01*
X10653Y5050D01*
X10641Y5109D01*
X10614Y5150D01*
X10641Y5191D01*
X10653Y5250D01*
X10645Y5289D01*
X10679D01*
X10955Y5013D01*
X11005Y4980D01*
X11063Y4968D01*
X11666D01*
X12152Y4482D01*
Y4302D01*
X12163Y4243D01*
X12177Y4223D01*
X12157Y4237D01*
X12098Y4248D01*
X11624D01*
X11600Y4253D01*
X11541Y4241D01*
X11492Y4208D01*
X11459Y4159D01*
X11447Y4100D01*
X11459Y4041D01*
X11492Y3992D01*
X11497Y3987D01*
X11545Y3955D01*
X11535Y3945D01*
X11499Y3892D01*
X11487Y3830D01*
Y3802D01*
X11127D01*
X11058Y3788D01*
X11001Y3749D01*
X10962Y3692D01*
X10948Y3623D01*
X10962Y3555D01*
X11001Y3497D01*
X11058Y3458D01*
X11127Y3445D01*
X11448D01*
Y3327D01*
X11650D01*
X11852D01*
Y3373D01*
X11888Y3349D01*
X11950Y3337D01*
X12049D01*
X12068Y3341D01*
X12097D01*
X12160Y3353D01*
X12196Y3377D01*
Y3159D01*
X12742D01*
Y3105D01*
X12754Y3046D01*
X12787Y2997D01*
X12837Y2963D01*
X12895Y2952D01*
X12954Y2963D01*
X13003Y2997D01*
X13037Y3046D01*
X13048Y3105D01*
Y3298D01*
X13037Y3357D01*
X13030Y3366D01*
X13052D01*
Y3455D01*
X12933D01*
Y3443D01*
X12895Y3451D01*
X12837Y3439D01*
X12833Y3437D01*
X12245D01*
X12249Y3442D01*
X12261Y3505D01*
X12249Y3567D01*
X12237Y3585D01*
Y3593D01*
Y3735D01*
X12798D01*
X12861Y3748D01*
X12914Y3783D01*
X12933Y3803D01*
Y3759D01*
X12936D01*
X12924Y3701D01*
X12936Y3644D01*
X12933D01*
Y3555D01*
X13006D01*
X13034Y3536D01*
X13102Y3523D01*
Y3505D01*
X13152D01*
Y3366D01*
X13271D01*
Y3522D01*
X13559D01*
Y3522D01*
X14111D01*
Y3878D01*
X13841D01*
X13834Y3879D01*
X13271D01*
Y3942D01*
X13295D01*
X13354Y3954D01*
X13403Y3987D01*
X13437Y4037D01*
X13448Y4095D01*
X13437Y4154D01*
X13403Y4203D01*
X13354Y4237D01*
X13295Y4248D01*
X13102D01*
X13059Y4240D01*
Y4301D01*
X13047Y4363D01*
X13012Y4416D01*
X13011Y4417D01*
X13004Y4422D01*
Y4441D01*
X12976D01*
X12958Y4453D01*
X12895Y4465D01*
X12833Y4453D01*
X12815Y4441D01*
X12655D01*
Y4498D01*
X12643Y4557D01*
X12610Y4607D01*
X12560Y4640D01*
X12502Y4651D01*
X12443Y4640D01*
X12429Y4630D01*
X12413Y4653D01*
X11837Y5229D01*
X11787Y5262D01*
X11729Y5274D01*
X11127D01*
X10958Y5442D01*
X11121Y5605D01*
X11772D01*
X11831Y5617D01*
X11864Y5639D01*
X11909D01*
Y5513D01*
X12058D01*
Y5463D01*
X12108D01*
Y5225D01*
X12207D01*
Y5255D01*
X13161D01*
Y5639D01*
X13545D01*
Y5792D01*
X13578D01*
X13635Y5735D01*
X13635Y5732D01*
X13674Y5674D01*
X13732Y5635D01*
X13800Y5622D01*
X13814D01*
Y5327D01*
X13826Y5264D01*
X13861Y5211D01*
X13914Y5176D01*
X13977Y5164D01*
X14039Y5176D01*
X14092Y5211D01*
X14127Y5264D01*
X14140Y5327D01*
Y5598D01*
X14273D01*
Y5800D01*
Y6002D01*
X14115D01*
Y5972D01*
X14009D01*
X13977Y5978D01*
X13852D01*
X13761Y6070D01*
X13708Y6105D01*
X13645Y6118D01*
X13575D01*
Y6196D01*
X13799D01*
Y6178D01*
X14115D01*
Y6148D01*
X14273D01*
Y6350D01*
Y6552D01*
X14115D01*
Y6522D01*
X13799D01*
Y6502D01*
X13575D01*
Y6589D01*
X13592D01*
X13651Y6601D01*
X13700Y6634D01*
X13733Y6684D01*
X13745Y6742D01*
X13733Y6801D01*
X13700Y6850D01*
X13651Y6883D01*
X13592Y6895D01*
X13328D01*
X13269Y6883D01*
X13236Y6861D01*
X13161D01*
Y6906D01*
X13168Y6911D01*
X13207Y6969D01*
X13221Y7037D01*
Y7198D01*
X13323D01*
Y7400D01*
Y7602D01*
D02*
G37*
G36*
X13581D02*
X13423D01*
Y7450D01*
X13581D01*
Y7602D01*
D02*
G37*
G36*
Y7350D02*
X13423D01*
Y7198D01*
X13581D01*
Y7350D01*
D02*
G37*
G36*
X17527Y7302D02*
X17369D01*
Y7150D01*
X17527D01*
Y7302D01*
D02*
G37*
G36*
X18470Y7833D02*
X15180D01*
X15121Y7821D01*
X15072Y7788D01*
X14622Y7338D01*
X14589Y7289D01*
X14577Y7230D01*
Y6550D01*
X14589Y6491D01*
X14622Y6442D01*
X14671Y6409D01*
X14730Y6397D01*
X14789Y6409D01*
X14838Y6442D01*
X14871Y6491D01*
X14883Y6550D01*
Y7167D01*
X15243Y7527D01*
X17753D01*
X17705Y7479D01*
Y7479D01*
X17705D01*
X17697Y7468D01*
X17683Y7446D01*
X17675Y7407D01*
D01*
Y7407D01*
X17675Y7302D01*
X17627D01*
Y7100D01*
X17577D01*
Y7050D01*
X17369D01*
Y7003D01*
X17113D01*
X16958Y7158D01*
X16909Y7191D01*
X16850Y7203D01*
X15720D01*
X15671Y7193D01*
X15661Y7191D01*
X15612Y7158D01*
X14622Y6168D01*
X14589Y6119D01*
X14577Y6060D01*
X14589Y6001D01*
X14622Y5952D01*
X14671Y5919D01*
X14730Y5907D01*
X14789Y5919D01*
X14838Y5952D01*
X15783Y6897D01*
X15796D01*
Y6776D01*
X15780D01*
Y6124D01*
X16990D01*
Y6710D01*
X16991Y6709D01*
X17049Y6697D01*
Y6500D01*
X17251D01*
X17453D01*
Y6697D01*
X17501D01*
Y6480D01*
X17510Y6434D01*
Y6126D01*
X17512Y6124D01*
X19588D01*
Y6340D01*
X19590Y6342D01*
X19624Y6391D01*
X19635Y6450D01*
X19624Y6509D01*
X19590Y6558D01*
X19588Y6560D01*
Y6776D01*
X19553D01*
Y6850D01*
X19551Y6861D01*
Y6912D01*
X19539D01*
X19508Y6958D01*
X19459Y6991D01*
X19413Y7000D01*
X19400Y7013D01*
X19394Y7007D01*
X18918D01*
X18941Y7041D01*
X18943Y7051D01*
X18953Y7100D01*
Y7350D01*
X18943Y7399D01*
X18941Y7409D01*
X18908Y7458D01*
X18578Y7788D01*
X18529Y7821D01*
X18470Y7833D01*
D02*
G37*
G36*
X26772Y7435D02*
X26682Y7423D01*
X26598Y7388D01*
X26525Y7333D01*
X26470Y7261D01*
X26435Y7177D01*
X26423Y7087D01*
X26435Y6996D01*
X26470Y6912D01*
X26525Y6840D01*
X26598Y6785D01*
X26682Y6750D01*
X26772Y6738D01*
X26862Y6750D01*
X26946Y6785D01*
X27018Y6840D01*
X27073Y6912D01*
X27108Y6996D01*
X27120Y7087D01*
X27108Y7177D01*
X27073Y7261D01*
X27018Y7333D01*
X26946Y7388D01*
X26862Y7423D01*
X26772Y7435D01*
D02*
G37*
G36*
X787D02*
X697Y7423D01*
X613Y7388D01*
X541Y7333D01*
X486Y7261D01*
X451Y7177D01*
X439Y7087D01*
X451Y6996D01*
X486Y6912D01*
X541Y6840D01*
X613Y6785D01*
X697Y6750D01*
X787Y6738D01*
X878Y6750D01*
X962Y6785D01*
X1034Y6840D01*
X1089Y6912D01*
X1124Y6996D01*
X1136Y7087D01*
X1124Y7177D01*
X1089Y7261D01*
X1034Y7333D01*
X962Y7388D01*
X878Y7423D01*
X787Y7435D01*
D02*
G37*
G36*
X3959Y7004D02*
X3850D01*
Y6600D01*
X3959D01*
Y7004D01*
D02*
G37*
G36*
X10950Y6752D02*
X10792D01*
Y6600D01*
X10950D01*
Y6752D01*
D02*
G37*
G36*
X3750Y7004D02*
X3641D01*
Y6600D01*
X3750D01*
Y7004D01*
D02*
G37*
G36*
X5085Y6758D02*
X4829D01*
Y6600D01*
X5085D01*
Y6758D01*
D02*
G37*
G36*
X26211Y7133D02*
X25000D01*
Y6512D01*
X26211D01*
Y7133D01*
D02*
G37*
G36*
X24900D02*
X23689D01*
Y6512D01*
X24900D01*
Y7133D01*
D02*
G37*
G36*
X14531Y6552D02*
X14373D01*
Y6400D01*
X14531D01*
Y6552D01*
D02*
G37*
G36*
X10575Y6478D02*
X10452D01*
Y6350D01*
X10575D01*
Y6478D01*
D02*
G37*
G36*
X10352D02*
X10228D01*
Y6350D01*
X10352D01*
Y6478D01*
D02*
G37*
G36*
X10950Y6500D02*
X10792D01*
Y6348D01*
X10950D01*
Y6500D01*
D02*
G37*
G36*
X5085D02*
X4829D01*
Y6342D01*
X5085D01*
Y6500D01*
D02*
G37*
G36*
X14531Y6300D02*
X14373D01*
Y6148D01*
X14531D01*
Y6300D01*
D02*
G37*
G36*
X10575Y6250D02*
X10452D01*
Y6122D01*
X10575D01*
Y6250D01*
D02*
G37*
G36*
X10352D02*
X10228D01*
Y6122D01*
X10352D01*
Y6250D01*
D02*
G37*
G36*
X3959Y6500D02*
X3850D01*
Y6096D01*
X3959D01*
Y6500D01*
D02*
G37*
G36*
X3750D02*
X3641D01*
Y6096D01*
X3750D01*
Y6500D01*
D02*
G37*
G36*
X17453Y6400D02*
X17301D01*
Y6094D01*
X17453D01*
Y6400D01*
D02*
G37*
G36*
X17201D02*
X17049D01*
Y6094D01*
X17201D01*
Y6400D01*
D02*
G37*
G36*
X4977Y6202D02*
X4819D01*
Y6050D01*
X4977D01*
Y6202D01*
D02*
G37*
G36*
X1416Y6324D02*
X953D01*
Y5979D01*
X1416D01*
Y6324D01*
D02*
G37*
G36*
X853D02*
X390D01*
Y5979D01*
X853D01*
Y6324D01*
D02*
G37*
G36*
X14531Y6002D02*
X14373D01*
Y5850D01*
X14531D01*
Y6002D01*
D02*
G37*
G36*
X4977Y5950D02*
X4819D01*
Y5798D01*
X4977D01*
Y5950D01*
D02*
G37*
G36*
X26211Y6412D02*
X25000D01*
Y5792D01*
X26211D01*
Y6412D01*
D02*
G37*
G36*
X24900D02*
X23689D01*
Y5792D01*
X24900D01*
Y6412D01*
D02*
G37*
G36*
X22063Y6215D02*
X21817D01*
Y5713D01*
X22063D01*
Y6215D01*
D02*
G37*
G36*
X15705D02*
X15458D01*
Y5713D01*
X15705D01*
Y6215D01*
D02*
G37*
G36*
X21717D02*
X21470D01*
Y5713D01*
X21717D01*
Y6215D01*
D02*
G37*
G36*
X15358D02*
X15112D01*
Y5713D01*
X15358D01*
Y6215D01*
D02*
G37*
G36*
X14531Y5750D02*
X14373D01*
Y5598D01*
X14531D01*
Y5750D01*
D02*
G37*
G36*
X1416Y5879D02*
X953D01*
Y5534D01*
X1416D01*
Y5879D01*
D02*
G37*
G36*
X853D02*
X390D01*
Y5534D01*
X853D01*
Y5879D01*
D02*
G37*
G36*
X12008Y5413D02*
X11909D01*
Y5225D01*
X12008D01*
Y5413D01*
D02*
G37*
G36*
X22063Y5613D02*
X21817D01*
Y5110D01*
X22063D01*
Y5613D01*
D02*
G37*
G36*
X21717D02*
X21470D01*
Y5110D01*
X21717D01*
Y5613D01*
D02*
G37*
G36*
X15705D02*
X15458D01*
Y5110D01*
X15705D01*
Y5613D01*
D02*
G37*
G36*
X15358D02*
X15112D01*
Y5110D01*
X15358D01*
Y5613D01*
D02*
G37*
G36*
X8277Y4452D02*
X8119D01*
Y4300D01*
X8277D01*
Y4452D01*
D02*
G37*
G36*
Y4200D02*
X8119D01*
Y4048D01*
X8277D01*
Y4200D01*
D02*
G37*
G36*
X9886Y4014D02*
X9798D01*
Y3787D01*
X9886D01*
Y4014D01*
D02*
G37*
G36*
X9502Y4014D02*
X9414D01*
Y3787D01*
X9502D01*
Y4014D01*
D02*
G37*
G36*
X14771Y3908D02*
X14515D01*
Y3750D01*
X14771D01*
Y3908D01*
D02*
G37*
G36*
X14415D02*
X14159D01*
Y3750D01*
X14415D01*
Y3908D01*
D02*
G37*
G36*
X10852Y3877D02*
X10700D01*
Y3719D01*
X10852D01*
Y3877D01*
D02*
G37*
G36*
X10600D02*
X10448D01*
Y3719D01*
X10600D01*
Y3877D01*
D02*
G37*
G36*
X14771Y3650D02*
X14515D01*
Y3492D01*
X14771D01*
Y3650D01*
D02*
G37*
G36*
X14415D02*
X14159D01*
Y3492D01*
X14415D01*
Y3650D01*
D02*
G37*
G36*
X9154Y3247D02*
X9166Y3226D01*
X9174Y3200D01*
X9194D01*
X9170Y3236D01*
X9154Y3247D01*
D02*
G37*
G36*
X11852Y3227D02*
X11700D01*
Y3069D01*
X11852D01*
Y3227D01*
D02*
G37*
G36*
X11600D02*
X11448D01*
Y3069D01*
X11600D01*
Y3227D01*
D02*
G37*
G36*
X9194Y3100D02*
X9174D01*
X9165Y3074D01*
X9151Y3051D01*
X9170Y3064D01*
X9194Y3100D01*
D02*
G37*
G36*
X2093Y3064D02*
X1788D01*
Y2975D01*
X2093D01*
Y3064D01*
D02*
G37*
G36*
X22063Y2672D02*
X21817D01*
Y2169D01*
X22063D01*
Y2672D01*
D02*
G37*
G36*
X15705D02*
X15458D01*
Y2169D01*
X15705D01*
Y2672D01*
D02*
G37*
G36*
X21717D02*
X21470D01*
Y2169D01*
X21717D01*
Y2672D01*
D02*
G37*
G36*
X15358D02*
X15112D01*
Y2169D01*
X15358D01*
Y2672D01*
D02*
G37*
G36*
X1416Y2466D02*
X953D01*
Y2121D01*
X1416D01*
Y2466D01*
D02*
G37*
G36*
X853D02*
X390D01*
Y2121D01*
X853D01*
Y2466D01*
D02*
G37*
G36*
X1416Y2021D02*
X953D01*
Y1676D01*
X1416D01*
Y2021D01*
D02*
G37*
G36*
X853D02*
X390D01*
Y1676D01*
X853D01*
Y2021D01*
D02*
G37*
G36*
X19849Y2243D02*
X19774Y2234D01*
X19704Y2205D01*
X19645Y2159D01*
X19599Y2099D01*
X19570Y2029D01*
X19560Y1954D01*
X19570Y1879D01*
X19599Y1809D01*
X19645Y1749D01*
X19704Y1703D01*
X19774Y1674D01*
X19849Y1664D01*
X19924Y1674D01*
X19994Y1703D01*
X20054Y1749D01*
X20100Y1809D01*
X20129Y1879D01*
X20139Y1954D01*
X20129Y2029D01*
X20100Y2099D01*
X20054Y2159D01*
X19994Y2205D01*
X19924Y2234D01*
X19849Y2243D01*
D02*
G37*
G36*
X17251D02*
X17176Y2234D01*
X17106Y2205D01*
X17046Y2159D01*
X17000Y2099D01*
X16971Y2029D01*
X16961Y1954D01*
X16971Y1879D01*
X17000Y1809D01*
X17046Y1749D01*
X17106Y1703D01*
X17176Y1674D01*
X17251Y1664D01*
X17326Y1674D01*
X17396Y1703D01*
X17455Y1749D01*
X17501Y1809D01*
X17530Y1879D01*
X17540Y1954D01*
X17530Y2029D01*
X17501Y2099D01*
X17455Y2159D01*
X17396Y2205D01*
X17326Y2234D01*
X17251Y2243D01*
D02*
G37*
G36*
X8558Y1871D02*
X8400D01*
Y1615D01*
X8558D01*
Y1871D01*
D02*
G37*
G36*
X8300D02*
X8142D01*
Y1615D01*
X8300D01*
Y1871D01*
D02*
G37*
G36*
X9642Y1950D02*
X9300D01*
Y1608D01*
X9353Y1615D01*
X9449Y1655D01*
X9532Y1718D01*
X9595Y1801D01*
X9635Y1897D01*
X9642Y1950D01*
D02*
G37*
G36*
X9200D02*
X8858D01*
X8865Y1897D01*
X8905Y1801D01*
X8968Y1718D01*
X9051Y1655D01*
X9147Y1615D01*
X9200Y1608D01*
Y1950D01*
D02*
G37*
G36*
X22063Y2069D02*
X21817D01*
Y1567D01*
X22063D01*
Y2069D01*
D02*
G37*
G36*
X21717D02*
X21470D01*
Y1567D01*
X21717D01*
Y2069D01*
D02*
G37*
G36*
X15705D02*
X15458D01*
Y1567D01*
X15705D01*
Y2069D01*
D02*
G37*
G36*
X15358D02*
X15112D01*
Y1567D01*
X15358D01*
Y2069D01*
D02*
G37*
G36*
X4981Y1602D02*
X4823D01*
Y1450D01*
X4981D01*
Y1602D01*
D02*
G37*
G36*
X8350Y1565D02*
D01*
Y1515D01*
X8142D01*
Y1332D01*
X8128Y1322D01*
X8052Y1246D01*
Y1381D01*
X7900D01*
Y1173D01*
X7800D01*
Y1381D01*
X7648D01*
Y1146D01*
X7572Y1222D01*
X7539Y1244D01*
X7500Y1252D01*
X7250D01*
X7211Y1244D01*
X7178Y1222D01*
X7078Y1122D01*
X7056Y1089D01*
X7048Y1050D01*
Y700D01*
X7056Y661D01*
X7078Y628D01*
X7178Y528D01*
X7211Y506D01*
X7250Y498D01*
X9500D01*
X9539Y506D01*
X9572Y528D01*
X9629Y585D01*
X9665D01*
Y621D01*
X9772Y728D01*
X9794Y761D01*
X9802Y800D01*
Y1200D01*
X9794Y1239D01*
X9772Y1272D01*
X9665Y1379D01*
Y1415D01*
X9629D01*
X9522Y1522D01*
X9489Y1544D01*
X9450Y1552D01*
X8900D01*
X8861Y1544D01*
X8828Y1522D01*
X8658Y1352D01*
X8558D01*
Y1515D01*
X8350D01*
Y1565D01*
D02*
G37*
G36*
X4981Y1350D02*
X4823D01*
Y1198D01*
X4981D01*
Y1350D01*
D02*
G37*
G36*
X12515Y1415D02*
X11685D01*
Y585D01*
X12515D01*
Y1415D01*
D02*
G37*
G36*
X13100Y1419D02*
X12992Y1404D01*
X12891Y1362D01*
X12804Y1296D01*
X12738Y1209D01*
X12696Y1108D01*
X12681Y1000D01*
X12696Y892D01*
X12738Y791D01*
X12804Y704D01*
X12891Y638D01*
X12992Y596D01*
X13100Y581D01*
X13208Y596D01*
X13309Y638D01*
X13396Y704D01*
X13462Y791D01*
X13504Y892D01*
X13519Y1000D01*
X13504Y1108D01*
X13462Y1209D01*
X13396Y1296D01*
X13309Y1362D01*
X13208Y1404D01*
X13100Y1419D01*
D02*
G37*
G36*
X10250D02*
X10142Y1404D01*
X10041Y1362D01*
X9954Y1296D01*
X9888Y1209D01*
X9846Y1108D01*
X9831Y1000D01*
X9846Y892D01*
X9888Y791D01*
X9954Y704D01*
X10041Y638D01*
X10142Y596D01*
X10250Y581D01*
X10358Y596D01*
X10459Y638D01*
X10546Y704D01*
X10612Y791D01*
X10654Y892D01*
X10669Y1000D01*
X10654Y1108D01*
X10612Y1209D01*
X10546Y1296D01*
X10459Y1362D01*
X10358Y1404D01*
X10250Y1419D01*
D02*
G37*
G36*
X26772Y1136D02*
X26682Y1124D01*
X26598Y1089D01*
X26525Y1034D01*
X26470Y962D01*
X26435Y878D01*
X26423Y787D01*
X26435Y697D01*
X26470Y613D01*
X26525Y541D01*
X26598Y486D01*
X26682Y451D01*
X26772Y439D01*
X26862Y451D01*
X26946Y486D01*
X27018Y541D01*
X27073Y613D01*
X27108Y697D01*
X27120Y787D01*
X27108Y878D01*
X27073Y962D01*
X27018Y1034D01*
X26946Y1089D01*
X26862Y1124D01*
X26772Y1136D01*
D02*
G37*
G36*
X787D02*
X697Y1124D01*
X613Y1089D01*
X541Y1034D01*
X486Y962D01*
X451Y878D01*
X439Y787D01*
X451Y697D01*
X486Y613D01*
X541Y541D01*
X613Y486D01*
X697Y451D01*
X787Y439D01*
X878Y451D01*
X962Y486D01*
X1034Y541D01*
X1089Y613D01*
X1124Y697D01*
X1136Y787D01*
X1124Y878D01*
X1089Y962D01*
X1034Y1034D01*
X962Y1089D01*
X878Y1124D01*
X787Y1136D01*
D02*
G37*
G36*
X23950Y2602D02*
X23911Y2594D01*
X23878Y2572D01*
X23528Y2222D01*
X23506Y2189D01*
X23498Y2150D01*
X23498Y1016D01*
X23506Y977D01*
X23528Y944D01*
X24028Y444D01*
X24061Y421D01*
X24100Y414D01*
X25671Y414D01*
X25688Y417D01*
X25704Y419D01*
X25707Y421D01*
X25710Y421D01*
X25724Y431D01*
X25739Y439D01*
X26317Y945D01*
X26319Y948D01*
X26322Y950D01*
X26331Y964D01*
X26341Y977D01*
X26342Y980D01*
X26344Y983D01*
X26347Y999D01*
X26352Y1015D01*
X26351Y1019D01*
X26352Y1022D01*
X26352Y2200D01*
Y2200D01*
Y2200D01*
X26344Y2239D01*
X26326Y2266D01*
X26322Y2272D01*
X26322D01*
Y2272D01*
X26022Y2572D01*
X26006Y2583D01*
X25989Y2594D01*
X25989D01*
X25989Y2594D01*
X25966Y2599D01*
X25950Y2602D01*
X23950Y2602D01*
D02*
G37*
%LPD*%
G36*
X6650Y7200D02*
X6650Y6800D01*
X6550Y6700D01*
X6250Y6400D01*
X5550D01*
X5450Y6500D01*
Y7200D01*
X5600Y7350D01*
X6500D01*
X6650Y7200D01*
D02*
G37*
G36*
X9289Y6149D02*
X9352Y6137D01*
X9376Y6113D01*
X9414D01*
Y5886D01*
X9552D01*
Y5786D01*
X9414D01*
Y5746D01*
X9227D01*
X9227Y5747D01*
X9220Y5754D01*
X9170Y5787D01*
X9111Y5799D01*
X8825D01*
X8805Y5803D01*
X8200D01*
X8151Y5793D01*
X8141Y5791D01*
X8092Y5758D01*
X7687Y5353D01*
X7300D01*
X7241Y5341D01*
X7192Y5308D01*
X7159Y5259D01*
X7147Y5200D01*
X7159Y5141D01*
X7192Y5092D01*
X7241Y5059D01*
X7300Y5047D01*
X7384D01*
X7359Y5009D01*
X7347Y4950D01*
Y4895D01*
X7298Y4905D01*
X7218D01*
Y4920D01*
X6528D01*
Y4920D01*
X6528Y4920D01*
X6528D01*
X6470Y4978D01*
Y5669D01*
X6455D01*
Y5798D01*
X6444Y5856D01*
X6413Y5902D01*
Y6147D01*
X8948D01*
X8971Y6152D01*
X9286D01*
X9289Y6149D01*
D02*
G37*
G36*
X2800Y5900D02*
X2800Y5200D01*
X2448Y4848D01*
X1802D01*
X1700Y4950D01*
Y5850D01*
X1950Y6100D01*
X2600D01*
X2800Y5900D01*
D02*
G37*
G36*
X1700Y4750D02*
X1782D01*
X1802Y4746D01*
X2404D01*
X2450Y4700D01*
X2450Y4650D01*
X2445Y4645D01*
X2143D01*
X2085Y4633D01*
X2037Y4601D01*
X1818D01*
Y4600D01*
X1800D01*
X1750Y4550D01*
Y4400D01*
X1400Y4050D01*
X950D01*
X750Y4250D01*
Y4700D01*
X1000Y4950D01*
X1500D01*
X1700Y4750D01*
D02*
G37*
G36*
X8919Y3340D02*
X8931Y3319D01*
Y2980D01*
X8901Y2951D01*
X8854Y2966D01*
X8829Y2983D01*
X8800Y3012D01*
X8779Y3035D01*
X8756Y3074D01*
X8745Y3111D01*
X8747Y3198D01*
X8757Y3226D01*
X8790Y3280D01*
X8823Y3312D01*
X8859Y3335D01*
X8899Y3347D01*
X8919Y3340D01*
D02*
G37*
G36*
X6900Y1050D02*
Y600D01*
X6650Y350D01*
X5700D01*
X5450Y600D01*
Y1050D01*
X5700Y1300D01*
X6650D01*
X6900Y1050D01*
D02*
G37*
G36*
X18477Y7393D02*
Y7050D01*
X18377Y6950D01*
X17827D01*
X17777Y7000D01*
X17777Y7407D01*
X17860Y7490D01*
X18380D01*
X18477Y7393D01*
D02*
G37*
G36*
X9700Y1200D02*
Y800D01*
X9500Y600D01*
X7250D01*
X7150Y700D01*
Y1050D01*
X7250Y1150D01*
X7500D01*
X7650Y1000D01*
X7678D01*
Y995D01*
X8022D01*
Y1000D01*
X8050D01*
X8100Y1050D01*
Y1150D01*
X8200Y1250D01*
X8700D01*
X8900Y1450D01*
X9450D01*
X9700Y1200D01*
D02*
G37*
G36*
X25950Y2500D02*
X26250Y2200D01*
X26250Y1022D01*
X25671Y516D01*
X24100Y516D01*
X23600Y1016D01*
X23600Y2150D01*
X23950Y2500D01*
X25950Y2500D01*
D02*
G37*
D15*
X9150Y3181D02*
G03*
X9021Y3320I-172J-31D01*
G01*
X9150Y3119D02*
G03*
X9150Y3181I-172J31D01*
G01*
X9021Y2980D02*
G03*
X9150Y3119I-44J170D01*
G01*
X8901Y3320D02*
G03*
X8769Y3150I44J-170D01*
G01*
D02*
G03*
X8809Y3039I175J0D01*
G01*
X8888Y2984D02*
G03*
X8901Y2980I56J166D01*
G01*
X8809Y3039D02*
G03*
X8888Y2984I136J111D01*
G01*
X27559Y0D02*
Y7874D01*
X0Y0D02*
Y7874D01*
Y0D02*
X27559D01*
X0Y7874D02*
X27559D01*
D16*
X8948Y6300D02*
D03*
X9352D02*
D03*
X9998D02*
D03*
X10402D02*
D03*
X8102Y2400D02*
D03*
X7698D02*
D03*
X8102Y3150D02*
D03*
X7698D02*
D03*
X8102Y3500D02*
D03*
X7698D02*
D03*
D17*
X12305Y4302D02*
D03*
X12502D02*
D03*
X12698D02*
D03*
X12895D02*
D03*
Y3298D02*
D03*
X12698D02*
D03*
X12502D02*
D03*
X12305D02*
D03*
D18*
X13102Y4095D02*
D03*
Y3898D02*
D03*
Y3702D02*
D03*
Y3505D02*
D03*
X12098D02*
D03*
Y3702D02*
D03*
Y3898D02*
D03*
Y4095D02*
D03*
D19*
X6302Y5323D02*
D03*
X5987D02*
D03*
X5672D02*
D03*
X5357D02*
D03*
X5043D02*
D03*
X4728D02*
D03*
X4413D02*
D03*
X4098D02*
D03*
Y1977D02*
D03*
X4413D02*
D03*
X4728D02*
D03*
X5043D02*
D03*
X5357D02*
D03*
X5672D02*
D03*
X5987D02*
D03*
X6302D02*
D03*
D20*
X3527Y4752D02*
D03*
Y4437D02*
D03*
Y4122D02*
D03*
Y3807D02*
D03*
Y3493D02*
D03*
Y3178D02*
D03*
Y2863D02*
D03*
Y2548D02*
D03*
X6873D02*
D03*
Y2863D02*
D03*
Y3178D02*
D03*
Y3493D02*
D03*
Y3807D02*
D03*
Y4122D02*
D03*
Y4437D02*
D03*
Y4752D02*
D03*
D21*
X14465Y3700D02*
D03*
X13835D02*
D03*
X5135Y6550D02*
D03*
X5765D02*
D03*
D22*
X24950Y1738D02*
D03*
Y6462D02*
D03*
D23*
X17577Y7100D02*
D03*
X17923D02*
D03*
X14323Y5800D02*
D03*
X13977D02*
D03*
X14323Y6350D02*
D03*
X13977D02*
D03*
X13373Y7400D02*
D03*
X13027D02*
D03*
X11000Y6550D02*
D03*
X11346D02*
D03*
X8327Y4250D02*
D03*
X8673D02*
D03*
X5373Y6000D02*
D03*
X5027D02*
D03*
X4427Y1400D02*
D03*
X4773D02*
D03*
D24*
X21767Y5663D02*
D03*
Y2119D02*
D03*
X15408D02*
D03*
Y5663D02*
D03*
D25*
X15952Y6450D02*
D03*
X16385D02*
D03*
X16818D02*
D03*
X17251D02*
D03*
X17684D02*
D03*
X18117D02*
D03*
X18550D02*
D03*
X18983D02*
D03*
X19416D02*
D03*
D26*
X10650Y3927D02*
D03*
Y4273D02*
D03*
X7850Y827D02*
D03*
Y1173D02*
D03*
X11650Y3623D02*
D03*
Y3277D02*
D03*
D27*
X9748Y4064D02*
D03*
Y5836D02*
D03*
X9552D02*
D03*
Y4064D02*
D03*
D28*
X10181Y4261D02*
D03*
Y4458D02*
D03*
Y4655D02*
D03*
Y4852D02*
D03*
Y5048D02*
D03*
Y5245D02*
D03*
Y5442D02*
D03*
Y5639D02*
D03*
X9118D02*
D03*
Y5442D02*
D03*
Y5245D02*
D03*
Y5048D02*
D03*
Y4852D02*
D03*
Y4655D02*
D03*
Y4458D02*
D03*
Y4261D02*
D03*
D29*
X9650Y4950D02*
D03*
D30*
X4272Y6550D02*
D03*
X3800D02*
D03*
X3328D02*
D03*
D31*
X2143Y4886D02*
D03*
Y4689D02*
D03*
Y4492D02*
D03*
Y4295D02*
D03*
Y4098D02*
D03*
Y3902D02*
D03*
Y3705D02*
D03*
Y3508D02*
D03*
Y3311D02*
D03*
Y3114D02*
D03*
D32*
X903Y5929D02*
D03*
Y2071D02*
D03*
D33*
X8350Y1565D02*
D03*
Y935D02*
D03*
D34*
X7385Y900D02*
D03*
X6715D02*
D03*
D35*
X12058Y5463D02*
D03*
X12255D02*
D03*
X12452D02*
D03*
X12648D02*
D03*
X12845D02*
D03*
X13042D02*
D03*
Y7037D02*
D03*
X12845D02*
D03*
X12648D02*
D03*
X12452D02*
D03*
X12255D02*
D03*
X12058D02*
D03*
D36*
X13328Y5758D02*
D03*
Y5955D02*
D03*
Y6152D02*
D03*
Y6348D02*
D03*
Y6545D02*
D03*
Y6742D02*
D03*
X11772D02*
D03*
Y6545D02*
D03*
Y6348D02*
D03*
Y6152D02*
D03*
Y5955D02*
D03*
Y5758D02*
D03*
D37*
X12550Y6250D02*
D03*
D67*
X8350Y5200D02*
D03*
X7300D02*
D03*
X11400Y7400D02*
D03*
X7100Y7150D02*
D03*
D68*
X8838Y3150D02*
D03*
X9084D02*
D03*
D69*
X9150Y3181D02*
Y3450D01*
Y3119D02*
Y3181D01*
Y3050D02*
Y3119D01*
Y3050D02*
X9200Y3000D01*
X1650Y3050D02*
X2500D01*
D70*
X6302Y5323D02*
Y5798D01*
X18470Y7680D02*
X18800Y7350D01*
X15180Y7680D02*
X18470D01*
X14730Y7230D02*
X15180Y7680D01*
X14730Y6550D02*
Y7230D01*
X15720Y7050D02*
X16850D01*
X14730Y6060D02*
X15720Y7050D01*
X16804Y6464D02*
Y6846D01*
X16800Y6850D02*
X16804Y6846D01*
X7725Y5175D02*
X8200Y5650D01*
X7500Y4950D02*
X7725Y5175D01*
X7300Y5200D02*
X7700D01*
X7725Y5175D01*
X8000Y5200D02*
X8250Y5450D01*
X8000Y5200D02*
X8350D01*
X7700Y4900D02*
X8000Y5200D01*
X11063Y5121D02*
X11729D01*
X10742Y5442D02*
X11063Y5121D01*
X12305Y4302D02*
Y4545D01*
X11729Y5121D02*
X12305Y4545D01*
X10181Y5639D02*
X10189Y5646D01*
X10491D01*
X10495Y5650D01*
X10500D01*
X10181Y5442D02*
X10742D01*
X11058Y5758D02*
X11772D01*
X10742Y5442D02*
X11058Y5758D01*
X10500Y5650D02*
X10700D01*
X11005Y5955D02*
X11772D01*
X10700Y5650D02*
X11005Y5955D01*
X8342Y3500D02*
X8346Y3504D01*
X17654Y6480D02*
X17684Y6450D01*
X17654Y6480D02*
Y6846D01*
X17650Y6850D02*
X17654Y6846D01*
X18550Y6450D02*
Y6850D01*
X18800Y7100D01*
Y7350D01*
X17050Y6850D02*
X17650D01*
X16850Y7050D02*
X17050Y6850D01*
X10181Y4655D02*
X10184Y4652D01*
X10498D01*
X10500Y4650D01*
X10181Y4852D02*
X10182Y4851D01*
X10499D01*
X10500Y4850D01*
X10181Y5048D02*
X10182Y5049D01*
X10499D01*
X10500Y5050D01*
X10181Y5245D02*
X10184Y5248D01*
X10498D01*
X10500Y5250D01*
X18954Y6633D02*
X19036Y6550D01*
X18954Y6633D02*
Y6846D01*
X18950Y6850D02*
X18954Y6846D01*
X16354Y6481D02*
X16385Y6450D01*
X16354Y6481D02*
Y6846D01*
X16350Y6850D02*
X16354Y6846D01*
X15951Y6451D02*
X15952Y6450D01*
X15951Y6451D02*
Y6849D01*
X15950Y6850D02*
X15951Y6849D01*
X19400Y6532D02*
Y6850D01*
Y6532D02*
X19482Y6450D01*
X6350Y6300D02*
X8948D01*
X6000Y5950D02*
X6350Y6300D01*
X6000Y5336D02*
Y5950D01*
X5672Y5323D02*
X5674Y5325D01*
Y5774D01*
X5675Y5775D01*
X16018Y6450D02*
X16028Y6461D01*
X5987Y5323D02*
X6000Y5336D01*
X7900Y3209D02*
Y3900D01*
X7700Y4100D02*
X7900Y3900D01*
X7700Y4100D02*
Y4900D01*
X7500Y3948D02*
Y4950D01*
Y3948D02*
X7698Y3750D01*
X9116Y4652D02*
X9118Y4655D01*
X8802Y4652D02*
X9116D01*
X8800Y4650D02*
X8802Y4652D01*
X9118Y4851D02*
X9118Y4852D01*
X8801Y4851D02*
X9118D01*
X8800Y4850D02*
X8801Y4851D01*
X9118Y5049D02*
X9118Y5048D01*
X8801Y5049D02*
X9118D01*
X8800Y5050D02*
X8801Y5049D01*
X9116Y5248D02*
X9118Y5245D01*
X8802Y5248D02*
X9116D01*
X8800Y5250D02*
X8802Y5248D01*
X7850Y4500D02*
X8200Y4850D01*
X8800D01*
X8250Y5450D02*
X8800D01*
X7698Y3500D02*
Y3750D01*
X4700Y3650D02*
X6100D01*
X7841Y3150D02*
X7900Y3209D01*
X8200Y5650D02*
X8800D01*
X7698Y3150D02*
X7841D01*
X6877Y3496D02*
X7694D01*
X7304Y3174D02*
X7674D01*
X6873Y3178D02*
X7300D01*
X7304Y3174D01*
X8102Y3150D02*
Y3500D01*
Y2952D02*
Y3150D01*
X7902Y2952D02*
X8102D01*
X9114Y5446D02*
X9118Y5442D01*
X8804Y5446D02*
X9114D01*
X8800Y5450D02*
X8804Y5446D01*
X9111Y5646D02*
X9118Y5639D01*
X8809Y5646D02*
X9111D01*
X8805Y5650D02*
X8809Y5646D01*
X8800Y5650D02*
X8805D01*
X6250Y7100D02*
X6500D01*
X6550Y7150D01*
X7100D01*
X13102Y3702D02*
X13103Y3701D01*
X13834D02*
X13835Y3700D01*
X11605Y4095D02*
X12098D01*
X11600Y4100D02*
X11605Y4095D01*
X13328Y6742D02*
X13592D01*
X8769Y3150D02*
X8834D01*
Y3034D02*
Y3150D01*
X8550D02*
X8769D01*
X8102Y2400D02*
X8350D01*
X8450Y2500D01*
X12600D01*
X13100Y2000D01*
X8834Y3150D02*
X8838D01*
X8102Y2400D02*
Y2702D01*
X8550Y3150D01*
X8100Y2398D02*
X8102Y2400D01*
X8100Y2250D02*
Y2398D01*
X6950Y1900D02*
X7750D01*
X8100Y2250D01*
X7698Y2400D02*
X7700Y2402D01*
Y2750D01*
X7902Y2952D01*
X6400Y2450D02*
X6950Y1900D01*
X6459Y3807D02*
X6873D01*
X6400Y3749D02*
X6459Y3807D01*
X6400Y2450D02*
Y3749D01*
X4800Y3400D02*
X6100D01*
X3948Y2548D02*
X4800Y3400D01*
X3527Y2548D02*
X3948D01*
X6100Y4122D02*
X6873D01*
X4650Y3850D02*
X6100D01*
X3978Y3178D02*
X4650Y3850D01*
X3913Y2863D02*
X4700Y3650D01*
X4900Y3200D02*
X6100D01*
X4098Y2398D02*
X4900Y3200D01*
X6113Y4437D02*
X6873D01*
X7350Y2200D02*
Y2800D01*
X6873Y2863D02*
X7287D01*
X7350Y2800D01*
X6900Y2200D02*
Y2521D01*
X6873Y2548D02*
X6900Y2521D01*
X6873Y3493D02*
X6877Y3496D01*
X12502Y4302D02*
Y4498D01*
X8102Y3500D02*
X8342D01*
X7674Y3174D02*
X7698Y3150D01*
X7694Y3496D02*
X7698Y3500D01*
X6873Y4752D02*
X7298D01*
X7300Y4750D01*
X4098Y1977D02*
Y2398D01*
X3527Y2863D02*
X3913D01*
X3527Y3178D02*
X3978D01*
X3527Y4752D02*
X3529Y4750D01*
X6873Y3807D02*
X6877Y3804D01*
X6302Y1452D02*
Y1977D01*
X5987Y1463D02*
Y1977D01*
X2143Y3311D02*
X2589D01*
X2143Y3705D02*
X2595D01*
X2143Y3508D02*
X2592D01*
X2145Y3900D02*
X2600D01*
X3043Y3807D02*
X3527D01*
X2753Y4097D02*
X3043Y3807D01*
X2144Y4097D02*
X2753D01*
X3028Y4122D02*
X3527D01*
X2855Y4295D02*
X3028Y4122D01*
X2143Y4295D02*
X2855D01*
X2950Y4450D02*
X3514D01*
X2908Y4492D02*
X2950Y4450D01*
X2143Y4492D02*
X2908D01*
X3514Y4450D02*
X3527Y4437D01*
X2143Y3902D02*
X2145Y3900D01*
X2143Y4098D02*
X2144Y4097D01*
X4400Y5336D02*
X4413Y5323D01*
X12895Y3105D02*
Y3298D01*
X13102Y4095D02*
X13295D01*
X11770Y6548D02*
X11772Y6545D01*
X11349Y6548D02*
X11770D01*
X11346Y6550D02*
X11349Y6548D01*
X13976Y6349D02*
X13977Y6350D01*
X13328Y6349D02*
X13976D01*
X13328Y6348D02*
X13328Y6349D01*
X4413Y5323D02*
X4459Y5370D01*
X13977Y6350D02*
X14000D01*
D71*
X10512Y4509D02*
X10559D01*
X10478Y4475D02*
X10512Y4509D01*
X10199Y4475D02*
X10478D01*
X10181Y4458D02*
X10199Y4475D01*
X8642Y4458D02*
X9118D01*
X8580Y4520D02*
X8642Y4458D01*
D72*
X13102Y3898D02*
X13448D01*
X13500Y3950D01*
X13328Y6545D02*
X13745D01*
X13850Y6650D01*
X13733Y6100D02*
X14050D01*
X13328Y6152D02*
X13682D01*
X13733Y6100D01*
X13977Y5327D02*
Y5800D01*
X9750Y6300D02*
X9998D01*
X9352D02*
X9750D01*
X9748Y5836D02*
Y6298D01*
X9750Y6300D01*
X10650Y4273D02*
X11123D01*
X10288Y4263D02*
X10610D01*
X8673Y3823D02*
Y4250D01*
X8684Y4261D02*
X8700Y4277D01*
X8684Y4261D02*
X9118D01*
X8673Y4250D02*
X8684Y4261D01*
X4071Y5350D02*
X4098Y5323D01*
X3500Y5350D02*
X4071D01*
X3328Y5522D02*
Y6550D01*
Y5522D02*
X3500Y5350D01*
X4400Y5430D02*
X4459Y5370D01*
X4400Y5430D02*
Y5800D01*
X4272Y5928D02*
Y6550D01*
Y5928D02*
X4400Y5800D01*
X12895Y4302D02*
X12896Y4301D01*
Y4103D02*
Y4301D01*
Y4103D02*
X12900Y4099D01*
Y4000D02*
Y4099D01*
X12098Y3898D02*
X12798D01*
X12900Y4000D01*
X12097Y3504D02*
X12098Y3505D01*
X12053Y3504D02*
X12097D01*
X12049Y3500D02*
X12053Y3504D01*
X11950Y3500D02*
X12049D01*
X11850Y3600D02*
X11950Y3500D01*
X11650Y3623D02*
X11673Y3600D01*
X11850D01*
X11650Y3623D02*
Y3830D01*
X12097Y3899D02*
X12098Y3898D01*
X11841Y3899D02*
X12097D01*
X11840Y3900D02*
X11841Y3899D01*
X11720Y3900D02*
X11840D01*
X11650Y3830D02*
X11720Y3900D01*
X13328Y5955D02*
X13645D01*
X13800Y5800D01*
D73*
X5365Y5992D02*
X5642D01*
X18100Y6506D02*
Y7050D01*
X18159Y7150D02*
X18160Y7149D01*
X11400Y7400D02*
X12400D01*
X13103Y3701D02*
X13834D01*
X4427Y1112D02*
Y1400D01*
X3002Y4752D02*
X3527D01*
X3000Y4750D02*
X3002Y4752D01*
X4427Y823D02*
Y1112D01*
X4420Y1407D02*
X4427Y1400D01*
X4420Y1407D02*
Y1970D01*
X4413Y1977D02*
X4420Y1970D01*
X5765Y6115D02*
Y6550D01*
X5642Y5992D02*
X5765Y6115D01*
X5365Y5331D02*
Y5992D01*
X5357Y5323D02*
X5365Y5331D01*
X12713Y7400D02*
X13027D01*
X12400D02*
X12713D01*
X11388Y3623D02*
X11650D01*
X11127D02*
X11388D01*
X13800Y5800D02*
X13977D01*
X13042Y7037D02*
Y7370D01*
D74*
X10250Y2000D02*
D03*
Y1000D02*
D03*
X9250Y2000D02*
D03*
X13100D02*
D03*
Y1000D02*
D03*
X12100Y2000D02*
D03*
D75*
X9250Y1000D02*
D03*
X12100D02*
D03*
D76*
X19849Y1954D02*
D03*
X17251D02*
D03*
D77*
X6302Y5798D02*
D03*
X14730Y6550D02*
D03*
Y6060D02*
D03*
X5674Y5774D02*
D03*
X15300Y7100D02*
D03*
X15050D02*
D03*
X15450Y7300D02*
D03*
X15200D02*
D03*
X20158Y6900D02*
D03*
X20767D02*
D03*
X21375D02*
D03*
X21983D02*
D03*
X22592D02*
D03*
X23200D02*
D03*
Y7300D02*
D03*
X22592D02*
D03*
X21983D02*
D03*
X21375D02*
D03*
X20767D02*
D03*
X20158D02*
D03*
X3600Y1400D02*
D03*
Y1700D02*
D03*
X3250D02*
D03*
X3600Y1950D02*
D03*
X3250D02*
D03*
X2900D02*
D03*
X13977Y5563D02*
D03*
Y5327D02*
D03*
X10500Y7400D02*
D03*
X10175D02*
D03*
X9850D02*
D03*
X9525D02*
D03*
X9200D02*
D03*
X8875D02*
D03*
X8550D02*
D03*
X8225D02*
D03*
X7900D02*
D03*
X7590Y5610D02*
D03*
X7240D02*
D03*
X6890D02*
D03*
X7590Y5910D02*
D03*
X7240D02*
D03*
X6890D02*
D03*
X11123Y4273D02*
D03*
X10887D02*
D03*
X8673Y3823D02*
D03*
Y4037D02*
D03*
X19400Y6850D02*
D03*
X18950D02*
D03*
X18550D02*
D03*
X17650D02*
D03*
X16800D02*
D03*
X16350D02*
D03*
X15950D02*
D03*
X17950Y7400D02*
D03*
X18300D02*
D03*
X10500Y5650D02*
D03*
X7850Y4500D02*
D03*
X8350Y3500D02*
D03*
X10500Y4850D02*
D03*
Y5050D02*
D03*
Y5250D02*
D03*
X8800Y4650D02*
D03*
Y4850D02*
D03*
Y5050D02*
D03*
Y5250D02*
D03*
Y5650D02*
D03*
X10500Y4650D02*
D03*
X11600Y4100D02*
D03*
X13592Y6742D02*
D03*
X6100Y4122D02*
D03*
Y4437D02*
D03*
Y3850D02*
D03*
Y3650D02*
D03*
Y3400D02*
D03*
Y3200D02*
D03*
X7350Y2200D02*
D03*
X6900D02*
D03*
X12502Y4498D02*
D03*
X7300Y4750D02*
D03*
X3000D02*
D03*
X24900Y700D02*
D03*
X24500D02*
D03*
X24900Y1000D02*
D03*
X24500D02*
D03*
X6302Y1452D02*
D03*
X5987Y1463D02*
D03*
X2589Y3311D02*
D03*
X2592Y3508D02*
D03*
X2595Y3705D02*
D03*
X2600Y3900D02*
D03*
X6200Y550D02*
D03*
X5750D02*
D03*
X6200Y800D02*
D03*
X5750D02*
D03*
X6200Y1050D02*
D03*
X5750D02*
D03*
X4427Y823D02*
D03*
Y1112D02*
D03*
X6250Y6850D02*
D03*
X5750D02*
D03*
X6250Y7100D02*
D03*
X5750D02*
D03*
X11127Y3623D02*
D03*
X11388D02*
D03*
X12895Y3105D02*
D03*
X13295Y4095D02*
D03*
X12713Y7400D02*
D03*
X12400D02*
D03*
X1450Y4320D02*
D03*
X1000D02*
D03*
X1450Y4670D02*
D03*
X1000D02*
D03*
X2040Y5450D02*
D03*
X2290D02*
D03*
X2540D02*
D03*
Y5800D02*
D03*
X2290D02*
D03*
X2040D02*
D03*
D78*
X26772Y787D02*
D03*
Y7087D02*
D03*
X787Y787D02*
D03*
Y7087D02*
D03*
M02*
