G04*
G04 #@! TF.GenerationSoftware,Altium Limited,Altium Designer,20.0.1 (14)*
G04*
G04 Layer_Color=65535*
%FSLAX24Y24*%
%MOIN*%
G70*
G01*
G75*
%ADD10C,0.0039*%
%ADD11C,0.0157*%
%ADD12C,0.0079*%
%ADD13C,0.0020*%
%ADD14C,0.0030*%
%ADD15C,0.0060*%
D10*
X11852Y4076D02*
G03*
X11852Y4115I0J20D01*
G01*
D02*
G03*
X11852Y4076I0J-20D01*
G01*
X8507Y5200D02*
G03*
X8507Y5200I-157J0D01*
G01*
X7457D02*
G03*
X7457Y5200I-157J0D01*
G01*
X11557Y7400D02*
G03*
X11557Y7400I-157J0D01*
G01*
X7257Y7150D02*
G03*
X7257Y7150I-157J0D01*
G01*
X19690Y6174D02*
X21343D01*
X21550Y2857D02*
Y4993D01*
X15625Y2857D02*
Y4993D01*
X21550Y367D02*
Y1450D01*
X15625Y367D02*
X21550D01*
X15625D02*
Y1450D01*
X4430Y6294D02*
Y6806D01*
X3170Y6294D02*
Y6806D01*
X1966Y5181D02*
Y5890D01*
Y5181D02*
Y5890D01*
X1631D02*
X1966D01*
X1631D02*
X1966D01*
X234Y2130D02*
Y5870D01*
Y2130D02*
Y5870D01*
X1533Y2110D02*
X1966D01*
X1533D02*
X1966D01*
Y2819D01*
Y2110D02*
Y2819D01*
D11*
X6854Y5461D02*
G03*
X6854Y5461I-79J0D01*
G01*
D12*
X24950Y872D02*
G03*
X24950Y911I0J20D01*
G01*
D02*
G03*
X24950Y872I0J-20D01*
G01*
D02*
G03*
X24950Y911I0J20D01*
G01*
X19454Y6913D02*
G03*
X19375Y6913I-39J0D01*
G01*
D02*
G03*
X19454Y6913I39J0D01*
G01*
X9748Y3651D02*
G03*
X9748Y3690I0J20D01*
G01*
D02*
G03*
X9748Y3651I0J-20D01*
G01*
D02*
G03*
X9748Y3690I0J20D01*
G01*
X4233Y7101D02*
G03*
X4312Y7101I39J0D01*
G01*
D02*
G03*
X4233Y7101I-39J0D01*
G01*
X2360Y5220D02*
G03*
X2360Y5181I0J-20D01*
G01*
D02*
G03*
X2360Y5220I0J20D01*
G01*
D02*
G03*
X2360Y5181I0J-20D01*
G01*
X12058Y5069D02*
G03*
X12058Y5108I0J20D01*
G01*
D02*
G03*
X12058Y5069I0J-20D01*
G01*
D02*
G03*
X12058Y5108I0J20D01*
G01*
X6440Y2410D02*
Y4890D01*
X3960Y2410D02*
X6440D01*
X3960D02*
Y4890D01*
X6440D01*
X8750Y2500D02*
X10750D01*
X8750Y500D02*
Y2500D01*
X10750Y500D02*
Y2500D01*
X8750Y500D02*
X10750D01*
X11600Y2500D02*
X13600D01*
X11600Y500D02*
Y2500D01*
X13600Y500D02*
Y2500D01*
X11600Y500D02*
X13600D01*
X13835Y3543D02*
X14465D01*
X13609Y3857D02*
X14465D01*
X22588Y1738D02*
X23651D01*
X22588D02*
Y6462D01*
X23651D01*
X26249D02*
X27312D01*
Y1738D02*
Y6462D01*
X26249Y1738D02*
X27312D01*
X5135Y6707D02*
X5765D01*
X5135Y6393D02*
X5991D01*
X8507Y935D02*
Y1565D01*
X8193Y709D02*
Y1565D01*
X6410Y556D02*
X7385D01*
X6410D02*
Y1244D01*
X7385D01*
D13*
X9450Y7000D02*
Y6900D01*
X9517D01*
X9600D02*
X9567D01*
X9550Y6917D01*
Y6950D01*
X9567Y6967D01*
X9600D01*
X9617Y6950D01*
Y6933D01*
X9550D01*
X9650Y6967D02*
X9683Y6900D01*
X9717Y6967D01*
X9800Y6900D02*
X9767D01*
X9750Y6917D01*
Y6950D01*
X9767Y6967D01*
X9800D01*
X9817Y6950D01*
Y6933D01*
X9750D01*
X9850Y6900D02*
X9883D01*
X9867D01*
Y7000D01*
X9850D01*
X9467Y6833D02*
X9450Y6850D01*
X9417D01*
X9400Y6833D01*
Y6817D01*
X9417Y6800D01*
X9450D01*
X9467Y6783D01*
Y6767D01*
X9450Y6750D01*
X9417D01*
X9400Y6767D01*
X9500Y6850D02*
Y6750D01*
Y6800D01*
X9517Y6817D01*
X9550D01*
X9567Y6800D01*
Y6750D01*
X9600D02*
X9633D01*
X9617D01*
Y6817D01*
X9600D01*
X9700Y6750D02*
Y6833D01*
Y6800D01*
X9683D01*
X9717D01*
X9700D01*
Y6833D01*
X9717Y6850D01*
X9783Y6833D02*
Y6817D01*
X9767D01*
X9800D01*
X9783D01*
Y6767D01*
X9800Y6750D01*
X9900D02*
X9867D01*
X9850Y6767D01*
Y6800D01*
X9867Y6817D01*
X9900D01*
X9916Y6800D01*
Y6783D01*
X9850D01*
X9950Y6817D02*
Y6750D01*
Y6783D01*
X9966Y6800D01*
X9983Y6817D01*
X10000D01*
X13767Y1033D02*
X13750Y1050D01*
X13717D01*
X13700Y1033D01*
Y967D01*
X13717Y950D01*
X13750D01*
X13767Y967D01*
X13800Y1050D02*
Y950D01*
X13867D01*
X13900Y1050D02*
Y950D01*
Y983D01*
X13967Y1050D01*
X13917Y1000D01*
X13967Y950D01*
X13700Y2000D02*
Y2100D01*
X13750D01*
X13767Y2083D01*
Y2050D01*
X13750Y2033D01*
X13700D01*
X13733D02*
X13767Y2000D01*
X13867Y2100D02*
X13800D01*
Y2000D01*
X13867D01*
X13800Y2050D02*
X13833D01*
X13967Y2083D02*
X13950Y2100D01*
X13917D01*
X13900Y2083D01*
Y2067D01*
X13917Y2050D01*
X13950D01*
X13967Y2033D01*
Y2017D01*
X13950Y2000D01*
X13917D01*
X13900Y2017D01*
X14067Y2100D02*
X14000D01*
Y2000D01*
X14067D01*
X14000Y2050D02*
X14033D01*
X14100Y2100D02*
X14167D01*
X14133D01*
Y2000D01*
X11150Y950D02*
Y1050D01*
X11183Y1017D01*
X11217Y1050D01*
Y950D01*
X11250Y1050D02*
X11283D01*
X11267D01*
Y950D01*
X11250D01*
X11283D01*
X11400Y1033D02*
X11383Y1050D01*
X11350D01*
X11333Y1033D01*
Y1017D01*
X11350Y1000D01*
X11383D01*
X11400Y983D01*
Y967D01*
X11383Y950D01*
X11350D01*
X11333Y967D01*
X11483Y1050D02*
X11450D01*
X11433Y1033D01*
Y967D01*
X11450Y950D01*
X11483D01*
X11500Y967D01*
Y1033D01*
X11483Y1050D01*
X11200Y2000D02*
Y2100D01*
X11233Y2067D01*
X11267Y2100D01*
Y2000D01*
X11350Y2100D02*
X11317D01*
X11300Y2083D01*
Y2017D01*
X11317Y2000D01*
X11350D01*
X11367Y2017D01*
Y2083D01*
X11350Y2100D01*
X11467Y2083D02*
X11450Y2100D01*
X11417D01*
X11400Y2083D01*
Y2067D01*
X11417Y2050D01*
X11450D01*
X11467Y2033D01*
Y2017D01*
X11450Y2000D01*
X11417D01*
X11400Y2017D01*
X11500Y2100D02*
X11533D01*
X11517D01*
Y2000D01*
X11500D01*
X11533D01*
X10850Y617D02*
X10917D01*
X10883D01*
Y517D01*
X10950Y617D02*
X11017Y517D01*
Y617D02*
X10950Y517D01*
X10850Y2200D02*
Y2300D01*
X10900D01*
X10917Y2283D01*
Y2250D01*
X10900Y2233D01*
X10850D01*
X10883D02*
X10917Y2200D01*
X10950Y2300D02*
X11017Y2200D01*
Y2300D02*
X10950Y2200D01*
X8467Y2283D02*
X8450Y2300D01*
X8417D01*
X8400Y2283D01*
Y2217D01*
X8417Y2200D01*
X8450D01*
X8467Y2217D01*
Y2250D01*
X8433D01*
X8500Y2200D02*
Y2300D01*
X8567Y2200D01*
Y2300D01*
X8600D02*
Y2200D01*
X8650D01*
X8667Y2217D01*
Y2283D01*
X8650Y2300D01*
X8600D01*
X8300Y617D02*
Y550D01*
X8333Y517D01*
X8367Y550D01*
Y617D01*
X8400D02*
Y533D01*
X8417Y517D01*
X8450D01*
X8467Y533D01*
Y617D01*
X8567Y600D02*
X8550Y617D01*
X8517D01*
X8500Y600D01*
Y583D01*
X8517Y567D01*
X8550D01*
X8567Y550D01*
Y533D01*
X8550Y517D01*
X8517D01*
X8500Y533D01*
X8600Y617D02*
Y517D01*
X8650D01*
X8667Y533D01*
Y550D01*
X8650Y567D01*
X8600D01*
X8650D01*
X8667Y583D01*
Y600D01*
X8650Y617D01*
X8600D01*
X10150Y6500D02*
Y6600D01*
X10200D01*
X10217Y6583D01*
Y6550D01*
X10200Y6533D01*
X10150D01*
X10183D02*
X10217Y6500D01*
X10250D02*
X10283D01*
X10267D01*
Y6600D01*
X10250Y6583D01*
X10333Y6500D02*
X10367D01*
X10350D01*
Y6600D01*
X10333Y6583D01*
X9100Y6500D02*
Y6600D01*
X9150D01*
X9167Y6583D01*
Y6550D01*
X9150Y6533D01*
X9100D01*
X9133D02*
X9167Y6500D01*
X9200Y6517D02*
X9217Y6500D01*
X9250D01*
X9267Y6517D01*
Y6583D01*
X9250Y6600D01*
X9217D01*
X9200Y6583D01*
Y6567D01*
X9217Y6550D01*
X9267D01*
X8267Y5483D02*
X8250Y5500D01*
X8217D01*
X8200Y5483D01*
Y5467D01*
X8217Y5450D01*
X8250D01*
X8267Y5433D01*
Y5417D01*
X8250Y5400D01*
X8217D01*
X8200Y5417D01*
X8300Y5500D02*
Y5400D01*
X8350D01*
X8367Y5417D01*
Y5483D01*
X8350Y5500D01*
X8300D01*
X8400Y5400D02*
Y5467D01*
X8433Y5500D01*
X8467Y5467D01*
Y5400D01*
Y5450D01*
X8400D01*
X7217Y5483D02*
X7200Y5500D01*
X7167D01*
X7150Y5483D01*
Y5467D01*
X7167Y5450D01*
X7200D01*
X7217Y5433D01*
Y5417D01*
X7200Y5400D01*
X7167D01*
X7150Y5417D01*
X7317Y5483D02*
X7300Y5500D01*
X7267D01*
X7250Y5483D01*
Y5417D01*
X7267Y5400D01*
X7300D01*
X7317Y5417D01*
X7350Y5500D02*
Y5400D01*
X7417D01*
X7067Y7500D02*
X7000D01*
Y7450D01*
X7033Y7467D01*
X7050D01*
X7067Y7450D01*
Y7417D01*
X7050Y7400D01*
X7017D01*
X7000Y7417D01*
X7100Y7500D02*
Y7433D01*
X7133Y7400D01*
X7167Y7433D01*
Y7500D01*
X10800Y7433D02*
X10817Y7450D01*
X10850D01*
X10867Y7433D01*
Y7417D01*
X10850Y7400D01*
X10833D01*
X10850D01*
X10867Y7383D01*
Y7367D01*
X10850Y7350D01*
X10817D01*
X10800Y7367D01*
X10900Y7350D02*
Y7367D01*
X10917D01*
Y7350D01*
X10900D01*
X10983Y7433D02*
X11000Y7450D01*
X11033D01*
X11050Y7433D01*
Y7417D01*
X11033Y7400D01*
X11017D01*
X11033D01*
X11050Y7383D01*
Y7367D01*
X11033Y7350D01*
X11000D01*
X10983Y7367D01*
X11083Y7450D02*
Y7383D01*
X11117Y7350D01*
X11150Y7383D01*
Y7450D01*
X8900Y3550D02*
Y3450D01*
X8950D01*
X8967Y3467D01*
Y3483D01*
X8950Y3500D01*
X8900D01*
X8950D01*
X8967Y3517D01*
Y3533D01*
X8950Y3550D01*
X8900D01*
X9000Y3450D02*
X9033D01*
X9017D01*
Y3550D01*
X9000Y3533D01*
X17767Y7433D02*
X17750Y7450D01*
X17717D01*
X17700Y7433D01*
Y7367D01*
X17717Y7350D01*
X17750D01*
X17767Y7367D01*
X17800Y7350D02*
X17833D01*
X17817D01*
Y7450D01*
X17800Y7433D01*
X3700Y7200D02*
Y7117D01*
X3717Y7100D01*
X3750D01*
X3767Y7117D01*
Y7200D01*
X3800Y7100D02*
X3833D01*
X3817D01*
Y7200D01*
X3800Y7183D01*
X7800Y2900D02*
Y3000D01*
X7850D01*
X7867Y2983D01*
Y2950D01*
X7850Y2933D01*
X7800D01*
X7833D02*
X7867Y2900D01*
X7900D02*
X7933D01*
X7917D01*
Y3000D01*
X7900Y2983D01*
X8050Y2900D02*
X7983D01*
X8050Y2967D01*
Y2983D01*
X8033Y3000D01*
X8000D01*
X7983Y2983D01*
X7800Y3650D02*
Y3750D01*
X7850D01*
X7867Y3733D01*
Y3700D01*
X7850Y3683D01*
X7800D01*
X7833D02*
X7867Y3650D01*
X7900D02*
X7933D01*
X7917D01*
Y3750D01*
X7900Y3733D01*
X7983D02*
X8000Y3750D01*
X8033D01*
X8050Y3733D01*
Y3667D01*
X8033Y3650D01*
X8000D01*
X7983Y3667D01*
Y3733D01*
X7800Y2550D02*
Y2650D01*
X7850D01*
X7867Y2633D01*
Y2600D01*
X7850Y2583D01*
X7800D01*
X7833D02*
X7867Y2550D01*
X7900D02*
X7933D01*
X7917D01*
Y2650D01*
X7900Y2633D01*
X22350Y6900D02*
Y6800D01*
X22417D01*
X22517Y6883D02*
X22500Y6900D01*
X22467D01*
X22450Y6883D01*
Y6867D01*
X22467Y6850D01*
X22500D01*
X22517Y6833D01*
Y6817D01*
X22500Y6800D01*
X22467D01*
X22450Y6817D01*
X22550Y6800D02*
X22583D01*
X22567D01*
Y6900D01*
X22550Y6883D01*
X12467Y2700D02*
X12433D01*
X12450D01*
Y2617D01*
X12433Y2600D01*
X12417D01*
X12400Y2617D01*
X12500Y2600D02*
Y2700D01*
X12550D01*
X12567Y2683D01*
Y2650D01*
X12550Y2633D01*
X12500D01*
X12667Y2600D02*
X12600D01*
X12667Y2667D01*
Y2683D01*
X12650Y2700D01*
X12617D01*
X12600Y2683D01*
X9617Y2700D02*
X9583D01*
X9600D01*
Y2617D01*
X9583Y2600D01*
X9567D01*
X9550Y2617D01*
X9650Y2600D02*
Y2700D01*
X9700D01*
X9717Y2683D01*
Y2650D01*
X9700Y2633D01*
X9650D01*
X9750Y2600D02*
X9783D01*
X9767D01*
Y2700D01*
X9750Y2683D01*
X15233Y6750D02*
X15199D01*
X15216D01*
Y6667D01*
X15199Y6650D01*
X15183D01*
X15166Y6667D01*
X15333Y6650D02*
X15266D01*
X15333Y6717D01*
Y6733D01*
X15316Y6750D01*
X15283D01*
X15266Y6733D01*
X417Y6500D02*
X383D01*
X400D01*
Y6417D01*
X383Y6400D01*
X367D01*
X350Y6417D01*
X450Y6400D02*
X483D01*
X467D01*
Y6500D01*
X450Y6483D01*
X12250Y5050D02*
Y5150D01*
X12283Y5117D01*
X12317Y5150D01*
Y5050D01*
X12350D02*
Y5150D01*
X12400D01*
X12417Y5133D01*
Y5100D01*
X12400Y5083D01*
X12350D01*
X12450Y5150D02*
Y5067D01*
X12467Y5050D01*
X12500D01*
X12517Y5067D01*
Y5150D01*
X12617D02*
X12583Y5133D01*
X12550Y5100D01*
Y5067D01*
X12567Y5050D01*
X12600D01*
X12617Y5067D01*
Y5083D01*
X12600Y5100D01*
X12550D01*
X12650Y5133D02*
X12667Y5150D01*
X12700D01*
X12717Y5133D01*
Y5067D01*
X12700Y5050D01*
X12667D01*
X12650Y5067D01*
Y5133D01*
X12816Y5150D02*
X12750D01*
Y5100D01*
X12783Y5117D01*
X12800D01*
X12816Y5100D01*
Y5067D01*
X12800Y5050D01*
X12766D01*
X12750Y5067D01*
X12850Y5133D02*
X12866Y5150D01*
X12900D01*
X12916Y5133D01*
Y5067D01*
X12900Y5050D01*
X12866D01*
X12850Y5067D01*
Y5133D01*
X12800Y4600D02*
Y4500D01*
Y4550D01*
X12867D01*
Y4600D01*
Y4500D01*
X12900D02*
Y4600D01*
X12933Y4567D01*
X12967Y4600D01*
Y4500D01*
X13067Y4583D02*
X13050Y4600D01*
X13017D01*
X13000Y4583D01*
Y4517D01*
X13017Y4500D01*
X13050D01*
X13067Y4517D01*
X13167Y4600D02*
X13100D01*
Y4550D01*
X13133Y4567D01*
X13150D01*
X13167Y4550D01*
Y4517D01*
X13150Y4500D01*
X13117D01*
X13100Y4517D01*
X13200Y4583D02*
X13217Y4600D01*
X13250D01*
X13267Y4583D01*
Y4567D01*
X13250Y4550D01*
X13267Y4533D01*
Y4517D01*
X13250Y4500D01*
X13217D01*
X13200Y4517D01*
Y4533D01*
X13217Y4550D01*
X13200Y4567D01*
Y4583D01*
X13217Y4550D02*
X13250D01*
X13300Y4583D02*
X13317Y4600D01*
X13350D01*
X13366Y4583D01*
Y4567D01*
X13350Y4550D01*
X13366Y4533D01*
Y4517D01*
X13350Y4500D01*
X13317D01*
X13300Y4517D01*
Y4533D01*
X13317Y4550D01*
X13300Y4567D01*
Y4583D01*
X13317Y4550D02*
X13350D01*
X13400Y4583D02*
X13416Y4600D01*
X13450D01*
X13466Y4583D01*
Y4567D01*
X13450Y4550D01*
X13433D01*
X13450D01*
X13466Y4533D01*
Y4517D01*
X13450Y4500D01*
X13416D01*
X13400Y4517D01*
X13500Y4600D02*
Y4500D01*
X13566D01*
X2850Y5100D02*
Y5167D01*
X2883Y5200D01*
X2917Y5167D01*
Y5100D01*
Y5150D01*
X2850D01*
X2950Y5200D02*
X3017D01*
X2983D01*
Y5100D01*
X3050D02*
Y5200D01*
X3083Y5167D01*
X3117Y5200D01*
Y5100D01*
X3200D02*
X3167D01*
X3150Y5117D01*
Y5150D01*
X3167Y5167D01*
X3200D01*
X3217Y5150D01*
Y5133D01*
X3150D01*
X3283Y5067D02*
X3300D01*
X3317Y5083D01*
Y5167D01*
X3267D01*
X3250Y5150D01*
Y5117D01*
X3267Y5100D01*
X3317D01*
X3367Y5167D02*
X3400D01*
X3416Y5150D01*
Y5100D01*
X3367D01*
X3350Y5117D01*
X3367Y5133D01*
X3416D01*
X3450Y5183D02*
X3466Y5200D01*
X3500D01*
X3516Y5183D01*
Y5167D01*
X3500Y5150D01*
X3483D01*
X3500D01*
X3516Y5133D01*
Y5117D01*
X3500Y5100D01*
X3466D01*
X3450Y5117D01*
X3616Y5100D02*
X3550D01*
X3616Y5167D01*
Y5183D01*
X3600Y5200D01*
X3566D01*
X3550Y5183D01*
X3650D02*
X3666Y5200D01*
X3700D01*
X3716Y5183D01*
Y5167D01*
X3700Y5150D01*
X3716Y5133D01*
Y5117D01*
X3700Y5100D01*
X3666D01*
X3650Y5117D01*
Y5133D01*
X3666Y5150D01*
X3650Y5167D01*
Y5183D01*
X3666Y5150D02*
X3700D01*
X6950Y1450D02*
Y1350D01*
X7000D01*
X7017Y1367D01*
Y1433D01*
X7000Y1450D01*
X6950D01*
X7050Y1350D02*
X7083D01*
X7067D01*
Y1450D01*
X7050Y1433D01*
X14083Y6083D02*
X14067Y6100D01*
X14033D01*
X14017Y6083D01*
Y6017D01*
X14033Y6000D01*
X14067D01*
X14083Y6017D01*
X14117Y6000D02*
X14150D01*
X14133D01*
Y6100D01*
X14117Y6083D01*
X14267Y6100D02*
X14200D01*
Y6050D01*
X14233Y6067D01*
X14250D01*
X14267Y6050D01*
Y6017D01*
X14250Y6000D01*
X14217D01*
X14200Y6017D01*
X11567Y3033D02*
X11550Y3050D01*
X11517D01*
X11500Y3033D01*
Y2967D01*
X11517Y2950D01*
X11550D01*
X11567Y2967D01*
X11600Y2950D02*
X11633D01*
X11617D01*
Y3050D01*
X11600Y3033D01*
X11733Y2950D02*
Y3050D01*
X11683Y3000D01*
X11750D01*
X14117Y4133D02*
X14100Y4150D01*
X14067D01*
X14050Y4133D01*
Y4067D01*
X14067Y4050D01*
X14100D01*
X14117Y4067D01*
X14150Y4050D02*
X14183D01*
X14167D01*
Y4150D01*
X14150Y4133D01*
X14300Y4050D02*
X14233D01*
X14300Y4117D01*
Y4133D01*
X14283Y4150D01*
X14250D01*
X14233Y4133D01*
X14117Y6633D02*
X14100Y6650D01*
X14067D01*
X14050Y6633D01*
Y6567D01*
X14067Y6550D01*
X14100D01*
X14117Y6567D01*
X14150Y6550D02*
X14183D01*
X14167D01*
Y6650D01*
X14150Y6633D01*
X14233Y6550D02*
X14267D01*
X14250D01*
Y6650D01*
X14233Y6633D01*
X11117Y6883D02*
X11100Y6900D01*
X11067D01*
X11050Y6883D01*
Y6817D01*
X11067Y6800D01*
X11100D01*
X11117Y6817D01*
X11150Y6800D02*
X11183D01*
X11167D01*
Y6900D01*
X11150Y6883D01*
X11233D02*
X11250Y6900D01*
X11283D01*
X11300Y6883D01*
Y6817D01*
X11283Y6800D01*
X11250D01*
X11233Y6817D01*
Y6883D01*
X13717Y7433D02*
X13700Y7450D01*
X13667D01*
X13650Y7433D01*
Y7367D01*
X13667Y7350D01*
X13700D01*
X13717Y7367D01*
X13750D02*
X13767Y7350D01*
X13800D01*
X13817Y7367D01*
Y7433D01*
X13800Y7450D01*
X13767D01*
X13750Y7433D01*
Y7417D01*
X13767Y7400D01*
X13817D01*
X8517Y4583D02*
X8500Y4600D01*
X8467D01*
X8450Y4583D01*
Y4517D01*
X8467Y4500D01*
X8500D01*
X8517Y4517D01*
X8550Y4600D02*
X8617D01*
Y4583D01*
X8550Y4517D01*
Y4500D01*
X10967Y4083D02*
X10950Y4100D01*
X10917D01*
X10900Y4083D01*
Y4017D01*
X10917Y4000D01*
X10950D01*
X10967Y4017D01*
X11000Y4083D02*
X11017Y4100D01*
X11050D01*
X11067Y4083D01*
Y4067D01*
X11050Y4050D01*
X11067Y4033D01*
Y4017D01*
X11050Y4000D01*
X11017D01*
X11000Y4017D01*
Y4033D01*
X11017Y4050D01*
X11000Y4067D01*
Y4083D01*
X11017Y4050D02*
X11050D01*
X5717Y6033D02*
X5700Y6050D01*
X5667D01*
X5650Y6033D01*
Y5967D01*
X5667Y5950D01*
X5700D01*
X5717Y5967D01*
X5817Y6050D02*
X5783Y6033D01*
X5750Y6000D01*
Y5967D01*
X5767Y5950D01*
X5800D01*
X5817Y5967D01*
Y5983D01*
X5800Y6000D01*
X5750D01*
X4767Y1183D02*
X4750Y1200D01*
X4717D01*
X4700Y1183D01*
Y1117D01*
X4717Y1100D01*
X4750D01*
X4767Y1117D01*
X4867Y1200D02*
X4800D01*
Y1150D01*
X4833Y1167D01*
X4850D01*
X4867Y1150D01*
Y1117D01*
X4850Y1100D01*
X4817D01*
X4800Y1117D01*
X5417Y6933D02*
X5400Y6950D01*
X5367D01*
X5350Y6933D01*
Y6867D01*
X5367Y6850D01*
X5400D01*
X5417Y6867D01*
X5500Y6850D02*
Y6950D01*
X5450Y6900D01*
X5517D01*
X8317Y2083D02*
X8300Y2100D01*
X8267D01*
X8250Y2083D01*
Y2017D01*
X8267Y2000D01*
X8300D01*
X8317Y2017D01*
X8350Y2083D02*
X8367Y2100D01*
X8400D01*
X8417Y2083D01*
Y2067D01*
X8400Y2050D01*
X8383D01*
X8400D01*
X8417Y2033D01*
Y2017D01*
X8400Y2000D01*
X8367D01*
X8350Y2017D01*
X7817Y1533D02*
X7800Y1550D01*
X7767D01*
X7750Y1533D01*
Y1467D01*
X7767Y1450D01*
X7800D01*
X7817Y1467D01*
X7917Y1450D02*
X7850D01*
X7917Y1517D01*
Y1533D01*
X7900Y1550D01*
X7867D01*
X7850Y1533D01*
D14*
X1317Y1400D02*
Y1200D01*
X1250Y1400D02*
X1383D01*
X1407D02*
X1483Y1305D01*
Y1200D01*
X1559Y1400D02*
X1483Y1305D01*
X1585Y1133D02*
X1738D01*
X1763Y1400D02*
Y1200D01*
Y1400D02*
X1887D01*
X1763Y1305D02*
X1839D01*
X1910Y1400D02*
X1986Y1305D01*
Y1200D01*
X2062Y1400D02*
X1986Y1305D01*
X2088Y1295D02*
X2174D01*
X2202Y1305D01*
X2212Y1314D01*
X2221Y1333D01*
Y1362D01*
X2212Y1381D01*
X2202Y1390D01*
X2174Y1400D01*
X2088D01*
Y1200D01*
X1300Y950D02*
Y750D01*
X1414D01*
X1436Y826D02*
X1550D01*
Y845D01*
X1541Y864D01*
X1531Y874D01*
X1512Y883D01*
X1484D01*
X1465Y874D01*
X1446Y855D01*
X1436Y826D01*
Y807D01*
X1446Y779D01*
X1465Y760D01*
X1484Y750D01*
X1512D01*
X1531Y760D01*
X1550Y779D01*
X1669Y950D02*
X1650D01*
X1631Y940D01*
X1622Y912D01*
Y750D01*
X1593Y883D02*
X1660D01*
X1727Y950D02*
Y788D01*
X1736Y760D01*
X1755Y750D01*
X1774D01*
X1698Y883D02*
X1765D01*
X1960Y950D02*
Y750D01*
X2074D01*
X2096Y826D02*
X2210D01*
Y845D01*
X2201Y864D01*
X2191Y874D01*
X2172Y883D01*
X2144D01*
X2125Y874D01*
X2106Y855D01*
X2096Y826D01*
Y807D01*
X2106Y779D01*
X2125Y760D01*
X2144Y750D01*
X2172D01*
X2191Y760D01*
X2210Y779D01*
X2367Y883D02*
Y731D01*
X2358Y702D01*
X2348Y693D01*
X2329Y683D01*
X2301D01*
X2282Y693D01*
X2367Y855D02*
X2348Y874D01*
X2329Y883D01*
X2301D01*
X2282Y874D01*
X2263Y855D01*
X2253Y826D01*
Y807D01*
X2263Y779D01*
X2282Y760D01*
X2301Y750D01*
X2329D01*
X2348Y760D01*
X2367Y779D01*
X2578Y845D02*
X2664D01*
X2692Y855D01*
X2702Y864D01*
X2711Y883D01*
Y912D01*
X2702Y931D01*
X2692Y940D01*
X2664Y950D01*
X2578D01*
Y750D01*
X2899Y902D02*
X2889Y921D01*
X2870Y940D01*
X2851Y950D01*
X2813D01*
X2794Y940D01*
X2775Y921D01*
X2765Y902D01*
X2756Y874D01*
Y826D01*
X2765Y798D01*
X2775Y779D01*
X2794Y760D01*
X2813Y750D01*
X2851D01*
X2870Y760D01*
X2889Y779D01*
X2899Y798D01*
X2955Y950D02*
Y750D01*
Y950D02*
X3041D01*
X3069Y940D01*
X3079Y931D01*
X3088Y912D01*
Y893D01*
X3079Y874D01*
X3069Y864D01*
X3041Y855D01*
X2955D02*
X3041D01*
X3069Y845D01*
X3079Y836D01*
X3088Y817D01*
Y788D01*
X3079Y769D01*
X3069Y760D01*
X3041Y750D01*
X2955D01*
X3290Y950D02*
X3366Y750D01*
X3442Y950D02*
X3366Y750D01*
X3468Y912D02*
X3487Y921D01*
X3516Y950D01*
Y750D01*
D15*
X27559Y0D02*
Y7874D01*
X0Y0D02*
Y7874D01*
Y0D02*
X27559D01*
X0Y7874D02*
X27559D01*
M02*
