G04*
G04 #@! TF.GenerationSoftware,Altium Limited,Altium Designer,20.0.1 (14)*
G04*
G04 Layer_Physical_Order=3*
G04 Layer_Color=128*
%FSLAX24Y24*%
%MOIN*%
G70*
G01*
G75*
%ADD15C,0.0060*%
%ADD79C,0.0400*%
%ADD80C,0.0474*%
%ADD81C,0.0494*%
%ADD82C,0.0220*%
%ADD83C,0.0711*%
G04:AMPARAMS|DCode=84|XSize=30mil|YSize=30mil|CornerRadius=0mil|HoleSize=0mil|Usage=FLASHONLY|Rotation=0.000|XOffset=0mil|YOffset=0mil|HoleType=Round|Shape=Relief|Width=6mil|Gap=5mil|Entries=4|*
%AMTHD84*
7,0,0,0.0300,0.0200,0.0060,45*
%
%ADD84THD84*%
D15*
X27559Y0D02*
Y7874D01*
X0Y0D02*
Y7874D01*
Y0D02*
X27559D01*
X0Y7874D02*
X27559D01*
D79*
X0Y0D02*
X27559D01*
Y7874D01*
X0D02*
X27559D01*
X0Y0D02*
Y7874D01*
D80*
X10250Y2000D02*
D03*
Y1000D02*
D03*
X9250Y2000D02*
D03*
Y1000D02*
D03*
X13100Y2000D02*
D03*
Y1000D02*
D03*
X12100Y2000D02*
D03*
Y1000D02*
D03*
D81*
X19849Y1954D02*
D03*
X17251D02*
D03*
D82*
X6302Y5798D02*
D03*
X14730Y6550D02*
D03*
Y6060D02*
D03*
X5674Y5774D02*
D03*
X15300Y7100D02*
D03*
X15050D02*
D03*
X15450Y7300D02*
D03*
X15200D02*
D03*
X20158Y6900D02*
D03*
X20767D02*
D03*
X21375D02*
D03*
X21983D02*
D03*
X22592D02*
D03*
X23200D02*
D03*
Y7300D02*
D03*
X22592D02*
D03*
X21983D02*
D03*
X21375D02*
D03*
X20767D02*
D03*
X20158D02*
D03*
X3600Y1400D02*
D03*
Y1700D02*
D03*
X3250D02*
D03*
X3600Y1950D02*
D03*
X3250D02*
D03*
X2900D02*
D03*
X10500Y7400D02*
D03*
X10175D02*
D03*
X9850D02*
D03*
X9525D02*
D03*
X9200D02*
D03*
X8875D02*
D03*
X8550D02*
D03*
X8225D02*
D03*
X7900D02*
D03*
X7590Y5610D02*
D03*
X7240D02*
D03*
X6890D02*
D03*
X7590Y5910D02*
D03*
X7240D02*
D03*
X6890D02*
D03*
X8673Y3823D02*
D03*
Y4037D02*
D03*
X19400Y6850D02*
D03*
X18950D02*
D03*
X18550D02*
D03*
X17650D02*
D03*
X16800D02*
D03*
X16350D02*
D03*
X15950D02*
D03*
X10500Y5650D02*
D03*
X7850Y4500D02*
D03*
X8350Y3500D02*
D03*
X10500Y4850D02*
D03*
Y5050D02*
D03*
Y5250D02*
D03*
X8800Y4650D02*
D03*
Y4850D02*
D03*
Y5050D02*
D03*
Y5250D02*
D03*
Y5650D02*
D03*
X10500Y4650D02*
D03*
X11600Y4100D02*
D03*
X13592Y6742D02*
D03*
X6100Y4122D02*
D03*
Y4437D02*
D03*
Y3850D02*
D03*
Y3650D02*
D03*
Y3400D02*
D03*
Y3200D02*
D03*
X7350Y2200D02*
D03*
X6900D02*
D03*
X12502Y4498D02*
D03*
X7300Y4750D02*
D03*
X3000D02*
D03*
X24900Y700D02*
D03*
X24500D02*
D03*
X24900Y1000D02*
D03*
X24500D02*
D03*
X6302Y1452D02*
D03*
X5987Y1463D02*
D03*
X2589Y3311D02*
D03*
X2592Y3508D02*
D03*
X2595Y3705D02*
D03*
X2600Y3900D02*
D03*
X6200Y550D02*
D03*
X5750D02*
D03*
X6200Y800D02*
D03*
X5750D02*
D03*
X6200Y1050D02*
D03*
X5750D02*
D03*
X4427Y823D02*
D03*
Y1112D02*
D03*
X6250Y6850D02*
D03*
X5750D02*
D03*
X6250Y7100D02*
D03*
X5750D02*
D03*
X12895Y3105D02*
D03*
X13295Y4095D02*
D03*
X2040Y5450D02*
D03*
X2290D02*
D03*
X2540D02*
D03*
Y5800D02*
D03*
X2290D02*
D03*
X2040D02*
D03*
D83*
X26772Y787D02*
D03*
Y7087D02*
D03*
X787Y787D02*
D03*
Y7087D02*
D03*
D84*
X13977Y5563D02*
D03*
Y5327D02*
D03*
X11123Y4273D02*
D03*
X10887D02*
D03*
X17950Y7400D02*
D03*
X18300D02*
D03*
X11127Y3623D02*
D03*
X11388D02*
D03*
X12713Y7400D02*
D03*
X12400D02*
D03*
X1450Y4320D02*
D03*
X1000D02*
D03*
X1450Y4670D02*
D03*
X1000D02*
D03*
M02*
