M48
;Layer_Color=9474304
;FILE_FORMAT=2:4
INCH,LZ
;TYPE=PLATED
T1F00S00C0.0100
T2F00S00C0.0354
T3F00S00C0.0591
;TYPE=NON_PLATED
T4F00S00C0.0374
%
T01
X0245Y0007
X0249
X0062Y0008
Y00055
X00575
Y0008
X004427Y000823
Y001112
X0036Y0014
Y0017
Y00195
X00325
Y0017
X0029Y00195
X002589Y003311
X002592Y003508
X002595Y003705
X0026Y0039
X003Y00475
X00254Y00545
X00229
X00204
Y0058
X00229
X00254
X00145Y00467
Y00432
X001
Y00467
X0061Y004437
Y004122
Y00385
Y00365
Y0034
Y0032
X005987Y001463
X0062Y00105
X00575
X005674Y005774
X00575Y00685
Y0071
X00625
Y00685
X006302Y005798
X00689Y00591
Y00561
X00724
Y00591
X00759
Y00561
X0073Y00475
X00785Y0045
X0088Y00465
Y00485
Y00505
Y00525
Y00565
X0105
Y00525
Y00505
Y00485
Y00465
X010887Y004273
X011123
X0116Y0041
X011388Y003623
X011127
X012502Y004498
X013295Y004095
X012895Y003105
X013977Y005327
Y005563
X01473Y00606
Y00655
X01505Y0071
X0153
X0152Y0073
X01545
X01595Y00685
X01635
X0168
X01765
X01795Y0074
X0183
X01855Y00685
X01895
X0194
X020158Y0069
Y0073
X020767
Y0069
X021375
Y0073
X013592Y006742
X012713Y0074
X0124
X0105
X010175
X00985
X009525
X0092
X008875
X00855
X008225
X0079
X008673Y004037
Y003823
X00835Y0035
X00735Y0022
X0069
X006302Y001452
X0245Y001
X0249
X0232Y0069
Y0073
X022592
Y0069
X021983
Y0073
T02
X00925Y001
X01025
Y002
X00925
X0121
X0131
Y001
X0121
T03
X026772Y000787
X000787
Y007087
X026772
T04
X017251Y001954
X019849
M30
