G04*
G04 #@! TF.GenerationSoftware,Altium Limited,Altium Designer,20.0.1 (14)*
G04*
G04 Layer_Color=16711935*
%FSLAX24Y24*%
%MOIN*%
G70*
G01*
G75*
%ADD15C,0.0060*%
%ADD51R,0.0294X0.0306*%
%ADD63C,0.0680*%
%ADD64R,0.0680X0.0680*%
%ADD65C,0.0237*%
%ADD66C,0.0641*%
%ADD86R,0.0247X0.0237*%
D15*
X27559Y0D02*
Y7874D01*
X0Y0D02*
Y7874D01*
Y0D02*
X27559D01*
X0Y7874D02*
X27559D01*
D51*
X13450Y3377D02*
D03*
Y3723D02*
D03*
D63*
X10250Y2000D02*
D03*
Y1000D02*
D03*
X9250Y2000D02*
D03*
X13100D02*
D03*
Y1000D02*
D03*
X12100Y2000D02*
D03*
D64*
X9250Y1000D02*
D03*
X12100D02*
D03*
D65*
X19849Y1954D02*
D03*
X17251D02*
D03*
D66*
X26772Y787D02*
D03*
Y7087D02*
D03*
X787Y787D02*
D03*
Y7087D02*
D03*
D86*
X15950Y7502D02*
D03*
Y7098D02*
D03*
X16350D02*
D03*
Y7502D02*
D03*
X16800D02*
D03*
Y7098D02*
D03*
X17650Y7502D02*
D03*
Y7098D02*
D03*
X18550Y7502D02*
D03*
Y7098D02*
D03*
X18950Y7502D02*
D03*
Y7098D02*
D03*
X19400D02*
D03*
Y7502D02*
D03*
M02*
